<svg width="26" height="24" viewBox="0 0 26 24" fill="none" xmlns="http://www.w3.org/2000/svg">
<path fill-rule="evenodd" clip-rule="evenodd" d="M20.781 22.1733C20.781 22.9097 20.1841 23.5067 19.4477 23.5067H6.11438C5.378 23.5067 4.78105 22.9097 4.78105 22.1733V14.1733H1.33333C0.979711 14.1733 0.640573 14.0329 0.390524 13.7828C-0.130175 13.2621 -0.130175 12.4179 0.390524 11.8972L11.8382 0.449484C12.3589 -0.0712148 13.2032 -0.0712148 13.7239 0.449484L25.1716 11.8972C25.4216 12.1472 25.5621 12.4864 25.5621 12.84C25.5621 13.5764 24.9651 14.1733 24.2288 14.1733H20.781V22.1733ZM12.781 1.33706L1.51312 12.4966H6.10615V22.1372H11.4478V18.059H14.1144V22.1372H19.4558V12.4966H24.0488L12.781 1.33706Z" fill="black" fill-opacity="0.9"/>
</svg>
