<svg width="32" height="33" viewBox="0 0 32 33" fill="none" xmlns="http://www.w3.org/2000/svg">
<path fill-rule="evenodd" clip-rule="evenodd" d="M16 4.71008L4 16.5134H8.89147V26.7101H23.1085V16.5134H28L16 4.71008Z" fill="#539968"/>
<path fill-rule="evenodd" clip-rule="evenodd" d="M23.781 26.1733C23.781 26.9097 23.1841 27.5067 22.4477 27.5067H9.11438C8.378 27.5067 7.78105 26.9097 7.78105 26.1733V18.1733H4.33333C3.97971 18.1733 3.64057 18.0329 3.39052 17.7828C2.86983 17.2621 2.86983 16.4179 3.39052 15.8972L14.8382 4.44948C15.3589 3.92879 16.2032 3.92879 16.7239 4.44948L28.1716 15.8972C28.4216 16.1472 28.5621 16.4864 28.5621 16.84C28.5621 17.5764 27.9651 18.1733 27.2288 18.1733H23.781V26.1733ZM15.781 5.33706L4.51312 16.4966H9.10615V26.1372H14.4478V22.059H17.1144V26.1372H22.4558V16.4966H27.0488L15.781 5.33706Z" fill="black" fill-opacity="0.9"/>
</svg>
