<svg width="32" height="33" viewBox="0 0 32 33" fill="none" xmlns="http://www.w3.org/2000/svg">
<path d="M8.552 6.36829L9.29494 8.65481H11.6991L9.7541 10.068L10.497 12.3545L8.552 10.9413L6.60697 12.3545L7.34991 10.068L5.40488 8.65481H7.80907L8.552 6.36829Z" fill="#FFB710"/>
<path d="M16.1252 3.89559C16.1851 3.71133 16.4458 3.71133 16.5056 3.89559L17.1384 5.84296C17.1652 5.92537 17.2419 5.98116 17.3286 5.98116H19.3762C19.5699 5.98116 19.6505 6.22908 19.4937 6.34296L17.8372 7.54651C17.7671 7.59744 17.7378 7.68771 17.7645 7.77011L18.3973 9.71749C18.4572 9.90175 18.2463 10.055 18.0895 9.94109L16.433 8.73755C16.3629 8.68662 16.268 8.68662 16.1979 8.73755L14.5413 9.94109C14.3846 10.055 14.1737 9.90175 14.2336 9.71749L14.8663 7.77011C14.8931 7.68771 14.8638 7.59744 14.7937 7.54651L13.1371 6.34296C12.9804 6.22908 13.0609 5.98116 13.2547 5.98116H15.3023C15.3889 5.98116 15.4657 5.92537 15.4925 5.84296L16.1252 3.89559Z" fill="#FFB710"/>
<path d="M23.8889 6.3973C23.9488 6.21304 24.2094 6.21304 24.2693 6.3973L24.9021 8.34467C24.9288 8.42708 25.0056 8.48287 25.0923 8.48287H27.1399C27.3336 8.48287 27.4142 8.73079 27.2574 8.84467L25.6009 10.0482C25.5308 10.0991 25.5014 10.1894 25.5282 10.2718L26.161 12.2192C26.2208 12.4035 26.0099 12.5567 25.8532 12.4428L24.1967 11.2393C24.1266 11.1883 24.0316 11.1883 23.9615 11.2393L22.305 12.4428C22.1483 12.5567 21.9374 12.4035 21.9972 12.2192L22.63 10.2718C22.6568 10.1894 22.6274 10.0991 22.5573 10.0482L20.9008 8.84467C20.7441 8.73079 20.8246 8.48287 21.0183 8.48287H23.0659C23.1526 8.48287 23.2294 8.42708 23.2562 8.34467L23.8889 6.3973Z" fill="#FFB710"/>
<path d="M11.2452 15.0624L9.9664 14.6111L8.83801 14.8367L8.23621 15.5889L8.06069 16.7675L8.46188 17.9209L8.83801 18.8236L7.93531 19.3502L6.88229 19.626L6.05471 20.5036L5.87915 23.2869L6.88229 24.5156L9.46496 24.9168L11.5712 24.7663L11.7718 26.1204L12.4739 27.023L14.9062 27.7251H17.6393L19.6704 27.1735L20.8489 26.321L20.9994 24.7663H22.6041L24.7856 24.5156L26.3904 23.7633V20.2027L25.6633 19.3502H24.0585L23.8077 18.6731L24.3092 17.5699V15.2379L22.9803 14.6111L21.5259 15.2379L21.3504 17.5699L21.8519 18.8236L21.2 19.1997L19.6704 19.626L18.9432 20.8045H18.2411L17.6393 19.8767L18.4417 18.3221L18.2411 15.8898L17.4137 15.2379L15.7587 15.0624L14.4047 15.8898L14.2041 18.4725L14.9062 19.626L14.7307 20.5036L13.5772 20.8045L13.0005 19.626L11.3957 19.3502L10.9444 18.4725L11.5712 16.7675L11.2452 15.0624Z" fill="#539968"/>
<path d="M25.8715 18.8902C25.5784 18.7834 25.2763 18.7572 24.9743 18.8111C24.8679 18.8299 24.6769 18.864 24.5264 18.5572C24.6457 18.4496 24.7525 18.3084 24.8433 18.1366C25.0014 17.8377 25.0854 17.4902 25.0854 17.1322V15.9454C25.0854 15.4156 24.903 14.9672 24.5575 14.6499C23.9593 14.0997 23.082 14.1099 22.8632 14.1225C22.644 14.1099 21.7687 14.0997 21.1713 14.6495C20.8254 14.9672 20.643 15.4156 20.643 15.9454V17.1322C20.643 17.4926 20.7259 17.8401 20.886 18.1418C20.9802 18.3144 21.0836 18.4513 21.2005 18.5577C21.053 18.8633 20.86 18.8304 20.7545 18.812C20.4528 18.7576 20.1504 18.7838 19.8593 18.8895C19.232 19.1146 18.7825 19.6713 18.6569 20.3311C18.4812 20.2825 18.3376 20.1361 18.2338 19.8827C18.3958 19.7536 18.5405 19.5716 18.6651 19.3396C18.8529 18.9859 18.9519 18.5739 18.9519 18.1489V16.6797C18.9519 16.0567 18.7389 15.5312 18.3352 15.1595C17.6243 14.5054 16.5391 14.5249 16.3149 14.5366C16.0887 14.5245 15.0053 14.5056 14.2945 15.1595C13.8908 15.5312 13.6779 16.0567 13.6779 16.6797V18.1489C13.6779 18.5735 13.7773 18.9855 13.9655 19.3411C14.0883 19.5712 14.2328 19.7531 14.3955 19.8831C14.2722 20.1805 14.1156 20.2955 13.9737 20.3367C13.849 19.6743 13.3993 19.1158 12.7724 18.8908C12.4789 18.7836 12.1761 18.7578 11.8776 18.8118C11.77 18.8306 11.5778 18.8642 11.4288 18.5579C11.5458 18.4515 11.6515 18.3114 11.7461 18.1368C11.9034 17.8394 11.9868 17.4924 11.9868 17.1324V15.9456C11.9868 15.4158 11.8044 14.9674 11.4589 14.6497C10.8617 14.0999 9.98379 14.1092 9.76653 14.1227C9.54862 14.1101 8.67047 14.0999 8.0722 14.6501C7.72671 14.9679 7.54433 15.4162 7.54433 15.9456V17.1324C7.54433 17.49 7.62773 17.8375 7.78693 18.1368C7.87856 18.3101 7.98578 18.4517 8.10318 18.5579C7.95286 18.8635 7.76159 18.8302 7.65827 18.8117C7.35545 18.7574 7.05263 18.7836 6.76106 18.8899C6.01917 19.1564 5.521 19.8855 5.521 20.7051V23.3592C5.521 23.6397 5.61371 24.053 6.05515 24.4324C6.81977 25.0894 8.32823 25.3719 9.76221 25.3719C10.2533 25.3719 10.7322 25.3359 11.1728 25.2733V25.8614C11.1728 27.6155 13.9428 28.2374 16.3155 28.2374C18.6882 28.2374 21.4582 27.6148 21.4582 25.8614V25.2729C21.9016 25.3344 22.3792 25.3703 22.8681 25.3703C24.3087 25.3703 25.8118 25.0874 26.5755 24.4324C27.0165 24.0529 27.1097 23.6396 27.1097 23.3592V20.7051C27.109 19.8848 26.6108 19.1555 25.8713 18.8901L25.8715 18.8902ZM11.143 24.2995C9.41618 24.564 7.37594 24.287 6.68779 23.6954C6.49176 23.5271 6.49176 23.4004 6.49176 23.3586V20.7045C6.49176 20.2936 6.73197 19.931 7.09152 19.8021C7.22343 19.754 7.35362 19.743 7.48834 19.7672C8.19103 19.8905 8.77649 19.532 9.05225 18.8061C9.18026 18.4665 9.06589 18.0818 8.76308 17.8455C8.75051 17.8358 8.70329 17.795 8.64416 17.683C8.55969 17.523 8.51463 17.3328 8.51463 17.1329V15.9461C8.51463 15.689 8.58395 15.4992 8.72712 15.3662C9.01153 15.1022 9.54614 15.0799 9.72614 15.0927C9.75322 15.095 9.78007 15.095 9.80672 15.0927C9.97372 15.0786 10.5137 15.0989 10.8018 15.3638C10.9465 15.4968 11.0167 15.6875 11.0167 15.9461V17.1329C11.0167 17.3376 10.974 17.523 10.8915 17.6787C10.8274 17.7961 10.7799 17.8388 10.7678 17.8481C10.4669 18.0801 10.3519 18.4652 10.481 18.8064C10.7526 19.5327 11.3368 19.8927 12.0477 19.7675C12.1803 19.7436 12.3092 19.7553 12.4426 19.8038C12.69 19.8927 12.875 20.0969 12.9696 20.3477C12.8561 20.3681 12.7426 20.3947 12.6308 20.435C11.7584 20.7504 11.1724 21.6112 11.1724 22.5766V24.2976L11.143 24.2995ZM20.4877 25.8606C20.4877 26.636 18.6162 27.2662 16.3154 27.2662C14.0146 27.2662 12.1431 26.6354 12.1431 25.8606V22.5753C12.1431 22.0174 12.4722 21.5235 12.9613 21.3463C13.0821 21.3032 13.2015 21.2813 13.3236 21.2813C13.3858 21.2813 13.4488 21.2867 13.513 21.2982C14.3276 21.4399 15.003 21.0235 15.3223 20.1794C15.4624 19.8062 15.3359 19.3836 15.0045 19.1249C14.9716 19.0998 14.9036 19.0342 14.823 18.8838C14.7095 18.6694 14.6493 18.4147 14.6493 18.1478V16.6786C14.6493 16.3253 14.7478 16.0624 14.9502 15.8752C15.3344 15.5191 16.038 15.4894 16.2758 15.5055C16.3016 15.5078 16.3291 15.5074 16.3544 15.5055C16.5946 15.4855 17.2967 15.5185 17.6814 15.8748C17.8837 16.0626 17.9822 16.3255 17.9822 16.6782V18.1474C17.9822 18.4147 17.922 18.669 17.81 18.8815C17.7279 19.0333 17.6602 19.0989 17.6246 19.1265C17.2956 19.3821 17.1695 19.8053 17.3097 20.1789C17.5566 20.8344 18.0136 21.2362 18.5974 21.3109C18.7586 21.3337 18.9278 21.3298 19.1186 21.2973C19.3088 21.2633 19.4888 21.2804 19.6703 21.3454C20.1594 21.5225 20.4884 22.016 20.4884 22.5744L20.4882 25.8606L20.4877 25.8606ZM26.1388 23.3583C26.1388 23.4002 26.1388 23.5273 25.9428 23.6956C25.2548 24.2861 23.2139 24.5631 21.4843 24.2993L21.4581 24.2954V22.5757C21.4581 21.6101 20.872 20.7499 19.9991 20.4341C19.8875 20.3939 19.7745 20.3676 19.6609 20.3473C19.7556 20.0965 19.9408 19.8918 20.1908 19.8023C20.3218 19.7546 20.4503 19.7425 20.5856 19.7674C21.295 19.8926 21.8782 19.5311 22.1489 18.8072C22.2784 18.4648 22.163 18.0794 21.8636 17.8481C21.8506 17.8379 21.803 17.7961 21.7415 17.683C21.6565 17.5234 21.6139 17.3386 21.6139 17.1328V15.9461C21.6139 15.6885 21.6838 15.4988 21.8264 15.3662C22.1101 15.1022 22.6425 15.0779 22.8234 15.0931C22.85 15.0954 22.8773 15.0954 22.904 15.0931C23.0729 15.0809 23.6122 15.0993 23.901 15.3647C24.0457 15.4977 24.1154 15.6879 24.1154 15.9465V17.1333C24.1154 17.3336 24.0708 17.5238 23.9859 17.6834C23.9261 17.7954 23.8795 17.8364 23.8618 17.8504C23.5639 18.0833 23.4498 18.4682 23.5789 18.8087C23.8535 19.5337 24.4397 19.8922 25.1445 19.7685C25.276 19.7451 25.4085 19.7564 25.5409 19.8049C25.8981 19.9329 26.1381 20.2955 26.1381 20.7064L26.1383 23.3584L26.1388 23.3583Z" fill="black"/>
<path d="M12.6407 6.98244L14.0483 8.00525L13.5109 9.66015C13.3872 10.0409 13.5167 10.4393 13.8408 10.6752C14.1648 10.9111 14.5835 10.9104 14.9078 10.6752L16.3153 9.65194L17.7228 10.6747C17.8848 10.7926 18.0707 10.8513 18.2565 10.8513C18.442 10.8513 18.6278 10.7926 18.7898 10.6747C19.1139 10.4395 19.2434 10.0412 19.1197 9.6597L18.5825 8.00525L19.9901 6.982C20.3141 6.74676 20.4432 6.34841 20.3195 5.9674C20.1958 5.5866 19.8571 5.34052 19.4568 5.34052H17.7163L17.1787 3.6854C17.0543 3.30503 16.716 3.05896 16.3153 3.05896C15.9146 3.05896 15.5758 3.30503 15.4521 3.68584L14.9145 5.34096H13.1745C12.7738 5.34096 12.435 5.58703 12.3113 5.96784C12.1877 6.34866 12.3172 6.74699 12.6408 6.98244H12.6407ZM14.9602 6.31137C15.3546 6.31137 15.7016 6.05902 15.8233 5.68448L16.3153 4.17016L16.8078 5.68487C16.93 6.05939 17.277 6.31131 17.6706 6.31131H19.2624L17.9751 7.24684C17.6559 7.47817 17.5229 7.8858 17.6448 8.26188L18.1367 9.77621L16.849 8.84024C16.5297 8.60825 16.1013 8.60825 15.782 8.84024L14.4938 9.77621L14.9857 8.26188C15.1075 7.88736 14.9756 7.47929 14.6563 7.24728L13.3685 6.31131L14.9602 6.31137Z" fill="black"/>
<path d="M6.07466 11.688C5.96073 12.0389 6.08441 12.4202 6.38268 12.637C6.53214 12.7457 6.70673 12.7994 6.88153 12.7994C7.05611 12.7994 7.23092 12.7451 7.38038 12.637L8.55201 11.7857L9.72388 12.6368C10.0213 12.8532 10.4227 12.8542 10.7213 12.6368C11.0198 12.4199 11.1435 12.0385 11.0294 11.6878L10.5821 10.3106L11.7539 9.45916C12.0524 9.24233 12.1761 8.86134 12.0619 8.51022C11.948 8.15931 11.6233 7.92409 11.2546 7.92409H9.80639L9.35909 6.54667C9.24537 6.1962 8.92068 5.96033 8.55199 5.96033C8.18331 5.96033 7.85863 6.19621 7.74467 6.54645L7.29738 7.92387H5.84915C5.48048 7.92387 5.15622 8.15911 5.04183 8.50999C4.92789 8.8609 5.05201 9.24212 5.34984 9.45894L6.52192 10.3106L6.07466 11.688ZM6.22391 8.89488H7.38601C7.75467 8.89488 8.07937 8.659 8.19333 8.30876L8.55203 7.203L8.91117 8.30837C9.02467 8.65928 9.34937 8.89494 9.71849 8.89494H10.8806L9.94074 9.57766C9.64182 9.79449 9.51771 10.1759 9.63207 10.5266L9.99121 11.6313L9.05092 10.9481C8.75243 10.7318 8.35173 10.7322 8.05346 10.9481L7.1136 11.6313L7.47209 10.527C7.58667 10.1757 7.46234 9.79448 7.16407 9.57744L6.22391 8.89488Z" fill="black"/>
<path d="M27.5888 8.51122C27.4753 8.16032 27.1506 7.9251 26.7819 7.9251H25.3337L24.8864 6.54702C24.7722 6.19633 24.4475 5.96045 24.0789 5.96045C23.7102 5.96045 23.3855 6.19569 23.2716 6.54657L22.8243 7.92399H21.376C21.0074 7.92399 20.6827 8.15988 20.5692 8.51012C20.4552 8.86102 20.5793 9.24224 20.8778 9.45906L22.049 10.3105L21.6017 11.6875C21.4878 12.0384 21.6119 12.4196 21.9097 12.6364C22.0592 12.7452 22.2338 12.7989 22.4086 12.7989C22.5832 12.7989 22.7584 12.7445 22.9074 12.6364L24.0789 11.7858L25.2507 12.6369C25.5492 12.8537 25.9499 12.8544 26.2488 12.6369C26.5467 12.4201 26.671 12.0386 26.5569 11.6879L26.1096 10.311L27.2808 9.4595C27.579 9.2429 27.7034 8.8619 27.5888 8.51117L27.5888 8.51122ZM25.4675 9.57756C25.1686 9.79439 25.0445 10.1758 25.1584 10.5265L25.5176 11.6312L24.5773 10.948C24.2788 10.7321 23.8785 10.7317 23.5798 10.948L22.6395 11.6312L22.9987 10.5269C23.1126 10.1756 22.9885 9.79438 22.69 9.57734L21.7501 8.89417H22.9122C23.282 8.89417 23.606 8.65829 23.7191 8.30805L24.0789 7.20268L24.438 8.30738C24.5511 8.65872 24.8752 8.8944 25.2449 8.8944H26.407L25.4675 9.57756Z" fill="black"/>
</svg>
