<svg width="32" height="33" viewBox="0 0 32 33" fill="none" xmlns="http://www.w3.org/2000/svg">
<path d="M25.8715 18.8902C25.5784 18.7834 25.2763 18.7572 24.9743 18.8111C24.8679 18.8299 24.6769 18.864 24.5264 18.5572C24.6457 18.4496 24.7525 18.3084 24.8433 18.1366C25.0014 17.8377 25.0854 17.4902 25.0854 17.1322V15.9454C25.0854 15.4156 24.903 14.9672 24.5575 14.6499C23.9593 14.0997 23.082 14.1099 22.8632 14.1225C22.644 14.1099 21.7687 14.0997 21.1713 14.6495C20.8254 14.9672 20.643 15.4156 20.643 15.9454V17.1322C20.643 17.4926 20.7259 17.8401 20.886 18.1418C20.9802 18.3144 21.0836 18.4513 21.2005 18.5577C21.053 18.8633 20.86 18.8304 20.7545 18.812C20.4528 18.7576 20.1504 18.7838 19.8593 18.8895C19.232 19.1146 18.7825 19.6713 18.6569 20.3311C18.4812 20.2825 18.3376 20.1361 18.2338 19.8827C18.3958 19.7536 18.5405 19.5716 18.6651 19.3396C18.8529 18.9859 18.9519 18.5739 18.9519 18.1489V16.6797C18.9519 16.0567 18.7389 15.5312 18.3352 15.1595C17.6243 14.5054 16.5391 14.5249 16.3149 14.5366C16.0887 14.5245 15.0053 14.5056 14.2945 15.1595C13.8908 15.5312 13.6779 16.0567 13.6779 16.6797V18.1489C13.6779 18.5735 13.7773 18.9855 13.9655 19.3411C14.0883 19.5712 14.2328 19.7531 14.3955 19.8831C14.2722 20.1805 14.1156 20.2955 13.9737 20.3367C13.849 19.6743 13.3993 19.1158 12.7724 18.8908C12.4789 18.7836 12.1761 18.7578 11.8776 18.8118C11.77 18.8306 11.5778 18.8642 11.4288 18.5579C11.5458 18.4515 11.6515 18.3114 11.7461 18.1368C11.9034 17.8394 11.9868 17.4924 11.9868 17.1324V15.9456C11.9868 15.4158 11.8044 14.9674 11.4589 14.6497C10.8617 14.0999 9.98379 14.1092 9.76653 14.1227C9.54862 14.1101 8.67047 14.0999 8.0722 14.6501C7.72671 14.9679 7.54433 15.4162 7.54433 15.9456V17.1324C7.54433 17.49 7.62773 17.8375 7.78693 18.1368C7.87856 18.3101 7.98578 18.4517 8.10318 18.5579C7.95286 18.8635 7.76159 18.8302 7.65827 18.8117C7.35545 18.7574 7.05263 18.7836 6.76106 18.8899C6.01917 19.1564 5.521 19.8855 5.521 20.7051V23.3592C5.521 23.6397 5.61371 24.053 6.05515 24.4324C6.81977 25.0894 8.32823 25.3719 9.76221 25.3719C10.2533 25.3719 10.7322 25.3359 11.1728 25.2733V25.8614C11.1728 27.6155 13.9428 28.2374 16.3155 28.2374C18.6882 28.2374 21.4582 27.6148 21.4582 25.8614V25.2729C21.9016 25.3344 22.3792 25.3703 22.8681 25.3703C24.3087 25.3703 25.8118 25.0874 26.5755 24.4324C27.0165 24.0529 27.1097 23.6396 27.1097 23.3592V20.7051C27.109 19.8848 26.6108 19.1555 25.8713 18.8901L25.8715 18.8902ZM11.143 24.2995C9.41618 24.564 7.37594 24.287 6.68779 23.6954C6.49176 23.5271 6.49176 23.4004 6.49176 23.3586V20.7045C6.49176 20.2936 6.73197 19.931 7.09152 19.8021C7.22343 19.754 7.35362 19.743 7.48834 19.7672C8.19103 19.8905 8.77649 19.532 9.05225 18.8061C9.18026 18.4665 9.06589 18.0818 8.76308 17.8455C8.75051 17.8358 8.70329 17.795 8.64416 17.683C8.55969 17.523 8.51463 17.3328 8.51463 17.1329V15.9461C8.51463 15.689 8.58395 15.4992 8.72712 15.3662C9.01153 15.1022 9.54614 15.0799 9.72614 15.0927C9.75322 15.095 9.78007 15.095 9.80672 15.0927C9.97372 15.0786 10.5137 15.0989 10.8018 15.3638C10.9465 15.4968 11.0167 15.6875 11.0167 15.9461V17.1329C11.0167 17.3376 10.974 17.523 10.8915 17.6787C10.8274 17.7961 10.7799 17.8388 10.7678 17.8481C10.4669 18.0801 10.3519 18.4652 10.481 18.8064C10.7526 19.5327 11.3368 19.8927 12.0477 19.7675C12.1803 19.7436 12.3092 19.7553 12.4426 19.8038C12.69 19.8927 12.875 20.0969 12.9696 20.3477C12.8561 20.3681 12.7426 20.3947 12.6308 20.435C11.7584 20.7504 11.1724 21.6112 11.1724 22.5766V24.2976L11.143 24.2995ZM20.4877 25.8606C20.4877 26.636 18.6162 27.2662 16.3154 27.2662C14.0146 27.2662 12.1431 26.6354 12.1431 25.8606V22.5753C12.1431 22.0174 12.4722 21.5235 12.9613 21.3463C13.0821 21.3032 13.2015 21.2813 13.3236 21.2813C13.3858 21.2813 13.4488 21.2867 13.513 21.2982C14.3276 21.4399 15.003 21.0235 15.3223 20.1794C15.4624 19.8062 15.3359 19.3836 15.0045 19.1249C14.9716 19.0998 14.9036 19.0342 14.823 18.8838C14.7095 18.6694 14.6493 18.4147 14.6493 18.1478V16.6786C14.6493 16.3253 14.7478 16.0624 14.9502 15.8752C15.3344 15.5191 16.038 15.4894 16.2758 15.5055C16.3016 15.5078 16.3291 15.5074 16.3544 15.5055C16.5946 15.4855 17.2967 15.5185 17.6814 15.8748C17.8837 16.0626 17.9822 16.3255 17.9822 16.6782V18.1474C17.9822 18.4147 17.922 18.669 17.81 18.8815C17.7279 19.0333 17.6602 19.0989 17.6246 19.1265C17.2956 19.3821 17.1695 19.8053 17.3097 20.1789C17.5566 20.8344 18.0136 21.2362 18.5974 21.3109C18.7586 21.3337 18.9278 21.3298 19.1186 21.2973C19.3088 21.2633 19.4888 21.2804 19.6703 21.3454C20.1594 21.5225 20.4884 22.016 20.4884 22.5744L20.4882 25.8606L20.4877 25.8606ZM26.1388 23.3583C26.1388 23.4002 26.1388 23.5273 25.9428 23.6956C25.2548 24.2861 23.2139 24.5631 21.4843 24.2993L21.4581 24.2954V22.5757C21.4581 21.6101 20.872 20.7499 19.9991 20.4341C19.8875 20.3939 19.7745 20.3676 19.6609 20.3473C19.7556 20.0965 19.9408 19.8918 20.1908 19.8023C20.3218 19.7546 20.4503 19.7425 20.5856 19.7674C21.295 19.8926 21.8782 19.5311 22.1489 18.8072C22.2784 18.4648 22.163 18.0794 21.8636 17.8481C21.8506 17.8379 21.803 17.7961 21.7415 17.683C21.6565 17.5234 21.6139 17.3386 21.6139 17.1328V15.9461C21.6139 15.6885 21.6838 15.4988 21.8264 15.3662C22.1101 15.1022 22.6425 15.0779 22.8234 15.0931C22.85 15.0954 22.8773 15.0954 22.904 15.0931C23.0729 15.0809 23.6122 15.0993 23.901 15.3647C24.0457 15.4977 24.1154 15.6879 24.1154 15.9465V17.1333C24.1154 17.3336 24.0708 17.5238 23.9859 17.6834C23.9261 17.7954 23.8795 17.8364 23.8618 17.8504C23.5639 18.0833 23.4498 18.4682 23.5789 18.8087C23.8535 19.5337 24.4397 19.8922 25.1445 19.7685C25.276 19.7451 25.4085 19.7564 25.5409 19.8049C25.8981 19.9329 26.1381 20.2955 26.1381 20.7064L26.1383 23.3584L26.1388 23.3583Z" fill="black" stroke="black" stroke-width="0.25"/>
<mask id="path-2-inside-1_485_2661" fill="white">
<path d="M12.6407 6.98244L14.0483 8.00525L13.5109 9.66015C13.3872 10.0409 13.5167 10.4393 13.8408 10.6752C14.1648 10.9111 14.5835 10.9104 14.9078 10.6752L16.3153 9.65194L17.7228 10.6747C17.8848 10.7926 18.0707 10.8513 18.2565 10.8513C18.442 10.8513 18.6278 10.7926 18.7898 10.6747C19.1139 10.4395 19.2434 10.0412 19.1197 9.6597L18.5825 8.00525L19.9901 6.982C20.3141 6.74676 20.4432 6.34841 20.3195 5.9674C20.1958 5.5866 19.8571 5.34052 19.4568 5.34052H17.7163L17.1787 3.6854C17.0543 3.30503 16.716 3.05896 16.3153 3.05896C15.9146 3.05896 15.5758 3.30503 15.4521 3.68584L14.9145 5.34096H13.1745C12.7738 5.34096 12.435 5.58703 12.3113 5.96784C12.1877 6.34866 12.3172 6.74699 12.6408 6.98244H12.6407ZM14.9602 6.31137C15.3546 6.31137 15.7016 6.05902 15.8233 5.68448L16.3153 4.17016L16.8078 5.68487C16.93 6.05939 17.277 6.31131 17.6706 6.31131H19.2624L17.9751 7.24684C17.6559 7.47817 17.5229 7.8858 17.6448 8.26188L18.1367 9.77621L16.849 8.84024C16.5297 8.60825 16.1013 8.60825 15.782 8.84024L14.4938 9.77621L14.9857 8.26188C15.1075 7.88736 14.9756 7.47929 14.6563 7.24728L13.3685 6.31131L14.9602 6.31137Z"/>
</mask>
<path d="M12.6407 6.98244L14.0483 8.00525L13.5109 9.66015C13.3872 10.0409 13.5167 10.4393 13.8408 10.6752C14.1648 10.9111 14.5835 10.9104 14.9078 10.6752L16.3153 9.65194L17.7228 10.6747C17.8848 10.7926 18.0707 10.8513 18.2565 10.8513C18.442 10.8513 18.6278 10.7926 18.7898 10.6747C19.1139 10.4395 19.2434 10.0412 19.1197 9.6597L18.5825 8.00525L19.9901 6.982C20.3141 6.74676 20.4432 6.34841 20.3195 5.9674C20.1958 5.5866 19.8571 5.34052 19.4568 5.34052H17.7163L17.1787 3.6854C17.0543 3.30503 16.716 3.05896 16.3153 3.05896C15.9146 3.05896 15.5758 3.30503 15.4521 3.68584L14.9145 5.34096H13.1745C12.7738 5.34096 12.435 5.58703 12.3113 5.96784C12.1877 6.34866 12.3172 6.74699 12.6408 6.98244H12.6407ZM14.9602 6.31137C15.3546 6.31137 15.7016 6.05902 15.8233 5.68448L16.3153 4.17016L16.8078 5.68487C16.93 6.05939 17.277 6.31131 17.6706 6.31131H19.2624L17.9751 7.24684C17.6559 7.47817 17.5229 7.8858 17.6448 8.26188L18.1367 9.77621L16.849 8.84024C16.5297 8.60825 16.1013 8.60825 15.782 8.84024L14.4938 9.77621L14.9857 8.26188C15.1075 7.88736 14.9756 7.47929 14.6563 7.24728L13.3685 6.31131L14.9602 6.31137Z" fill="black"/>
<path d="M12.6407 6.98244V5.98244H9.56349L12.0529 7.79141L12.6407 6.98244ZM14.0483 8.00525L14.9994 8.31411L15.2237 7.62327L14.6361 7.19628L14.0483 8.00525ZM13.5109 9.66015L14.462 9.96906L14.462 9.96901L13.5109 9.66015ZM14.9078 10.6752L15.495 11.4846L15.4958 11.484L14.9078 10.6752ZM16.3153 9.65194L16.9031 8.84297L16.3152 8.41571L15.7273 8.84309L16.3153 9.65194ZM17.7228 10.6747L18.311 9.86601L18.3107 9.86578L17.7228 10.6747ZM18.7898 10.6747L18.2024 9.86549L18.2017 9.86601L18.7898 10.6747ZM19.1197 9.6597L20.071 9.35126L20.0708 9.35088L19.1197 9.6597ZM18.5825 8.00525L17.9945 7.1964L17.4072 7.6234L17.6314 8.31407L18.5825 8.00525ZM19.9901 6.982L19.4026 6.17275L19.4021 6.17315L19.9901 6.982ZM20.3195 5.9674L21.2707 5.65864L21.2706 5.65848L20.3195 5.9674ZM17.7163 5.34052L16.7652 5.64945L16.9897 6.34052H17.7163V5.34052ZM17.1787 3.6854L18.1298 3.37646L18.1292 3.3747L17.1787 3.6854ZM15.4521 3.68584L16.4032 3.99477L16.4032 3.99468L15.4521 3.68584ZM14.9145 5.34096V6.34096H15.6411L15.8656 5.6499L14.9145 5.34096ZM12.6408 6.98244V7.98244H15.715L13.2291 6.17382L12.6408 6.98244ZM14.9602 6.31137L14.9601 7.31137H14.9602V6.31137ZM15.8233 5.68448L16.7744 5.99356L16.7744 5.99343L15.8233 5.68448ZM16.3153 4.17016L17.2662 3.86091L16.3147 0.934939L15.3642 3.86121L16.3153 4.17016ZM16.8078 5.68487L15.8568 5.99412L15.8571 5.99499L16.8078 5.68487ZM19.2624 6.31131L19.8503 7.12026L22.3395 5.31131H19.2624V6.31131ZM17.9751 7.24684L18.5619 8.05661L18.563 8.05578L17.9751 7.24684ZM17.6448 8.26188L16.6936 8.57034L16.6937 8.57083L17.6448 8.26188ZM18.1367 9.77621L17.5488 10.5851L20.0388 12.3949L19.0878 9.46726L18.1367 9.77621ZM16.849 8.84024L17.4369 8.03133L17.4368 8.03124L16.849 8.84024ZM15.782 8.84024L15.1942 8.03123L15.1942 8.03125L15.782 8.84024ZM14.4938 9.77621L13.5428 9.46726L12.592 12.3942L15.0816 10.5852L14.4938 9.77621ZM14.9857 8.26188L14.0347 7.95276L14.0347 7.95293L14.9857 8.26188ZM14.6563 7.24728L14.0684 8.05619L14.0684 8.05625L14.6563 7.24728ZM13.3685 6.31131L13.3686 5.31131L10.2917 5.3112L12.7806 7.12022L13.3685 6.31131ZM12.0529 7.79141L13.4604 8.81422L14.6361 7.19628L13.2286 6.17347L12.0529 7.79141ZM13.0972 7.69639L12.5598 9.35129L14.462 9.96901L14.9994 8.31411L13.0972 7.69639ZM12.5598 9.35123C12.3021 10.1445 12.5789 10.9935 13.2522 11.4837L14.4293 9.86672C14.4351 9.87094 14.4502 9.88599 14.4589 9.91288C14.4677 9.93981 14.4645 9.96139 14.462 9.96906L12.5598 9.35123ZM13.2522 11.4837C13.9282 11.9758 14.8217 11.9731 15.495 11.4846L14.3205 9.86578C14.3261 9.8617 14.3451 9.85187 14.3738 9.85186C14.4026 9.85185 14.4225 9.8618 14.4293 9.86672L13.2522 11.4837ZM15.4958 11.484L16.9033 10.4608L15.7273 8.84309L14.3197 9.86634L15.4958 11.484ZM15.7274 10.4609L17.135 11.4837L18.3107 9.86578L16.9031 8.84297L15.7274 10.4609ZM17.1347 11.4835C17.4658 11.7243 17.8572 11.8513 18.2565 11.8513V9.85128C18.2692 9.85128 18.2812 9.85333 18.2915 9.8567C18.3019 9.86012 18.3084 9.86413 18.311 9.86601L17.1347 11.4835ZM18.2565 11.8513C18.6557 11.8513 19.047 11.7242 19.378 11.4835L18.2017 9.86601C18.2042 9.86415 18.2107 9.86016 18.2211 9.85676C18.2313 9.8534 18.2434 9.85128 18.2565 9.85128V11.8513ZM19.3773 11.484C20.0524 10.9939 20.3281 10.1441 20.071 9.35126L18.1685 9.96814C18.1663 9.96127 18.1629 9.94003 18.1717 9.91293C18.1805 9.88581 18.1959 9.87021 18.2024 9.86549L19.3773 11.484ZM20.0708 9.35088L19.5337 7.69643L17.6314 8.31407L18.1686 9.96852L20.0708 9.35088ZM19.1706 8.8141L20.5781 7.79085L19.4021 6.17315L17.9945 7.1964L19.1706 8.8141ZM20.5775 7.79125C21.2531 7.30082 21.5278 6.45069 21.2707 5.65864L19.3684 6.27616C19.3661 6.26916 19.3627 6.24786 19.3715 6.22067C19.3804 6.19341 19.3959 6.17761 19.4026 6.17275L20.5775 7.79125ZM21.2706 5.65848C21.0131 4.86552 20.2902 4.34052 19.4568 4.34052V6.34052C19.4488 6.34052 19.4272 6.33699 19.4041 6.32018C19.381 6.30337 19.3709 6.2839 19.3684 6.27632L21.2706 5.65848ZM19.4568 4.34052H17.7163V6.34052H19.4568V4.34052ZM18.6674 5.03158L18.1298 3.37646L16.2276 3.99433L16.7652 5.64945L18.6674 5.03158ZM18.1292 3.3747C17.8707 2.58405 17.1495 2.05896 16.3153 2.05896V4.05896C16.3077 4.05896 16.2862 4.05549 16.2631 4.03875C16.2401 4.02207 16.2304 4.00297 16.2282 3.9961L18.1292 3.3747ZM16.3153 2.05896C15.4817 2.05896 14.7586 2.58365 14.501 3.377L16.4032 3.99468C16.4008 4.00233 16.3907 4.02187 16.3675 4.03872C16.3443 4.05555 16.3228 4.05896 16.3153 4.05896V2.05896ZM14.5011 3.37691L13.9634 5.03203L15.8656 5.6499L16.4032 3.99477L14.5011 3.37691ZM14.9145 4.34096H13.1745V6.34096H14.9145V4.34096ZM13.1745 4.34096C12.3409 4.34096 11.6178 4.86567 11.3602 5.659L13.2624 6.27669C13.26 6.28431 13.2499 6.30386 13.2267 6.32071C13.2035 6.33756 13.182 6.34096 13.1745 6.34096V4.34096ZM11.3602 5.659C11.1028 6.45182 11.379 7.30108 12.0525 7.79107L13.2291 6.17382C13.2355 6.17845 13.2507 6.19383 13.2594 6.22071C13.2682 6.24762 13.2649 6.2691 13.2624 6.27669L11.3602 5.659ZM12.6408 5.98244H12.6407V7.98244H12.6408V5.98244ZM14.9602 7.31137C15.7879 7.31137 16.5188 6.78004 16.7744 5.99356L14.8723 5.37541C14.8845 5.33799 14.9214 5.31137 14.9602 5.31137V7.31137ZM16.7744 5.99343L17.2663 4.47911L15.3642 3.86121L14.8723 5.37554L16.7744 5.99343ZM15.3643 4.4794L15.8568 5.99412L17.7588 5.37563L17.2662 3.86091L15.3643 4.4794ZM15.8571 5.99499C16.1134 6.78057 16.8438 7.31131 17.6706 7.31131V5.31131C17.7102 5.31131 17.7466 5.33821 17.7585 5.37476L15.8571 5.99499ZM17.6706 7.31131H19.2624V5.31131H17.6706V7.31131ZM18.6746 5.50237L17.3873 6.43789L18.563 8.05578L19.8503 7.12026L18.6746 5.50237ZM17.3884 6.43706C16.7177 6.92299 16.438 7.78233 16.6936 8.57034L18.596 7.95342C18.6077 7.98928 18.594 8.03335 18.5619 8.05661L17.3884 6.43706ZM16.6937 8.57083L17.1856 10.0852L19.0878 9.46726L18.5959 7.95293L16.6937 8.57083ZM18.7247 8.9673L17.4369 8.03133L16.261 9.64915L17.5488 10.5851L18.7247 8.9673ZM17.4368 8.03124C16.767 7.54458 15.8639 7.54459 15.1942 8.03123L16.3698 9.64924C16.3386 9.67191 16.2924 9.67192 16.2612 9.64923L17.4368 8.03124ZM15.1942 8.03125L13.906 8.96721L15.0816 10.5852L16.3698 9.64923L15.1942 8.03125ZM15.4449 10.0852L15.9368 8.57083L14.0347 7.95293L13.5428 9.46726L15.4449 10.0852ZM15.9368 8.571C16.1922 7.78519 15.9145 6.92545 15.2441 6.43831L14.0684 8.05625C14.0366 8.03313 14.0228 7.98953 14.0347 7.95276L15.9368 8.571ZM15.2442 6.43837L13.9565 5.5024L12.7806 7.12022L14.0684 8.05619L15.2442 6.43837ZM13.3685 7.31131L14.9601 7.31137L14.9602 5.31137L13.3686 5.31131L13.3685 7.31131Z" fill="black" mask="url(#path-2-inside-1_485_2661)"/>
<mask id="path-4-inside-2_485_2661" fill="white">
<path d="M6.07466 11.688C5.96073 12.0389 6.08441 12.4202 6.38268 12.637C6.53214 12.7457 6.70673 12.7994 6.88153 12.7994C7.05611 12.7994 7.23092 12.7451 7.38038 12.637L8.55201 11.7857L9.72388 12.6368C10.0213 12.8532 10.4227 12.8542 10.7213 12.6368C11.0198 12.4199 11.1435 12.0385 11.0294 11.6878L10.5821 10.3106L11.7539 9.45916C12.0524 9.24233 12.1761 8.86134 12.0619 8.51022C11.948 8.15931 11.6233 7.92409 11.2546 7.92409H9.80639L9.35909 6.54667C9.24537 6.1962 8.92068 5.96033 8.55199 5.96033C8.18331 5.96033 7.85863 6.19621 7.74467 6.54645L7.29738 7.92387H5.84915C5.48048 7.92387 5.15622 8.15911 5.04183 8.50999C4.92789 8.8609 5.05201 9.24212 5.34984 9.45894L6.52192 10.3106L6.07466 11.688ZM6.22391 8.89488H7.38601C7.75467 8.89488 8.07937 8.659 8.19333 8.30876L8.55203 7.203L8.91117 8.30837C9.02467 8.65928 9.34937 8.89494 9.71849 8.89494H10.8806L9.94074 9.57766C9.64182 9.79449 9.51771 10.1759 9.63207 10.5266L9.99121 11.6313L9.05092 10.9481C8.75243 10.7318 8.35173 10.7322 8.05346 10.9481L7.1136 11.6313L7.47209 10.527C7.58667 10.1757 7.46234 9.79448 7.16407 9.57744L6.22391 8.89488Z"/>
</mask>
<path d="M6.07466 11.688C5.96073 12.0389 6.08441 12.4202 6.38268 12.637C6.53214 12.7457 6.70673 12.7994 6.88153 12.7994C7.05611 12.7994 7.23092 12.7451 7.38038 12.637L8.55201 11.7857L9.72388 12.6368C10.0213 12.8532 10.4227 12.8542 10.7213 12.6368C11.0198 12.4199 11.1435 12.0385 11.0294 11.6878L10.5821 10.3106L11.7539 9.45916C12.0524 9.24233 12.1761 8.86134 12.0619 8.51022C11.948 8.15931 11.6233 7.92409 11.2546 7.92409H9.80639L9.35909 6.54667C9.24537 6.1962 8.92068 5.96033 8.55199 5.96033C8.18331 5.96033 7.85863 6.19621 7.74467 6.54645L7.29738 7.92387H5.84915C5.48048 7.92387 5.15622 8.15911 5.04183 8.50999C4.92789 8.8609 5.05201 9.24212 5.34984 9.45894L6.52192 10.3106L6.07466 11.688ZM6.22391 8.89488H7.38601C7.75467 8.89488 8.07937 8.659 8.19333 8.30876L8.55203 7.203L8.91117 8.30837C9.02467 8.65928 9.34937 8.89494 9.71849 8.89494H10.8806L9.94074 9.57766C9.64182 9.79449 9.51771 10.1759 9.63207 10.5266L9.99121 11.6313L9.05092 10.9481C8.75243 10.7318 8.35173 10.7322 8.05346 10.9481L7.1136 11.6313L7.47209 10.527C7.58667 10.1757 7.46234 9.79448 7.16407 9.57744L6.22391 8.89488Z" fill="black"/>
<path d="M6.07466 11.688L5.12355 11.3792L5.12354 11.3792L6.07466 11.688ZM6.38268 12.637L6.97099 11.8283L6.97066 11.8281L6.38268 12.637ZM7.38038 12.637L7.96639 13.4473L7.96818 13.446L7.38038 12.637ZM8.55201 11.7857L9.13965 10.9766L8.55188 10.5497L7.96421 10.9767L8.55201 11.7857ZM9.72388 12.6368L10.3122 11.8281L10.3115 11.8276L9.72388 12.6368ZM10.7213 12.6368L10.1336 11.8277L10.1327 11.8284L10.7213 12.6368ZM11.0294 11.6878L10.0783 11.9967L10.0785 11.9974L11.0294 11.6878ZM10.5821 10.3106L9.99425 9.50162L9.40657 9.92862L9.63097 10.6195L10.5821 10.3106ZM11.7539 9.45916L11.1662 8.6501L11.1661 8.65016L11.7539 9.45916ZM12.0619 8.51022L11.1108 8.81904L11.1109 8.8194L12.0619 8.51022ZM9.80639 7.92409L8.85528 8.23295L9.07972 8.92409H9.80639V7.92409ZM9.35909 6.54667L8.40791 6.85531L8.40798 6.85553L9.35909 6.54667ZM7.74467 6.54645L6.79374 6.23706L6.79356 6.23759L7.74467 6.54645ZM7.29738 7.92387V8.92387H8.02405L8.24849 8.23273L7.29738 7.92387ZM5.04183 8.50999L4.09108 8.20003L4.09071 8.20117L5.04183 8.50999ZM5.34984 9.45894L4.7613 10.2674L4.76201 10.2679L5.34984 9.45894ZM6.52192 10.3106L7.47304 10.6195L7.69736 9.92862L7.10976 9.50164L6.52192 10.3106ZM6.22391 8.89488V7.89488H3.14434L5.63641 9.70411L6.22391 8.89488ZM8.19333 8.30876L9.14426 8.61816L9.14453 8.61733L8.19333 8.30876ZM8.55203 7.203L9.50309 6.894L8.55129 3.96449L7.60083 6.89443L8.55203 7.203ZM8.91117 8.30837L9.86263 8.00061L9.86223 7.99937L8.91117 8.30837ZM10.8806 8.89494L11.4683 9.70401L13.9587 7.89494H10.8806V8.89494ZM9.94074 9.57766L10.5279 10.3871L10.5285 10.3867L9.94074 9.57766ZM9.63207 10.5266L10.5831 10.2174L10.5828 10.2165L9.63207 10.5266ZM9.99121 11.6313L9.40343 12.4403L11.894 14.2498L10.9422 11.3221L9.99121 11.6313ZM9.05092 10.9481L9.63871 10.1391L9.63786 10.1385L9.05092 10.9481ZM8.05346 10.9481L7.46701 10.1382L7.46549 10.1393L8.05346 10.9481ZM7.11361 11.6313L6.16247 11.3225L5.21222 14.2497L7.70157 12.4402L7.11361 11.6313ZM7.47209 10.527L6.52137 10.217L6.52095 10.2183L7.47209 10.527ZM7.16407 9.57744L7.75245 8.76885L7.75157 8.76821L7.16407 9.57744ZM5.12354 11.3792C4.87603 12.1415 5.14571 12.9741 5.7947 13.4459L6.97066 11.8281C7.02311 11.8662 7.04542 11.9364 7.02578 11.9969L5.12354 11.3792ZM5.79437 13.4456C6.11913 13.6819 6.50078 13.7994 6.88153 13.7994V11.7994C6.91268 11.7994 6.94514 11.8095 6.97099 11.8283L5.79437 13.4456ZM6.88153 13.7994C7.2642 13.7994 7.64453 13.6801 7.96639 13.4473L6.79437 11.8267C6.81731 11.8101 6.84803 11.7994 6.88153 11.7994V13.7994ZM7.96818 13.446L9.13982 12.5947L7.96421 10.9767L6.79257 11.828L7.96818 13.446ZM7.96438 12.5948L9.13624 13.4459L10.3115 11.8276L9.13965 10.9766L7.96438 12.5948ZM9.13553 13.4454C9.78249 13.9161 10.6593 13.919 11.31 13.4452L10.1327 11.8284C10.1861 11.7895 10.2601 11.7902 10.3122 11.8281L9.13553 13.4454ZM11.3091 13.4458C11.9584 12.9741 12.2285 12.1409 11.9802 11.3783L10.0785 11.9974C10.0585 11.9361 10.0812 11.8658 10.1336 11.8277L11.3091 13.4458ZM11.9805 11.3789L11.5332 10.0017L9.63097 10.6195L10.0783 11.9967L11.9805 11.3789ZM11.1699 11.1196L12.3417 10.2682L11.1661 8.65016L9.99425 9.50162L11.1699 11.1196ZM12.3416 10.2682C12.991 9.79649 13.2609 8.96387 13.0129 8.20103L11.1109 8.8194C11.0912 8.7588 11.1138 8.68817 11.1662 8.6501L12.3416 10.2682ZM13.0131 8.20139C12.7649 7.4372 12.0554 6.92409 11.2546 6.92409V8.92409C11.1912 8.92409 11.1311 8.88143 11.1108 8.81904L13.0131 8.20139ZM11.2546 6.92409H9.80639V8.92409H11.2546V6.92409ZM10.7575 7.61524L10.3102 6.23782L8.40798 6.85553L8.85528 8.23295L10.7575 7.61524ZM10.3103 6.23804C10.0627 5.47497 9.35365 4.96033 8.55199 4.96033V6.96033C8.48771 6.96033 8.42807 6.91743 8.40791 6.85531L10.3103 6.23804ZM8.55199 4.96033C7.75032 4.96033 7.04171 5.4749 6.79374 6.23706L8.69561 6.85585C8.67554 6.91752 8.6163 6.96033 8.55199 6.96033V4.96033ZM6.79356 6.23759L6.34627 7.61501L8.24849 8.23273L8.69578 6.85531L6.79356 6.23759ZM7.29738 6.92387H5.84915V8.92387H7.29738V6.92387ZM5.84915 6.92387C5.04754 6.92387 4.33962 7.43768 4.09108 8.20003L5.99257 8.81996C5.97282 8.88054 5.91342 8.92387 5.84915 8.92387V6.92387ZM4.09071 8.20117C3.84295 8.96423 4.11398 9.79618 4.7613 10.2674L5.93838 8.65047C5.99003 8.68807 6.01283 8.75757 5.99295 8.81882L4.09071 8.20117ZM4.76201 10.2679L5.93409 11.1196L7.10976 9.50164L5.93768 8.64996L4.76201 10.2679ZM5.57081 10.0018L5.12355 11.3792L7.02578 11.9969L7.47304 10.6195L5.57081 10.0018ZM6.22391 9.89488H7.38601V7.89488H6.22391V9.89488ZM7.38601 9.89488C8.18764 9.89488 8.89628 9.38032 9.14426 8.61816L7.24239 7.99937C7.26247 7.93767 7.3217 7.89488 7.38601 7.89488V9.89488ZM9.14453 8.61733L9.50323 7.51157L7.60083 6.89443L7.24212 8.00019L9.14453 8.61733ZM7.60097 7.512L7.96011 8.61737L9.86223 7.99937L9.50309 6.894L7.60097 7.512ZM7.95971 8.61613C8.20709 9.38094 8.91695 9.89494 9.71849 9.89494V7.89494C9.78178 7.89494 9.84226 7.93762 9.86263 8.00061L7.95971 8.61613ZM9.71849 9.89494H10.8806V7.89494H9.71849V9.89494ZM10.2929 8.08587L9.35302 8.76859L10.5285 10.3867L11.4683 9.70401L10.2929 8.08587ZM9.35357 8.76819C8.70411 9.2393 8.43218 10.0727 8.68136 10.8367L10.5828 10.2165C10.6032 10.2792 10.5795 10.3497 10.5279 10.3871L9.35357 8.76819ZM8.68107 10.8358L9.04021 11.9405L10.9422 11.3221L10.5831 10.2174L8.68107 10.8358ZM10.579 10.8223L9.6387 10.1391L8.46313 11.7572L9.40343 12.4403L10.579 10.8223ZM9.63786 10.1385C8.98861 9.66784 8.11456 9.66932 7.46701 10.1382L8.6399 11.7581C8.58889 11.7951 8.51626 11.7957 8.46397 11.7578L9.63786 10.1385ZM7.46549 10.1393L6.52564 10.8224L7.70157 12.4402L8.64142 11.757L7.46549 10.1393ZM8.06474 11.9401L8.42322 10.8358L6.52095 10.2183L6.16247 11.3225L8.06474 11.9401ZM8.4228 10.8371C8.67221 10.0724 8.39997 9.24002 7.75245 8.76885L6.5757 10.386C6.52471 10.3489 6.50114 10.279 6.52137 10.217L8.4228 10.8371ZM7.75157 8.76821L6.8114 8.08566L5.63641 9.70411L6.57658 10.3867L7.75157 8.76821Z" fill="black" mask="url(#path-4-inside-2_485_2661)"/>
<path d="M22.6308 12.2555L22.4086 12.417L22.0158 12.7024C22.139 12.7669 22.2737 12.7989 22.4086 12.7989C22.5832 12.7989 22.7584 12.7445 22.9074 12.6364L24.0789 11.7858L25.2507 12.6369C25.515 12.8288 25.8593 12.8514 26.1423 12.7031L25.5272 12.2563L25.5272 12.2562L25.2237 12.0357L24.3555 11.4049L24.2842 11.3531C24.2841 11.3531 24.284 11.353 24.2838 11.3529L22.6308 12.2555ZM22.6308 12.2555L22.9073 12.6362L22.6311 12.2554L22.6308 12.2555ZM21.6017 11.6875L22.049 10.3105L20.8778 9.45906C20.6137 9.26718 20.4861 8.94653 20.5392 8.63209L21.1539 9.07894L21.1541 9.07905L21.4562 9.29862L22.3254 9.93042L22.3959 9.98173C22.396 9.98175 22.396 9.98177 22.396 9.98178C22.5194 10.0716 22.5701 10.2273 22.5231 10.3725C22.5231 10.3726 22.5231 10.3727 22.523 10.3727L22.496 10.4557L22.164 11.4766L22.0483 11.8325L21.6017 11.6875ZM21.6017 11.6875C21.501 11.9978 21.5864 12.3317 21.8134 12.5548L22.0483 11.8325L21.6017 11.6875ZM23.2716 6.54657L23.7193 6.69198L23.6035 7.04792L23.2711 8.06909L23.2437 8.1533L23.2433 8.15444C23.1971 8.29762 23.0656 8.39417 22.9122 8.39417H22.8243H21.7501H21.376H20.6164C20.7578 8.10882 21.0497 7.92399 21.376 7.92399H22.8243L23.2716 6.54657ZM23.2716 6.54657L23.7193 6.69197L23.9545 5.96949C23.6388 6.01572 23.3725 6.23578 23.2716 6.54657ZM23.7471 6.70101L23.6315 7.05705L23.2998 8.07842L23.2725 8.16267L23.2721 8.16375L23.1876 8.42399H22.9122H22.8243H21.7501H21.376C21.2238 8.42399 21.0914 8.52058 21.0448 8.66427L21.0447 8.66453C20.9977 8.80923 21.0483 8.96488 21.1717 9.05452L21.1718 9.05464L21.4739 9.27422L22.343 9.9061L22.4136 9.95742L22.6898 9.57758L22.4137 9.95746L22.6367 10.1196L22.5517 10.3816L22.9984 10.5269L22.5515 10.3819L22.5246 10.465L22.1929 11.486L22.0773 11.8419C22.0773 11.8419 22.0773 11.8419 22.0773 11.842C22.0303 11.9868 22.0809 12.1426 22.204 12.2322C22.2658 12.2771 22.3368 12.2989 22.4086 12.2989C22.4794 12.2989 22.5515 12.2769 22.6137 12.2319L23.7471 6.70101ZM23.7471 6.70101C23.7471 6.70101 23.7471 6.70101 23.7471 6.701C23.794 6.55673 23.9263 6.46045 24.0789 6.46045C24.2308 6.46045 24.3637 6.55682 24.4109 6.70178L23.7471 6.70101ZM26.3441 12.5564C26.572 12.3332 26.658 11.9985 26.5569 11.6879L26.1096 10.311L27.2808 9.4595C27.5452 9.2675 27.6729 8.94631 27.6187 8.63154L27.0041 9.07847L27.0039 9.07861L26.7011 9.29878L25.8328 9.9302L25.7616 9.98195L25.7611 9.98229C25.6375 10.072 25.5871 10.2276 25.6339 10.3719C25.6339 10.3719 25.6339 10.372 25.634 10.372L26.3441 12.5564Z" fill="black" stroke="black"/>
</svg>
