<svg width="42" height="33" viewBox="0 0 42 33" fill="none" xmlns="http://www.w3.org/2000/svg">
<g clip-path="url(#clip0_485_1876)">
<path d="M27.887 14.7099L34.3772 19.8978C36.0696 19.6462 37.7599 18.7175 39.0051 17.1598C39.0052 17.1598 39.0052 17.1598 39.0052 17.1598L27.887 14.7099ZM27.887 14.7099C27.7597 13.0034 28.2932 11.1499 29.5383 9.59213C31.9766 6.54176 36.0385 5.93496 38.5895 7.9741L27.887 14.7099Z" fill="#D94746" stroke="black" stroke-width="1.5"/>
<path d="M33.606 20.1405C33.606 20.1405 31.5516 19.0299 29.9978 20.3027C28.444 21.5754 26.4736 24.9632 26.4736 24.9632C26.4736 24.9632 26.0195 24.902 25.2422 24.2805C24.4648 23.6591 24.3051 23.2297 24.3051 23.2297C24.3051 23.2297 27.1755 20.5616 28.0747 18.7655C28.9739 16.9695 27.4382 15.2102 27.4382 15.2102C27.4376 15.2076 27.4372 15.2048 27.4366 15.202L33.6144 20.1402C33.6113 20.1401 33.6084 20.1402 33.6057 20.1403L33.606 20.1405Z" fill="black"/>
<path d="M22.5234 16.9576C22.5872 16.9601 22.6498 16.9506 22.7135 16.9501L23.0394 17.0948C23.0948 17.1425 23.2459 17.2153 23.3221 17.2954C23.4671 17.4478 23.4743 17.6631 23.4672 17.8607C23.4498 18.3447 23.1042 18.7917 22.8409 19.1787L22.8315 19.1925C22.6663 19.4353 22.5193 19.6514 22.396 19.9206C22.2576 20.2227 22.1428 20.5374 21.9798 20.828C21.7532 21.2318 21.4753 21.6216 21.2906 22.0466C21.2174 22.2152 21.1373 22.3797 21.056 22.5442C20.9876 22.6826 20.9205 22.6884 20.8133 22.7882C20.5895 22.9964 20.3206 23.0357 20.0221 22.9677C19.3877 22.8233 18.8704 22.5057 18.3404 22.1441C17.803 21.7775 17.2391 21.4701 16.6925 21.1206C16.2782 20.8557 15.9886 20.4219 15.5777 20.1384C15.0832 19.7971 14.5542 19.5053 14.0567 19.1662C13.4986 18.7857 13.1412 18.2031 12.6292 17.7813C12.3972 17.5902 12.0865 17.456 11.8303 17.2975C11.4713 17.0753 11.097 16.8807 10.741 16.6541C10.1601 16.2844 9.56748 15.9298 8.99245 15.5515C8.41618 15.1725 7.8876 14.624 7.40614 14.1244L7.38432 14.1018C6.99874 13.7017 6.63562 13.2801 6.24526 12.8847C5.93291 12.5682 5.715 12.1918 5.4399 11.8441C5.16707 11.4993 4.84063 11.2125 4.5085 10.9266C4.14994 10.6179 3.81475 10.2878 3.45844 9.97735C2.94185 9.5272 2.49454 9.01657 2.05207 8.49491C1.75545 8.1452 1.46016 7.7742 1.28459 7.34604C1.13071 6.97078 1.45805 6.43711 1.68881 6.16905C1.76743 6.07771 2.00422 6.08325 2.11183 6.07521C2.32562 6.05922 2.55681 6.06205 2.76834 6.10184C2.89433 6.12554 2.99181 6.23083 3.10035 6.29203C3.23417 6.36747 3.37484 6.43193 3.51218 6.50059C3.97132 6.73012 4.44642 6.91189 4.93082 7.08012C5.8169 7.38785 6.52551 8.08044 7.40619 8.39067C7.76635 8.51754 8.12918 8.63809 8.49016 8.76263C8.8431 8.88439 9.1715 9.05802 9.52023 9.19136C10.1361 9.42685 10.7693 9.60703 11.386 9.83618C11.7778 9.98177 12.1576 10.1705 12.5529 10.3047C12.8785 10.4152 13.2074 10.4871 13.5315 10.6061C14.1024 10.8158 14.8303 10.7783 15.4272 10.7835C15.7512 10.7863 16.0755 10.7563 16.3948 10.703C16.6332 10.6633 16.8813 10.653 17.1224 10.6675C17.2335 10.6742 18.7327 10.612 18.8237 10.6961C19.1326 10.9811 17.7346 11.371 17.5883 11.6523C17.5105 11.8019 17.4425 11.958 17.385 12.1165C17.3051 12.3365 17.3426 12.5331 17.3234 12.7581C17.2959 13.0801 17.4244 13.4471 17.4838 13.7644C17.5693 14.2201 17.7755 14.6812 17.9731 15.099C18.5092 16.2324 19.5008 17.6893 20.9437 17.3719C21.3019 17.2931 21.5796 17.0534 21.936 17.0056C22.1263 16.98 22.3315 16.95 22.5234 16.9576Z" fill="#55779B"/>
<path d="M4.12543 5.79475C9.79534 8.88978 8.59737 8.37948 10.2725 8.85409C10.2915 8.57271 10.555 8.35311 10.8791 8.40881C11.1605 8.4278 11.4227 8.72804 11.4038 9.00928L11.3362 9.17433C11.7031 9.26686 11.9902 9.36535 12.357 9.45788L12.3511 9.37826C12.3701 9.09688 12.6703 8.83463 12.9516 8.8535C13.2329 8.87249 13.4952 9.17273 13.4763 9.45397L13.4514 9.65573C13.8182 9.74826 14.1422 9.80396 14.4664 9.85978C14.5161 9.45614 14.7797 9.23654 15.061 9.25553C15.3851 9.31122 15.5989 9.49527 15.5977 10.0152C15.9217 10.0709 16.4477 10.1517 16.7599 10.0483C17.5006 9.793 18.5226 9.55658 19.1151 9.99213C19.7502 10.4644 19.6803 11.6694 18.8413 12.212L18.3451 12.529C18.8497 13.9309 20.2131 17.1879 21.6576 16.72C21.8592 16.7448 21.9755 16.6962 22.092 16.6474C22.8327 16.3922 23.3406 16.2342 24.4282 16.8727C24.8863 17.1184 25.0135 17.7486 24.7619 18.1274C24.0866 19.2574 21.9932 22.8128 21.3427 23.7415C20.9655 25.6491 19.502 26.3984 18.4145 25.7599C11.8593 22.0515 4.55191 15.2403 2.283 12.171C2.01468 11.7912 -0.155766 8.43446 1.10217 6.54107C1.7467 5.53303 2.91578 5.1254 4.12543 5.79475ZM17.3408 13.0039C17.1828 12.4959 17.3429 11.9641 17.7595 11.653C17.9862 11.4761 18.4146 11.324 18.4336 11.0426L18.4277 10.963C18.3054 10.9322 17.8651 10.9251 17.1671 11.2173C16.6592 11.3752 16.2555 11.3255 15.5705 11.2567L15.5137 12.1007C15.4947 12.3821 15.1944 12.6443 14.9132 12.6255C14.6318 12.6065 14.3696 12.3062 14.3884 12.025L14.476 11.0588C14.152 11.0031 13.7852 10.9105 13.461 10.8547L13.3188 11.6252C13.2998 11.9065 12.9995 12.1688 12.7183 12.1499C12.4369 12.1309 12.1747 11.8307 12.1935 11.5494L12.2811 10.5832C11.9143 10.4907 11.5475 10.3981 11.2603 10.2996L11.1607 11.1068C11.1417 11.3882 10.8415 11.6504 10.5602 11.6316C10.2788 11.6126 10.0166 11.3123 10.0355 11.0311L10.1173 9.98533C7.98994 9.34471 9.23048 9.89166 3.51801 6.75999C2.85198 6.40987 2.42947 6.64136 2.16608 6.86109C3.58389 10.3139 8.85393 14.4786 13.1348 17.7173L14.0389 15.3704C14.1065 15.2053 14.2169 15.0771 14.4128 15.0225L17.62 14.0629C17.5533 13.7078 17.444 13.316 17.3408 13.0039ZM23.6919 17.7273C23.191 17.4448 22.9583 17.5422 22.493 17.7369C21.8319 17.9862 20.0622 18.9183 18.18 15.1402L15.0522 16.0939L14.1112 18.4836C16.1448 20.011 14.9659 19.2194 20.5918 22.7974C21.2057 21.9118 22.5195 19.6945 23.6919 17.7273ZM3.23248 11.4998C5.37317 14.4588 12.589 21.1169 18.9793 24.7576C19.523 25.0769 19.9894 24.3622 20.1864 23.7876C14.939 20.4611 5.16045 13.7547 1.9845 8.71388C2.18409 9.77862 2.83606 11.0096 3.23248 11.4998Z" fill="black" stroke="black" stroke-width="0.5"/>
<circle cx="23.6922" cy="9.98201" r="2.30769" stroke="black" stroke-width="1.5"/>
</g>
<defs>
<clipPath id="clip0_485_1876">
<rect width="42" height="32" fill="white" transform="matrix(-1 0 0 1 42 0.05896)"/>
</clipPath>
</defs>
</svg>
