<svg width="42" height="33" viewBox="0 0 42 33" fill="none" xmlns="http://www.w3.org/2000/svg">
<g clip-path="url(#clip0_485_145)">
<path d="M27.7666 14.7737L34.3414 20.0293C36.0839 19.7848 37.8251 18.8362 39.1028 17.2378C39.1028 17.2378 39.1028 17.2378 39.1028 17.2378L27.7666 14.7737ZM27.7666 14.7737C27.6214 13.02 28.1631 11.1125 29.4406 9.51409C31.9131 6.42097 36.0521 5.7858 38.6675 7.87646L27.7666 14.7737Z" stroke="black" stroke-width="1.25"/>
<path d="M33.606 20.1405C33.606 20.1405 31.5516 19.0299 29.9978 20.3027C28.444 21.5754 26.4736 24.9632 26.4736 24.9632C26.4736 24.9632 26.0195 24.902 25.2422 24.2805C24.4648 23.6591 24.3051 23.2297 24.3051 23.2297C24.3051 23.2297 27.1755 20.5616 28.0747 18.7655C28.9739 16.9695 27.4382 15.2102 27.4382 15.2102C27.4376 15.2076 27.4372 15.2048 27.4366 15.202L33.6144 20.1402C33.6113 20.1401 33.6084 20.1402 33.6057 20.1403L33.606 20.1405Z" fill="black"/>
<path d="M4.12543 5.79475C9.79534 8.88978 8.59737 8.37948 10.2725 8.85409C10.2915 8.57271 10.555 8.35311 10.8791 8.40881C11.1605 8.4278 11.4227 8.72804 11.4038 9.00928L11.3362 9.17433C11.7031 9.26686 11.9902 9.36535 12.357 9.45788L12.3511 9.37826C12.3701 9.09688 12.6703 8.83463 12.9516 8.8535C13.2329 8.87249 13.4952 9.17273 13.4763 9.45397L13.4514 9.65573C13.8182 9.74826 14.1422 9.80396 14.4664 9.85978C14.5161 9.45614 14.7797 9.23654 15.061 9.25553C15.3851 9.31122 15.5989 9.49527 15.5977 10.0152C15.9217 10.0709 16.4477 10.1517 16.7599 10.0483C17.5006 9.793 18.5226 9.55658 19.1151 9.99213C19.7502 10.4644 19.6803 11.6694 18.8413 12.212L18.3451 12.529C18.8497 13.9309 20.2131 17.1879 21.6576 16.72C21.8592 16.7448 21.9755 16.6962 22.092 16.6474C22.8327 16.3922 23.3406 16.2342 24.4282 16.8727C24.8863 17.1184 25.0135 17.7486 24.7619 18.1274C24.0866 19.2574 21.9932 22.8128 21.3427 23.7415C20.9655 25.6491 19.502 26.3984 18.4145 25.7599C11.8593 22.0515 4.55191 15.2403 2.283 12.171C2.01468 11.7912 -0.155766 8.43446 1.10217 6.54107C1.7467 5.53303 2.91578 5.1254 4.12543 5.79475ZM17.3408 13.0039C17.1828 12.4959 17.3429 11.9641 17.7595 11.653C17.9862 11.4761 18.4146 11.324 18.4336 11.0426L18.4277 10.963C18.3054 10.9322 17.8651 10.9251 17.1671 11.2173C16.6592 11.3752 16.2555 11.3255 15.5705 11.2567L15.5137 12.1007C15.4947 12.3821 15.1944 12.6443 14.9132 12.6255C14.6318 12.6065 14.3696 12.3062 14.3884 12.025L14.476 11.0588C14.152 11.0031 13.7852 10.9105 13.461 10.8547L13.3188 11.6252C13.2998 11.9065 12.9995 12.1688 12.7183 12.1499C12.4369 12.1309 12.1747 11.8307 12.1935 11.5494L12.2811 10.5832C11.9143 10.4907 11.5475 10.3981 11.2603 10.2996L11.1607 11.1068C11.1417 11.3882 10.8415 11.6504 10.5602 11.6316C10.2788 11.6126 10.0166 11.3123 10.0355 11.0311L10.1173 9.98533C7.98994 9.34471 9.23048 9.89166 3.51801 6.75999C2.85198 6.40987 2.42947 6.64136 2.16608 6.86109C3.58389 10.3139 8.85393 14.4786 13.1348 17.7173L14.0389 15.3704C14.1065 15.2053 14.2169 15.0771 14.4128 15.0225L17.62 14.0629C17.5533 13.7078 17.444 13.316 17.3408 13.0039ZM23.6919 17.7273C23.191 17.4448 22.9583 17.5422 22.493 17.7369C21.8319 17.9862 20.0622 18.9183 18.18 15.1402L15.0522 16.0939L14.1112 18.4836C16.1448 20.011 14.9659 19.2194 20.5918 22.7974C21.2057 21.9118 22.5195 19.6945 23.6919 17.7273ZM3.23248 11.4998C5.37317 14.4588 12.589 21.1169 18.9793 24.7576C19.523 25.0769 19.9894 24.3622 20.1864 23.7876C14.939 20.4611 5.16045 13.7547 1.9845 8.71388C2.18409 9.77862 2.83606 11.0096 3.23248 11.4998Z" fill="black"/>
<circle cx="23.6922" cy="9.98201" r="2.30769" stroke="black" stroke-width="1.25"/>
</g>
<defs>
<clipPath id="clip0_485_145">
<rect width="42" height="32" fill="white" transform="matrix(-1 0 0 1 42 0.05896)"/>
</clipPath>
</defs>
</svg>
