<svg width="28" height="24" viewBox="0 0 28 24" fill="none" xmlns="http://www.w3.org/2000/svg">
<g style="mix-blend-mode:multiply">
<path d="M22.7134 2.05896H5.71338C5.71338 6.72563 7.36743 16.059 13.9836 16.059C20.5999 16.059 22.5602 6.72563 22.7134 2.05896Z" fill="#FFB710"/>
</g>
<g style="mix-blend-mode:multiply">
<path d="M10.7134 19.059L11.7134 16.059H15.2134L16.2134 19.059L19.2134 22.059L15.7134 23.559H10.2134L7.71338 22.059L10.7134 19.059Z" fill="#FFB710"/>
</g>
<path d="M17.4402 12.3252C17.631 12.3255 17.8113 12.2396 17.9292 12.0924C18.4734 11.3984 18.9283 10.641 19.2836 9.83766C19.3563 9.6894 19.3646 9.51855 19.3067 9.36403C19.2487 9.2095 19.1297 9.08464 18.9763 9.01771C18.8232 8.95052 18.6487 8.94725 18.4928 9.00819C18.3372 9.0694 18.213 9.18965 18.1492 9.34172C17.8349 10.0529 17.433 10.7235 16.9523 11.3388C16.8056 11.5219 16.7781 11.7714 16.8819 11.9814C16.9856 12.1911 17.2025 12.3244 17.4402 12.3247L17.4402 12.3252Z" fill="black" stroke="black" stroke-width="0.3"/>
<path d="M16.1742 13.2466C16.1742 13.5832 15.896 13.856 15.5528 13.856C15.2097 13.856 14.9315 13.5832 14.9315 13.2466C14.9315 12.9101 15.2097 12.6373 15.5528 12.6373C15.896 12.6373 16.1742 12.9101 16.1742 13.2466Z" fill="black" stroke="black" stroke-width="0.3"/>
<path d="M1.47468 4.07053C1.12435 4.43589 0.942386 4.92638 0.971237 5.42698C1.12296 8.37158 2.4003 15.1827 9.60737 15.0977C10.1189 15.509 10.6828 15.8529 11.285 16.1208C10.9984 18.6704 10.0958 19.6789 9.79377 19.9496C9.12806 19.9246 8.49899 20.2497 8.14366 20.8028C7.78861 21.3558 7.76115 22.0528 8.0721 22.6309C8.38276 23.209 8.98442 23.5809 9.65042 23.6059H18.349C19.015 23.5809 19.6167 23.2093 19.9276 22.6312C20.2385 22.0531 20.2111 21.3561 19.856 20.803C19.501 20.25 18.8722 19.9246 18.2062 19.9496C17.9025 19.6789 16.9996 18.6699 16.715 16.1208C17.3172 15.8529 17.8811 15.509 18.3926 15.0977C25.6 15.1823 26.8789 8.37137 27.0287 5.42698C27.0573 4.92479 26.8737 4.43296 26.5211 4.06754C26.1683 3.70245 25.6776 3.4957 25.1647 3.49651H23.2771C23.2891 3.32159 23.3082 3.15156 23.3162 2.97419C23.339 2.47498 23.1529 1.98803 22.8009 1.62644C22.4489 1.2649 21.9618 1.06005 21.4523 1.05896H6.54815C6.03861 1.06005 5.55125 1.2649 5.19955 1.62644C4.84755 1.98799 4.66143 2.47498 4.68418 2.97419C4.69222 3.15156 4.71164 3.32159 4.72329 3.49651H2.83182C2.31811 3.49733 1.82718 3.70463 1.47377 4.07053H1.47468ZM18.3493 21.1687C18.6924 21.1687 18.9706 21.4416 18.9706 21.7781C18.9706 22.1146 18.6924 22.3875 18.3493 22.3875H9.65067C9.30756 22.3875 9.02934 22.1146 9.02934 21.7781C9.02934 21.4416 9.30756 21.1687 9.65067 21.1687H18.3493ZM11.3785 19.95C11.9981 18.8936 12.3793 17.7195 12.4969 16.5064C13.4855 16.7526 14.5209 16.7526 15.5092 16.5064C15.6249 17.7189 16.0041 18.8931 16.6215 19.95H11.3785ZM23.1724 4.71543H25.1676C25.3396 4.71461 25.5041 4.78399 25.6217 4.90749C25.7387 5.02747 25.7992 5.19015 25.7889 5.35582C25.6131 8.31185 24.5358 13.0542 19.739 13.7736C21.5115 11.6623 22.74 8.51228 23.1724 4.7151L23.1724 4.71543ZM6.09752 2.46803C6.21512 2.34643 6.3785 2.2776 6.54937 2.27787H21.4514C21.6222 2.2776 21.7859 2.34615 21.9043 2.46722C22.0225 2.58828 22.0852 2.7515 22.0777 2.91881C21.4993 9.44358 19.7738 14.8369 14.0004 15.4721C8.22897 14.8371 6.50323 9.44358 5.92309 2.91881C5.9156 2.75151 5.97884 2.58828 6.09756 2.46803H6.09752ZM4.82823 4.71543C5.26316 8.5124 6.4892 11.6624 8.26166 13.774C3.46492 13.0544 2.38757 8.3121 2.21175 5.35615V5.35588C2.20149 5.1902 2.26196 5.02752 2.37901 4.90755C2.49662 4.78404 2.66111 4.71467 2.83308 4.71549L4.82823 4.71543Z" fill="black" stroke="black" stroke-width="0.3"/>
</svg>
