<svg width="28" height="23" viewBox="0 0 28 23" fill="none" xmlns="http://www.w3.org/2000/svg">
<path d="M17.4402 11.3252C17.631 11.3255 17.8113 11.2396 17.9292 11.0924C18.4734 10.3984 18.9283 9.641 19.2836 8.83766C19.3563 8.6894 19.3646 8.51855 19.3067 8.36403C19.2487 8.2095 19.1297 8.08464 18.9763 8.01771C18.8232 7.95052 18.6487 7.94725 18.4928 8.00819C18.3372 8.0694 18.213 8.18965 18.1492 8.34172C17.8349 9.05285 17.433 9.72345 16.9523 10.3388C16.8056 10.5219 16.7781 10.7714 16.8819 10.9814C16.9856 11.1911 17.2025 11.3244 17.4402 11.3247L17.4402 11.3252Z" fill="black" stroke="black" stroke-width="0.3"/>
<path d="M16.1742 12.2466C16.1742 12.5832 15.896 12.856 15.5528 12.856C15.2097 12.856 14.9315 12.5832 14.9315 12.2466C14.9315 11.9101 15.2097 11.6373 15.5528 11.6373C15.896 11.6373 16.1742 11.9101 16.1742 12.2466Z" fill="black" stroke="black" stroke-width="0.3"/>
<path d="M23.2771 2.49651H23.4275C23.4272 2.49992 23.427 2.50333 23.4268 2.50672L23.2771 2.49651ZM23.2771 2.49651C23.2806 2.44621 23.2846 2.3963 23.2888 2.34651H23.2771V2.49651ZM22.9861 3.86543L23.0258 3.68341L23.0259 3.68309L23.1724 3.70736V3.56543H25.1673H25.1676V3.71543C25.3396 3.71461 25.5041 3.78399 25.6217 3.90749L22.9861 3.86543ZM22.9861 3.86543H23.0038C22.557 7.56728 21.3466 10.6254 19.6241 12.6772L19.3693 12.9808L19.7613 12.922C22.2144 12.5541 23.7196 11.1535 24.6287 9.47489C25.5344 7.80251 25.8501 5.85319 25.9386 4.3651C25.9515 4.15721 25.8757 3.95349 25.7297 3.80344L22.9861 3.86543ZM5.98666 1.36688L5.98969 1.36375C6.13587 1.2126 6.33835 1.12755 6.54953 1.12787H6.54937V1.27787L6.54961 1.12787H21.4511C21.4511 1.12787 21.4512 1.12787 21.4512 1.12787H21.4514V1.27787L5.98666 1.36688ZM5.98666 1.36688C5.98576 1.36782 5.98485 1.36875 5.98395 1.36969L5.74378 1.61803H5.82451L5.98666 1.36688ZM2.83342 3.56549C2.62117 3.56458 2.41737 3.65011 2.27101 3.80345C2.12707 3.95134 2.05136 4.15137 2.06154 4.35615H2.06149L2.06202 4.36506C2.15053 5.85316 2.46617 7.80263 3.37196 9.47514C4.28105 11.1537 5.78624 12.5543 8.23941 12.9223L8.63137 12.9811L8.37655 12.6775C6.6282 10.5947 5.40989 7.47532 4.97725 3.69836L4.96203 3.56543L4.82822 3.56543L2.83342 3.56549ZM2.83342 3.56549C2.83354 3.56549 2.83367 3.56549 2.83379 3.56549L2.83308 3.71549L2.83308 3.56549H2.83342ZM2.21175 4.35588H2.21175H2.21175ZM2.21175 4.35588V4.35615C2.38479 7.26526 3.431 11.9046 8.03641 12.7368L2.21175 4.35588ZM1.58295 3.17435L1.61095 3.14514C1.93335 2.82725 2.37241 2.64728 2.83191 2.64651C2.83196 2.64651 2.832 2.64651 2.83205 2.64651L4.72329 2.64651H4.88361L4.87296 2.48655C4.86779 2.40892 4.8616 2.33704 4.85555 2.26677C4.84701 2.16764 4.83875 2.07171 4.83402 1.96739L4.83402 1.96736C4.81318 1.50999 4.98365 1.06323 5.30702 0.73108L5.30707 0.731037C5.6302 0.398859 6.07868 0.210005 6.54832 0.20896H21.4521C21.9217 0.210003 22.3699 0.398836 22.6934 0.731074C23.0168 1.06327 23.1872 1.51 23.1664 1.96736V1.96739C23.1616 2.07323 23.1532 2.17143 23.1445 2.27291C23.1386 2.34143 23.1326 2.41145 23.1275 2.48631L23.1166 2.64651H23.2771L25.1647 2.64651L25.1649 2.64651C25.6374 2.64576 26.0889 2.83626 26.4132 3.17168C26.737 3.50733 26.9051 3.95845 26.879 4.41846L26.8789 4.41936C26.8046 5.88063 26.4498 8.29107 25.2287 10.3209C24.0136 12.3407 21.939 13.9893 18.3943 13.9477L18.3405 13.9471L18.2986 13.9808C17.7972 14.3839 17.2444 14.721 16.654 14.9838L16.5537 15.0284L16.5659 15.1375C16.8542 17.7195 17.7723 18.7639 18.1064 19.0616L18.1515 19.1018L18.2118 19.0995C18.8257 19.0765 19.4039 19.3764 19.7298 19.8841C20.0555 20.3914 20.0805 21.0301 19.7955 21.5601L19.9276 21.6312L19.7955 21.5601C19.5107 22.0897 18.9589 22.4319 18.3462 22.4559H9.65326C9.04059 22.4319 8.48882 22.0895 8.20423 21.5599L8.2042 21.5598C7.91914 21.0299 7.94421 20.3911 8.26989 19.8838C8.59605 19.3762 9.17455 19.0764 9.78813 19.0995L9.84872 19.1018L9.89388 19.0613C10.2259 18.7637 11.1438 17.7202 11.434 15.1376L11.4463 15.0284L11.3459 14.9838C10.7556 14.7211 10.2027 14.384 9.70137 13.9808L9.65943 13.9471L9.6056 13.9477C6.06117 13.9895 3.98697 12.3409 2.77209 10.3211C1.55118 8.29127 1.19634 5.88072 1.12104 4.41926L1.12099 4.41835C1.09456 3.95979 1.26118 3.50992 1.58295 3.17435ZM11.2491 18.8741L11.1166 19.1H11.3785H16.6215H16.8829L16.751 18.8743C16.1445 17.8362 15.7721 16.6829 15.6585 15.4922L15.642 15.3188L15.473 15.3609C14.5085 15.6012 13.4979 15.6012 12.5331 15.3609L12.3643 15.3189L12.3476 15.492C12.2321 16.6833 11.8578 17.8364 11.2491 18.8741ZM19.1206 20.7781C19.1206 20.356 18.7725 20.0187 18.3493 20.0187H9.65067C9.22747 20.0187 8.87934 20.356 8.87934 20.7781C8.87934 21.2002 9.22747 21.5375 9.65067 21.5375H18.3493C18.7725 21.5375 19.1206 21.2002 19.1206 20.7781Z" fill="black" stroke="black" stroke-width="0.3"/>
</svg>
