<svg width="17" height="13" viewBox="0 0 17 13" fill="none" xmlns="http://www.w3.org/2000/svg">
<path d="M15.999 6.1666C15.9999 7.0541 15.7418 7.9268 15.2496 8.7003C14.603 9.67213 13.6758 10.4745 12.5629 11.0252C11.45 11.5758 10.1915 11.855 8.91642 11.834C7.82436 11.8378 6.74424 11.6331 5.74985 11.234L1 12.5L2.58328 8.7003C2.09107 7.9268 1.83293 7.0541 1.83382 6.1666C1.86349 5.07787 2.24919 4.02003 2.9443 3.12093C3.63941 2.22182 4.61418 1.51992 5.75082 1.10005C6.74521 0.700926 7.82533 0.496266 8.91739 0.500052H9.3343C10.9918 0.511567 12.5868 1.06125 13.8158 2.04456C15.0448 3.02788 15.8222 4.37623 16 5.83317L15.999 6.1666Z" stroke="#55779B" stroke-linecap="round" stroke-linejoin="round"/>
</svg>
