<svg width="14" height="17" viewBox="0 0 14 17" fill="none" xmlns="http://www.w3.org/2000/svg">
<path d="M0.183105 15.0697C0.18336 15.483 0.339338 15.8792 0.61678 16.1715C0.894223 16.4637 1.27044 16.628 1.6628 16.6283H12.5203C12.9127 16.628 13.2889 16.4637 13.5664 16.1715C13.8438 15.8792 13.9998 15.483 14 15.0697V6.23535H0.183105V15.0697ZM10.05 8.70378C10.0503 8.60052 10.0893 8.50157 10.1586 8.42855C10.228 8.35554 10.3219 8.3144 10.4199 8.31413H11.6537C11.7517 8.3144 11.8456 8.35554 11.915 8.42855C11.9843 8.50157 12.0233 8.60052 12.0236 8.70378V10.0033C12.0233 10.1065 11.9843 10.2055 11.915 10.2785C11.8456 10.3515 11.7517 10.3927 11.6537 10.3929H10.4199C10.3219 10.3927 10.228 10.3515 10.1586 10.2785C10.0893 10.2055 10.0503 10.1065 10.05 10.0033V8.70378ZM10.05 12.8613C10.0503 12.7581 10.0893 12.6591 10.1586 12.5861C10.228 12.5131 10.3219 12.472 10.4199 12.4717H11.6537C11.7517 12.472 11.8456 12.5131 11.915 12.5861C11.9843 12.6591 12.0233 12.7581 12.0236 12.8613V14.1608C12.0233 14.2641 11.9843 14.3631 11.915 14.4361C11.8456 14.5091 11.7517 14.5502 11.6537 14.5505H10.4199C10.3219 14.5502 10.228 14.5091 10.1586 14.4361C10.0893 14.3631 10.0503 14.2641 10.05 14.1608V12.8613ZM6.10286 8.70378C6.10311 8.60052 6.14217 8.50157 6.21149 8.42855C6.28081 8.35554 6.37475 8.3144 6.47279 8.31413H7.70651C7.80454 8.3144 7.89849 8.35554 7.96781 8.42855C8.03713 8.50157 8.07618 8.60052 8.07643 8.70378V10.0033C8.07618 10.1065 8.03713 10.2055 7.96781 10.2785C7.89849 10.3515 7.80454 10.3927 7.70651 10.3929H6.47279C6.37475 10.3927 6.28081 10.3515 6.21149 10.2785C6.14217 10.2055 6.10311 10.1065 6.10286 10.0033V8.70378ZM6.10286 12.8613C6.10311 12.7581 6.14217 12.6591 6.21149 12.5861C6.28081 12.5131 6.37475 12.472 6.47279 12.4717H7.70651C7.80454 12.472 7.89849 12.5131 7.96781 12.5861C8.03713 12.6591 8.07618 12.7581 8.07643 12.8613V14.1608C8.07618 14.2641 8.03713 14.3631 7.96781 14.4361C7.89849 14.5091 7.80454 14.5502 7.70651 14.5505H6.47279C6.37475 14.5502 6.28081 14.5091 6.21149 14.4361C6.14217 14.3631 6.10311 14.2641 6.10286 14.1608V12.8613ZM2.15668 8.70378C2.15693 8.60052 2.19599 8.50157 2.26531 8.42855C2.33463 8.35554 2.42857 8.3144 2.5266 8.31413H3.75936C3.8574 8.3144 3.95134 8.35554 4.02066 8.42855C4.08998 8.50157 4.12904 8.60052 4.12929 8.70378V10.0033C4.12904 10.1065 4.08998 10.2055 4.02066 10.2785C3.95134 10.3515 3.8574 10.3927 3.75936 10.3929H2.5266C2.42857 10.3927 2.33463 10.3515 2.26531 10.2785C2.19599 10.2055 2.15693 10.1065 2.15668 10.0033V8.70378ZM2.15668 12.8613C2.15693 12.7581 2.19599 12.6591 2.26531 12.5861C2.33463 12.5131 2.42857 12.472 2.5266 12.4717H3.75936C3.8574 12.472 3.95134 12.5131 4.02066 12.5861C4.08998 12.6591 4.12904 12.7581 4.12929 12.8613V14.1608C4.12904 14.2641 4.08998 14.3631 4.02066 14.4361C3.95134 14.5091 3.8574 14.5502 3.75936 14.5505H2.5266C2.42857 14.5502 2.33463 14.5091 2.26531 14.4361C2.19599 14.3631 2.15693 14.2641 2.15668 14.1608V12.8613ZM12.5165 2.07879H11.0406V0.519199C11.0404 0.450666 11.0273 0.382859 11.0021 0.319657C10.977 0.256456 10.9402 0.199102 10.894 0.150877C10.8478 0.102652 10.793 0.0645045 10.7327 0.0386166C10.6725 0.0127287 10.608 -0.000390867 10.5429 8.86684e-06H9.55613C9.42556 0.000541949 9.30048 0.0554134 9.20815 0.152665C9.11582 0.249917 9.06373 0.381665 9.06322 0.519199V2.07778H5.11608V0.519199C5.11557 0.381665 5.06348 0.249917 4.97115 0.152665C4.87882 0.0554134 4.75374 0.000541949 4.62316 8.86684e-06H3.63638C3.5058 0.000541949 3.38072 0.0554134 3.28839 0.152665C3.19606 0.249917 3.14397 0.381665 3.14346 0.519199V2.07778H1.6628C1.27028 2.07805 0.893911 2.24248 0.616441 2.53493C0.338971 2.82739 0.183105 3.22392 0.183105 3.63738V5.19596H13.9962V3.63738C13.9959 3.2241 13.84 2.82782 13.5625 2.53559C13.2851 2.24335 12.9089 2.07906 12.5165 2.07879V2.07879Z" fill="#55779B"/>
</svg>
