<svg width="23" height="15" viewBox="0 0 23 15" fill="none" xmlns="http://www.w3.org/2000/svg">
<path d="M5.95617 0.5C4.64553 0.5 3.5759 1.50181 3.5759 2.72897C3.5759 3.9563 4.64571 4.96106 5.95617 4.96106C7.26681 4.96106 8.33883 3.9563 8.33883 2.72897C8.33883 1.50164 7.26662 0.5 5.95617 0.5ZM17.0444 0.5C15.7337 0.5 14.6648 1.50181 14.6648 2.72897C14.6648 3.9563 15.7337 4.96106 17.0444 4.96106C18.355 4.96106 19.428 3.9563 19.428 2.72897C19.428 1.50164 18.355 0.5 17.0444 0.5ZM1.62581 3.09734V3.09751C1.51886 3.09923 1.41668 3.14021 1.34141 3.21138L0.120314 4.35398L0.120497 4.35416C0.0432194 4.42618 0 4.52393 0 4.62596C0 4.728 0.0432185 4.82592 0.120497 4.89794L3.04008 7.62887V14.1143H3.03989C3.03916 14.3264 3.22192 14.4991 3.44845 14.5H5.17755C5.28632 14.4997 5.39071 14.459 5.46762 14.3866C5.54435 14.3143 5.58739 14.2164 5.58684 14.1143V11.6842H6.32558V14.1143C6.32521 14.2167 6.36843 14.315 6.44571 14.3873C6.52299 14.4599 6.62811 14.5003 6.73744 14.5H8.4632C8.68973 14.4991 8.87249 14.3265 8.87176 14.1143V7.62887L11.5004 5.17026L14.0713 7.57483L12.7934 11.179V11.1792C12.7522 11.2959 12.7731 11.4242 12.8498 11.5242C12.9265 11.6242 13.0498 11.6835 13.1813 11.684H14.1292V14.1141C14.1286 14.2165 14.1718 14.3148 14.2493 14.3872C14.3266 14.4597 14.4315 14.5002 14.5408 14.4998H16.2666C16.4931 14.499 16.6761 14.3263 16.6751 14.1141V11.684H17.417V14.1141H17.4172C17.4163 14.3263 17.5992 14.499 17.8257 14.4998H19.5522C19.6616 14.5002 19.7665 14.4597 19.844 14.3872C19.9212 14.3148 19.9645 14.2165 19.9641 14.1141V11.684H20.912H20.9118C21.0431 11.6833 21.1662 11.6238 21.2427 11.5239C21.3192 11.424 21.3401 11.2958 21.2987 11.1792L20.0216 7.575L22.8795 4.89807V4.8979C22.9568 4.82588 23 4.72796 23 4.62592C23 4.52389 22.9568 4.42614 22.8795 4.35412L21.6593 3.21151V3.21134C21.4993 3.06249 21.2409 3.06249 21.0808 3.21134L18.3409 5.77422H15.7515L13.0114 3.21134C12.9332 3.13726 12.8262 3.09627 12.7151 3.09747C12.6089 3.0997 12.5078 3.14069 12.4331 3.21134L11.5006 4.08163L10.5712 3.21134H10.571C10.4941 3.13898 10.3894 3.09816 10.2802 3.09816C10.1711 3.09816 10.0663 3.13898 9.98941 3.21134L7.25182 5.77422H4.66003L1.92244 3.21134H1.92225C1.84406 3.13726 1.73711 3.09627 1.62577 3.09747L1.62581 3.09734Z" fill="#23719F" fill-opacity="0.5"/>
</svg>
