<svg width="16" height="14" viewBox="0 0 16 14" fill="none" xmlns="http://www.w3.org/2000/svg">
<path fill-rule="evenodd" clip-rule="evenodd" d="M13.267 7.01074C14.4103 5.83247 14.3969 3.95209 13.2343 2.78949C12.0595 1.61467 10.1547 1.61467 8.97989 2.78949C8.82768 2.9417 8.63461 3.12794 8.39981 3.34916L7.74835 3.96297L7.09688 3.34916C6.86208 3.12794 6.66901 2.9417 6.5168 2.78949C5.34197 1.61467 3.4372 1.61467 2.26238 2.78949C1.09979 3.95208 1.08637 5.83256 2.21932 7.00086L7.74831 12.5299L13.267 7.01074ZM1.59062 2.11774C3.13645 0.571918 5.64273 0.571918 7.18855 2.11774C7.33327 2.26246 7.51987 2.44246 7.74835 2.65772C7.97682 2.44246 8.16342 2.26246 8.30814 2.11774C9.85396 0.571918 12.3602 0.571918 13.9061 2.11774C15.4375 3.64919 15.4518 6.1233 13.9488 7.67229L8.30814 13.3136C7.99899 13.6228 7.49773 13.6228 7.18855 13.3137L1.54756 7.67261C0.0449325 6.1233 0.059178 3.64919 1.59062 2.11774Z" fill="#55779B"/>
</svg>
