<svg width="8" height="12" viewBox="0 0 8 12" fill="none" xmlns="http://www.w3.org/2000/svg">
<path d="M3.889 0.542421C3.37818 0.542026 2.87229 0.642349 2.40028 0.83765C1.92827 1.03295 1.49939 1.3194 1.13818 1.6806C0.776977 2.04181 0.490531 2.47069 0.29523 2.9427C0.0999293 3.41471 -0.000393349 3.9206 1.159e-06 4.43142C1.159e-06 7.34842 3.889 11.6544 3.889 11.6544C3.889 11.6544 7.778 7.34842 7.778 4.43142C7.7784 3.9206 7.67807 3.41471 7.48277 2.9427C7.28747 2.47069 7.00102 2.04181 6.63982 1.6806C6.27861 1.3194 5.84974 1.03295 5.37772 0.83765C4.90571 0.642349 4.39982 0.542026 3.889 0.542421ZM3.889 5.82042C3.61428 5.82042 3.34573 5.73896 3.11731 5.58633C2.88889 5.43371 2.71086 5.21677 2.60573 4.96297C2.5006 4.70916 2.4731 4.42988 2.52669 4.16044C2.58029 3.891 2.71257 3.6435 2.90683 3.44925C3.10109 3.25499 3.34858 3.1227 3.61802 3.06911C3.88746 3.01551 4.16674 3.04302 4.42055 3.14815C4.67436 3.25328 4.89129 3.43131 5.04391 3.65973C5.19654 3.88815 5.278 4.1567 5.278 4.43142C5.27774 4.79973 5.13131 5.15287 4.87088 5.4133C4.61045 5.67373 4.25731 5.82016 3.889 5.82042Z" fill="#D0D0D0"/>
</svg>
