<svg width="26" height="33" viewBox="0 0 26 33" fill="none" xmlns="http://www.w3.org/2000/svg">
<mask id="path-1-inside-1_322_410" fill="white">
<path d="M25.1199 29.8151C24.4665 27.9588 22.3171 26.5304 20.4108 25.6398C19.8758 25.1414 19.2052 24.7819 18.4928 24.5014C18.074 24.3366 17.8624 23.8643 18.0261 23.445C18.3078 22.7255 18.714 22.0762 19.2582 21.4879C19.8891 20.8063 20.3502 19.797 20.5909 19.1966C20.7036 18.9161 20.9476 18.7033 21.2458 18.6558C22.4181 18.4687 23.2534 17.6469 23.5329 16.4318C23.8798 14.9247 23.4859 13.2917 22.0426 12.6648C21.8152 12.5663 21.6692 12.341 21.6922 12.0937L21.6981 12.0323C21.719 11.8023 21.6429 11.5853 21.5093 11.4096C21.7053 11.1212 21.5984 10.5941 21.5833 10.2629C21.5665 9.89368 21.5391 9.52445 21.4972 9.15735C21.4257 8.52649 21.3147 7.89914 21.1503 7.28526C20.8598 6.19951 20.3993 5.15107 19.71 4.25829C18.3093 2.44532 16.1344 1.60773 13.9001 1.4504C13.4964 0.767388 12.4452 0.770428 12.0452 1.45622C8.70283 1.74394 5.96305 3.70727 4.92492 6.95705C4.71262 7.62099 4.56992 8.30609 4.47866 8.99654C4.43071 9.36156 4.39672 9.72866 4.3753 10.0962C4.35388 10.4617 4.21724 11.124 4.45981 11.4359C4.33945 11.607 4.27218 11.814 4.29196 12.0319L4.29825 12.098C4.3206 12.344 4.17627 12.5682 3.95046 12.6678C2.52158 13.2982 2.13123 14.9383 2.48945 16.4253C2.77369 17.6065 3.61054 18.4203 4.75522 18.6336C5.03737 18.6862 5.26619 18.8885 5.38096 19.152C5.71478 19.9174 6.40503 21.0809 6.86801 21.6112C7.3457 22.1578 7.73052 22.7563 7.98701 23.4195C8.1481 23.8362 7.93114 24.3069 7.51398 24.4671C6.72508 24.7699 5.98295 25.1652 5.4121 25.7342C3.8347 26.4954 2.15886 27.5336 1.24564 29.0798C0.605237 30.1639 0.277946 31.7136 0.450889 32.974L1.4833 32.8326C1.40508 31.9706 1.5678 31.0677 1.85041 30.2557C2.28154 29.0156 3.36422 28.1413 4.44091 27.4622C3.95484 29.4833 4.85644 31.6548 6.93504 32.2595C9.04783 32.8743 11.0461 31.7621 12.0124 29.9209C12.1158 29.7238 12.3257 29.6043 12.5478 29.6227C12.8274 29.6462 13.1067 29.6483 13.3868 29.63C13.6042 29.616 13.8086 29.7342 13.9103 29.9272C14.888 31.7877 16.9296 32.8957 19.0529 32.2393C21.1177 31.601 21.9818 29.3911 21.4574 27.3873C22.5419 28.0542 23.6782 28.926 24.1366 30.1598C24.4411 30.9789 24.6336 31.9525 24.536 32.8322L25.5684 32.9735C25.5754 32.92 25.7471 31.5985 25.1199 29.8151C24.4665 27.9588 25.747 31.5985 25.1199 29.8151ZM9.38647 25.3332C9.38647 24.9947 9.3583 24.6595 9.30523 24.3294C9.2447 23.9572 9.60506 23.6629 9.95331 23.8075C10.5911 24.0719 11.2662 24.257 11.9677 24.3499C12.1648 24.3759 12.3092 24.5484 12.2868 24.7461C12.1627 25.8276 11.9572 26.932 11.6652 27.9223C11.5942 28.1627 11.33 28.2936 11.101 28.1914C10.5274 27.9353 10.008 27.5682 9.57523 27.1145C9.43486 26.9681 9.35781 26.773 9.36409 26.57C9.37875 26.1284 9.38647 25.3332 9.38647 25.3332ZM12.3944 20.8732C12.4928 20.9139 12.6004 20.9367 12.7131 20.9367H13.2059C13.3185 20.9367 13.4259 20.9137 13.5246 20.8732V21.1891C13.5246 21.916 12.3946 21.9207 12.3946 21.1891L12.3944 20.8732ZM16.6312 25.3332C16.6312 25.3332 16.6437 26.1377 16.6644 26.5877C16.6738 26.7968 16.5934 26.9986 16.4475 27.1487C15.9882 27.6197 15.4337 27.9935 14.8231 28.2438C14.5952 28.3371 14.3391 28.2072 14.2683 27.9709C13.969 26.9702 13.7594 25.8498 13.6333 24.7519C13.6109 24.5559 13.7564 24.3843 13.9525 24.3618C14.6867 24.2763 15.3932 24.0906 16.0592 23.8152C16.4096 23.6708 16.772 23.9623 16.7115 24.3366C16.6593 24.6653 16.6316 24.998 16.6312 25.3332ZM12.974 7.25054C15.5687 7.25054 17.3647 8.16096 18.5207 9.08235C18.6536 9.18826 18.5384 9.39614 18.3778 9.34144C14.8501 8.13418 11.1532 8.12697 7.62103 9.32422C7.46087 9.37846 7.3468 9.17081 7.47857 9.06512C8.62087 8.15005 10.3956 7.25054 12.974 7.25054ZM3.41752 15.6253C3.31067 14.2935 4.03325 13.4529 5.37084 13.4247C5.42811 13.4368 5.47094 13.4361 5.52984 13.4299C6.05222 13.4878 6.53668 13.0935 6.56761 12.5362L6.62441 11.5121C6.64839 11.0794 6.92471 10.7018 7.32929 10.5453C9.12665 9.85069 11.0462 9.42256 12.974 9.42256C14.9173 9.42256 16.853 9.85742 18.6636 10.5618C19.0668 10.7187 19.342 11.0958 19.3659 11.5274L19.4223 12.5354C19.4546 13.119 19.9845 13.5236 20.5341 13.4167C21.908 13.4323 22.7081 14.2313 22.6017 15.625C22.5281 16.5872 22.1298 17.5101 21.079 17.6368C21.1693 17.1393 20.5294 16.816 20.1858 17.191C19.9078 17.4938 19.8666 18.1953 19.7202 18.5833C19.3901 19.4551 18.9069 20.2675 18.2892 20.9663C17.14 22.2679 15.5386 23.1287 13.8148 23.3285C13.6521 23.3473 13.5077 23.2191 13.5015 23.0552C13.5005 23.0307 13.4998 23.0056 13.4989 22.9811C13.4938 22.8196 13.5834 22.6725 13.7252 22.5952C14.2257 22.3235 14.5679 21.7974 14.5679 21.1889V19.9269C14.5679 19.7877 14.6377 19.6569 14.7562 19.5829C15.0039 19.4269 15.3042 19.2022 15.3829 18.9643C15.4658 18.7141 15.2886 18.4387 15.0142 18.4387H10.9864C10.7117 18.4387 10.5344 18.7141 10.6177 18.9643C10.6908 19.1843 10.9494 19.3873 11.172 19.5349C11.2856 19.6101 11.3529 19.7376 11.3529 19.8743V21.1893C11.3529 21.7978 11.6948 22.3239 12.1956 22.5956C12.3373 22.6729 12.4272 22.8198 12.4219 22.9816C12.4214 23.003 12.4202 23.0249 12.4198 23.0463C12.4139 23.2111 12.267 23.3398 12.1032 23.3191C10.4135 23.1054 8.91648 22.3081 7.80118 21.1008C7.08468 20.2707 6.5236 19.3733 6.18213 18.3272C6.04664 17.9121 6.03966 17.0147 5.62366 16.7872C5.41555 16.6736 5.16018 16.719 4.99953 16.892C4.79607 17.112 4.87336 17.355 4.92644 17.6183C4.00785 17.4617 3.51133 16.8069 3.41752 15.6253C3.37679 15.1232 3.51134 16.8069 3.41752 15.6253ZM6.8107 31.1049C5.2473 30.369 4.8923 28.0695 5.90862 26.7419C5.98381 26.6439 6.08694 26.5699 6.19914 26.5182C6.44101 26.4076 6.67682 26.3066 6.90098 26.2158C7.27647 26.0641 7.71176 26.2154 7.90383 26.5725C8.45554 27.5986 9.3059 28.4304 10.3213 28.969C10.8095 29.2277 10.9278 29.8853 10.5273 30.2659C9.61132 31.1349 7.96926 31.6496 6.8107 31.1049ZM12.6363 28.3224C12.7145 28.0684 12.7869 27.8093 12.8532 27.546C12.8814 27.4334 13.0378 27.4334 13.066 27.546C13.1328 27.8105 13.2057 28.0705 13.2839 28.3257C13.3251 28.4602 13.2271 28.5948 13.0862 28.5936C13.0029 28.5931 12.9126 28.592 12.8285 28.5899C12.6905 28.5873 12.5955 28.4544 12.6363 28.3224ZM20.5396 28.9658C20.4207 30.3691 19.3112 31.3409 17.9189 31.378C16.9062 31.4045 16.0239 30.9899 15.3928 30.2881C15.0316 29.8856 15.1598 29.2591 15.6422 29.0143C16.6902 28.4819 17.5706 27.6397 18.1389 26.5925C18.3349 26.2317 18.7697 26.0741 19.1499 26.2296C19.3126 26.2964 19.4809 26.3684 19.6532 26.4449C19.757 26.4913 19.8538 26.5576 19.9279 26.6442C20.4416 27.2446 20.6225 27.9892 20.5396 28.9658C20.4346 30.2017 20.6288 27.9187 20.5396 28.9658Z"/>
</mask>
<path d="M25.1199 29.8151C24.4665 27.9588 22.3171 26.5304 20.4108 25.6398C19.8758 25.1414 19.2052 24.7819 18.4928 24.5014C18.074 24.3366 17.8624 23.8643 18.0261 23.445C18.3078 22.7255 18.714 22.0762 19.2582 21.4879C19.8891 20.8063 20.3502 19.797 20.5909 19.1966C20.7036 18.9161 20.9476 18.7033 21.2458 18.6558C22.4181 18.4687 23.2534 17.6469 23.5329 16.4318C23.8798 14.9247 23.4859 13.2917 22.0426 12.6648C21.8152 12.5663 21.6692 12.341 21.6922 12.0937L21.6981 12.0323C21.719 11.8023 21.6429 11.5853 21.5093 11.4096C21.7053 11.1212 21.5984 10.5941 21.5833 10.2629C21.5665 9.89368 21.5391 9.52445 21.4972 9.15735C21.4257 8.52649 21.3147 7.89914 21.1503 7.28526C20.8598 6.19951 20.3993 5.15107 19.71 4.25829C18.3093 2.44532 16.1344 1.60773 13.9001 1.4504C13.4964 0.767388 12.4452 0.770428 12.0452 1.45622C8.70283 1.74394 5.96305 3.70727 4.92492 6.95705C4.71262 7.62099 4.56992 8.30609 4.47866 8.99654C4.43071 9.36156 4.39672 9.72866 4.3753 10.0962C4.35388 10.4617 4.21724 11.124 4.45981 11.4359C4.33945 11.607 4.27218 11.814 4.29196 12.0319L4.29825 12.098C4.3206 12.344 4.17627 12.5682 3.95046 12.6678C2.52158 13.2982 2.13123 14.9383 2.48945 16.4253C2.77369 17.6065 3.61054 18.4203 4.75522 18.6336C5.03737 18.6862 5.26619 18.8885 5.38096 19.152C5.71478 19.9174 6.40503 21.0809 6.86801 21.6112C7.3457 22.1578 7.73052 22.7563 7.98701 23.4195C8.1481 23.8362 7.93114 24.3069 7.51398 24.4671C6.72508 24.7699 5.98295 25.1652 5.4121 25.7342C3.8347 26.4954 2.15886 27.5336 1.24564 29.0798C0.605237 30.1639 0.277946 31.7136 0.450889 32.974L1.4833 32.8326C1.40508 31.9706 1.5678 31.0677 1.85041 30.2557C2.28154 29.0156 3.36422 28.1413 4.44091 27.4622C3.95484 29.4833 4.85644 31.6548 6.93504 32.2595C9.04783 32.8743 11.0461 31.7621 12.0124 29.9209C12.1158 29.7238 12.3257 29.6043 12.5478 29.6227C12.8274 29.6462 13.1067 29.6483 13.3868 29.63C13.6042 29.616 13.8086 29.7342 13.9103 29.9272C14.888 31.7877 16.9296 32.8957 19.0529 32.2393C21.1177 31.601 21.9818 29.3911 21.4574 27.3873C22.5419 28.0542 23.6782 28.926 24.1366 30.1598C24.4411 30.9789 24.6336 31.9525 24.536 32.8322L25.5684 32.9735C25.5754 32.92 25.7471 31.5985 25.1199 29.8151C24.4665 27.9588 25.747 31.5985 25.1199 29.8151ZM9.38647 25.3332C9.38647 24.9947 9.3583 24.6595 9.30523 24.3294C9.2447 23.9572 9.60506 23.6629 9.95331 23.8075C10.5911 24.0719 11.2662 24.257 11.9677 24.3499C12.1648 24.3759 12.3092 24.5484 12.2868 24.7461C12.1627 25.8276 11.9572 26.932 11.6652 27.9223C11.5942 28.1627 11.33 28.2936 11.101 28.1914C10.5274 27.9353 10.008 27.5682 9.57523 27.1145C9.43486 26.9681 9.35781 26.773 9.36409 26.57C9.37875 26.1284 9.38647 25.3332 9.38647 25.3332ZM12.3944 20.8732C12.4928 20.9139 12.6004 20.9367 12.7131 20.9367H13.2059C13.3185 20.9367 13.4259 20.9137 13.5246 20.8732V21.1891C13.5246 21.916 12.3946 21.9207 12.3946 21.1891L12.3944 20.8732ZM16.6312 25.3332C16.6312 25.3332 16.6437 26.1377 16.6644 26.5877C16.6738 26.7968 16.5934 26.9986 16.4475 27.1487C15.9882 27.6197 15.4337 27.9935 14.8231 28.2438C14.5952 28.3371 14.3391 28.2072 14.2683 27.9709C13.969 26.9702 13.7594 25.8498 13.6333 24.7519C13.6109 24.5559 13.7564 24.3843 13.9525 24.3618C14.6867 24.2763 15.3932 24.0906 16.0592 23.8152C16.4096 23.6708 16.772 23.9623 16.7115 24.3366C16.6593 24.6653 16.6316 24.998 16.6312 25.3332ZM12.974 7.25054C15.5687 7.25054 17.3647 8.16096 18.5207 9.08235C18.6536 9.18826 18.5384 9.39614 18.3778 9.34144C14.8501 8.13418 11.1532 8.12697 7.62103 9.32422C7.46087 9.37846 7.3468 9.17081 7.47857 9.06512C8.62087 8.15005 10.3956 7.25054 12.974 7.25054ZM3.41752 15.6253C3.31067 14.2935 4.03325 13.4529 5.37084 13.4247C5.42811 13.4368 5.47094 13.4361 5.52984 13.4299C6.05222 13.4878 6.53668 13.0935 6.56761 12.5362L6.62441 11.5121C6.64839 11.0794 6.92471 10.7018 7.32929 10.5453C9.12665 9.85069 11.0462 9.42256 12.974 9.42256C14.9173 9.42256 16.853 9.85742 18.6636 10.5618C19.0668 10.7187 19.342 11.0958 19.3659 11.5274L19.4223 12.5354C19.4546 13.119 19.9845 13.5236 20.5341 13.4167C21.908 13.4323 22.7081 14.2313 22.6017 15.625C22.5281 16.5872 22.1298 17.5101 21.079 17.6368C21.1693 17.1393 20.5294 16.816 20.1858 17.191C19.9078 17.4938 19.8666 18.1953 19.7202 18.5833C19.3901 19.4551 18.9069 20.2675 18.2892 20.9663C17.14 22.2679 15.5386 23.1287 13.8148 23.3285C13.6521 23.3473 13.5077 23.2191 13.5015 23.0552C13.5005 23.0307 13.4998 23.0056 13.4989 22.9811C13.4938 22.8196 13.5834 22.6725 13.7252 22.5952C14.2257 22.3235 14.5679 21.7974 14.5679 21.1889V19.9269C14.5679 19.7877 14.6377 19.6569 14.7562 19.5829C15.0039 19.4269 15.3042 19.2022 15.3829 18.9643C15.4658 18.7141 15.2886 18.4387 15.0142 18.4387H10.9864C10.7117 18.4387 10.5344 18.7141 10.6177 18.9643C10.6908 19.1843 10.9494 19.3873 11.172 19.5349C11.2856 19.6101 11.3529 19.7376 11.3529 19.8743V21.1893C11.3529 21.7978 11.6948 22.3239 12.1956 22.5956C12.3373 22.6729 12.4272 22.8198 12.4219 22.9816C12.4214 23.003 12.4202 23.0249 12.4198 23.0463C12.4139 23.2111 12.267 23.3398 12.1032 23.3191C10.4135 23.1054 8.91648 22.3081 7.80118 21.1008C7.08468 20.2707 6.5236 19.3733 6.18213 18.3272C6.04664 17.9121 6.03966 17.0147 5.62366 16.7872C5.41555 16.6736 5.16018 16.719 4.99953 16.892C4.79607 17.112 4.87336 17.355 4.92644 17.6183C4.00785 17.4617 3.51133 16.8069 3.41752 15.6253C3.37679 15.1232 3.51134 16.8069 3.41752 15.6253ZM6.8107 31.1049C5.2473 30.369 4.8923 28.0695 5.90862 26.7419C5.98381 26.6439 6.08694 26.5699 6.19914 26.5182C6.44101 26.4076 6.67682 26.3066 6.90098 26.2158C7.27647 26.0641 7.71176 26.2154 7.90383 26.5725C8.45554 27.5986 9.3059 28.4304 10.3213 28.969C10.8095 29.2277 10.9278 29.8853 10.5273 30.2659C9.61132 31.1349 7.96926 31.6496 6.8107 31.1049ZM12.6363 28.3224C12.7145 28.0684 12.7869 27.8093 12.8532 27.546C12.8814 27.4334 13.0378 27.4334 13.066 27.546C13.1328 27.8105 13.2057 28.0705 13.2839 28.3257C13.3251 28.4602 13.2271 28.5948 13.0862 28.5936C13.0029 28.5931 12.9126 28.592 12.8285 28.5899C12.6905 28.5873 12.5955 28.4544 12.6363 28.3224ZM20.5396 28.9658C20.4207 30.3691 19.3112 31.3409 17.9189 31.378C16.9062 31.4045 16.0239 30.9899 15.3928 30.2881C15.0316 29.8856 15.1598 29.2591 15.6422 29.0143C16.6902 28.4819 17.5706 27.6397 18.1389 26.5925C18.3349 26.2317 18.7697 26.0741 19.1499 26.2296C19.3126 26.2964 19.4809 26.3684 19.6532 26.4449C19.757 26.4913 19.8538 26.5576 19.9279 26.6442C20.4416 27.2446 20.6225 27.9892 20.5396 28.9658C20.4346 30.2017 20.6288 27.9187 20.5396 28.9658Z" fill="black"/>
<path d="M25.1199 29.8151L26.0633 29.4834L26.0632 29.483L25.1199 29.8151ZM20.4108 25.6398L19.7291 26.3715L19.8446 26.479L19.9875 26.5458L20.4108 25.6398ZM18.4928 24.5014L18.8592 23.571L18.859 23.5709L18.4928 24.5014ZM18.0261 23.445L17.0949 23.0805L17.0945 23.0814L18.0261 23.445ZM19.2582 21.4879L18.5243 20.8087L18.5242 20.8088L19.2582 21.4879ZM20.5909 19.1966L19.663 18.8239L19.6628 18.8245L20.5909 19.1966ZM21.2458 18.6558L21.403 19.6434L21.4034 19.6433L21.2458 18.6558ZM23.5329 16.4318L22.5584 16.2075L22.5584 16.2076L23.5329 16.4318ZM22.0426 12.6648L22.441 11.7476L22.4399 11.7471L22.0426 12.6648ZM21.6922 12.0937L20.6967 11.9995L20.6966 12.0009L21.6922 12.0937ZM21.6981 12.0323L22.6936 12.1266L22.6939 12.123L21.6981 12.0323ZM21.5093 11.4096L20.6822 10.8475L20.278 11.4423L20.7132 12.0148L21.5093 11.4096ZM21.5833 10.2629L20.5843 10.3082L20.5843 10.3085L21.5833 10.2629ZM21.4972 9.15735L20.5035 9.26991L20.5036 9.27076L21.4972 9.15735ZM21.1503 7.28526L20.1843 7.54374L20.1843 7.54387L21.1503 7.28526ZM19.71 4.25829L20.5016 3.64719L20.5014 3.64691L19.71 4.25829ZM13.9001 1.4504L13.0392 1.95918L13.3063 2.41106L13.8299 2.44793L13.9001 1.4504ZM12.0452 1.45622L12.131 2.45253L12.6478 2.40805L12.9091 1.95999L12.0452 1.45622ZM4.92492 6.95705L5.87741 7.26163L5.8775 7.26135L4.92492 6.95705ZM4.47866 8.99654L3.48728 8.86552L3.48718 8.86629L4.47866 8.99654ZM4.3753 10.0962L5.37359 10.1547L5.37361 10.1544L4.3753 10.0962ZM4.45981 11.4359L5.27773 12.0112L5.70339 11.4061L5.2492 10.822L4.45981 11.4359ZM4.29196 12.0319L3.29605 12.1223L3.29645 12.1265L4.29196 12.0319ZM4.29825 12.098L5.29416 12.0075L5.29376 12.0033L4.29825 12.098ZM3.95046 12.6678L4.3541 13.5828L4.35416 13.5827L3.95046 12.6678ZM2.48945 16.4253L3.4617 16.1913L3.46164 16.1911L2.48945 16.4253ZM4.75522 18.6336L4.93853 17.6505L4.93835 17.6505L4.75522 18.6336ZM5.38096 19.152L4.46414 19.5513L4.46434 19.5517L5.38096 19.152ZM6.86801 21.6112L6.1147 22.2689L6.11504 22.2692L6.86801 21.6112ZM7.98701 23.4195L8.91974 23.0589L8.91969 23.0588L7.98701 23.4195ZM7.51398 24.4671L7.15562 23.5335L7.15559 23.5335L7.51398 24.4671ZM5.4121 25.7342L5.84671 26.6348L5.99858 26.5615L6.11802 26.4424L5.4121 25.7342ZM1.24564 29.0798L2.10663 29.5885L2.10667 29.5884L1.24564 29.0798ZM0.450889 32.974L-0.539828 33.1099L-0.403931 34.1003L0.586496 33.9647L0.450889 32.974ZM1.4833 32.8326L1.6189 33.8234L2.56555 33.6938L2.47921 32.7423L1.4833 32.8326ZM1.85041 30.2557L2.79484 30.5844L2.79496 30.5841L1.85041 30.2557ZM4.44091 27.4622L5.41318 27.696L5.9885 25.3038L3.90744 26.6164L4.44091 27.4622ZM6.93504 32.2595L7.21443 31.2994L7.2144 31.2994L6.93504 32.2595ZM12.0124 29.9209L12.8979 30.3857L12.8981 30.3852L12.0124 29.9209ZM12.5478 29.6227L12.6316 28.6263L12.6303 28.6261L12.5478 29.6227ZM13.3868 29.63L13.3227 28.632L13.3213 28.6321L13.3868 29.63ZM13.9103 29.9272L14.7955 29.462L14.7949 29.4609L13.9103 29.9272ZM19.0529 32.2393L18.7575 31.2839L18.7575 31.2839L19.0529 32.2393ZM21.4574 27.3873L21.9812 26.5354L19.8593 25.2306L20.49 27.6404L21.4574 27.3873ZM24.1366 30.1598L23.1992 30.508L23.1992 30.5082L24.1366 30.1598ZM24.536 32.8322L23.5421 32.722L23.4347 33.6908L24.4004 33.823L24.536 32.8322ZM25.5684 32.9735L25.4328 33.9643L26.4299 34.1007L26.56 33.1029L25.5684 32.9735ZM9.38647 25.3332L10.3865 25.3429V25.3332H9.38647ZM9.30523 24.3294L10.2925 24.1706L10.2923 24.1689L9.30523 24.3294ZM9.95331 23.8075L9.56987 24.731L9.57032 24.7312L9.95331 23.8075ZM11.9677 24.3499L11.8364 25.3412L11.8366 25.3412L11.9677 24.3499ZM12.2868 24.7461L13.2803 24.8601L13.2805 24.8584L12.2868 24.7461ZM11.6652 27.9223L12.6243 28.2054L12.6244 28.205L11.6652 27.9223ZM11.101 28.1914L10.6933 29.1045L10.6935 29.1046L11.101 28.1914ZM9.57523 27.1145L10.2988 26.4243L10.2971 26.4225L9.57523 27.1145ZM9.36409 26.57L8.36464 26.5368L8.36457 26.5391L9.36409 26.57ZM12.3944 20.8732L12.7767 19.9491L11.3933 19.3768L11.3944 20.8739L12.3944 20.8732ZM13.5246 20.8732H14.5246V19.3819L13.1449 19.948L13.5246 20.8732ZM12.3946 21.1891H13.3946V21.1883L12.3946 21.1891ZM16.6312 25.3332L15.6312 25.3318L15.6311 25.3403L15.6313 25.3488L16.6312 25.3332ZM16.6644 26.5877L17.6635 26.5432L17.6634 26.5417L16.6644 26.5877ZM16.4475 27.1487L17.1634 27.8469L17.1645 27.8457L16.4475 27.1487ZM14.8231 28.2438L15.2021 29.1692L15.2023 29.1691L14.8231 28.2438ZM14.2683 27.9709L13.3103 28.2575L13.3104 28.2579L14.2683 27.9709ZM13.6333 24.7519L12.6397 24.8652L12.6398 24.8661L13.6333 24.7519ZM13.9525 24.3618L14.0669 25.3552L14.068 25.3551L13.9525 24.3618ZM16.0592 23.8152L15.6783 22.8905L15.6771 22.891L16.0592 23.8152ZM16.7115 24.3366L15.7243 24.1769L15.7238 24.1799L16.7115 24.3366ZM18.5207 9.08235L17.8974 9.86434L17.8975 9.86443L18.5207 9.08235ZM18.3778 9.34144L18.054 10.2876L18.0554 10.2881L18.3778 9.34144ZM7.62103 9.32422L7.9418 10.2714L7.94205 10.2713L7.62103 9.32422ZM7.47857 9.06512L6.85336 8.28466L6.85286 8.28506L7.47857 9.06512ZM3.41752 15.6253L4.41439 15.5462L4.41432 15.5453L3.41752 15.6253ZM5.37084 13.4247L5.57765 12.4464L5.46494 12.4225L5.34977 12.425L5.37084 13.4247ZM5.52984 13.4299L5.64012 12.436L5.53195 12.424L5.42372 12.4355L5.52984 13.4299ZM6.56761 12.5362L7.56607 12.5916L7.56608 12.5916L6.56761 12.5362ZM6.62441 11.5121L7.62288 11.5675L7.62288 11.5674L6.62441 11.5121ZM7.32929 10.5453L6.9688 9.61255L6.96865 9.61261L7.32929 10.5453ZM18.6636 10.5618L19.0263 9.6299L19.0262 9.62987L18.6636 10.5618ZM19.3659 11.5274L18.3675 11.5829L18.3675 11.5832L19.3659 11.5274ZM19.4223 12.5354L20.4207 12.48L20.4207 12.4796L19.4223 12.5354ZM20.5341 13.4167L20.5454 12.4168L20.4434 12.4156L20.3432 12.4351L20.5341 13.4167ZM22.6017 15.625L23.5988 15.7012L23.5988 15.7011L22.6017 15.625ZM21.079 17.6368L20.0951 17.4581L19.8529 18.7918L21.1986 18.6296L21.079 17.6368ZM20.1858 17.191L20.9225 17.8672L20.9231 17.8665L20.1858 17.191ZM19.7202 18.5833L20.6554 18.9374L20.6558 18.9363L19.7202 18.5833ZM18.2892 20.9663L17.54 20.3041L17.5396 20.3044L18.2892 20.9663ZM13.8148 23.3285L13.9299 24.3218H13.9299L13.8148 23.3285ZM13.5015 23.0552L12.5022 23.0932L12.5022 23.0935L13.5015 23.0552ZM13.4989 22.9811L12.4994 23.0128L12.4996 23.0192L13.4989 22.9811ZM13.7252 22.5952L13.2481 21.7163L13.2465 21.7172L13.7252 22.5952ZM14.7562 19.5829L15.2861 20.4309L15.2891 20.4291L14.7562 19.5829ZM15.3829 18.9643L14.4336 18.65L14.4335 18.6503L15.3829 18.9643ZM10.6177 18.9643L11.5667 18.649L11.5665 18.6484L10.6177 18.9643ZM11.172 19.5349L10.6193 20.3683L10.62 20.3688L11.172 19.5349ZM12.1956 22.5956L12.6742 21.7176L12.6725 21.7166L12.1956 22.5956ZM12.4219 22.9816L11.4223 22.9485L11.4221 22.9598L12.4219 22.9816ZM12.4198 23.0463L13.4192 23.0816L13.4195 23.068L12.4198 23.0463ZM12.1032 23.3191L11.9777 24.3112L11.9777 24.3112L12.1032 23.3191ZM7.80118 21.1008L7.04416 21.7542L7.05519 21.767L7.06665 21.7794L7.80118 21.1008ZM6.18213 18.3272L7.13277 18.0169L7.13276 18.0168L6.18213 18.3272ZM5.62366 16.7872L6.10343 15.9098L6.10278 15.9095L5.62366 16.7872ZM4.99953 16.892L4.26683 16.2114L4.26539 16.213L4.99953 16.892ZM4.92644 17.6183L4.75831 18.6041L6.19462 18.8491L5.90672 17.4207L4.92644 17.6183ZM6.8107 31.1049L6.38482 32.0097L6.38519 32.0098L6.8107 31.1049ZM5.90862 26.7419L5.11523 26.1332L5.11458 26.1341L5.90862 26.7419ZM6.19914 26.5182L5.78335 25.6088L5.78079 25.6099L6.19914 26.5182ZM6.90098 26.2158L6.52622 25.2887L6.52559 25.289L6.90098 26.2158ZM7.90383 26.5725L8.7846 26.0989L8.78452 26.0988L7.90383 26.5725ZM10.3213 28.969L9.85269 29.8524L9.85317 29.8527L10.3213 28.969ZM10.5273 30.2659L11.2156 30.9914L11.2163 30.9907L10.5273 30.2659ZM12.6363 28.3224L13.5918 28.6173L13.592 28.6167L12.6363 28.3224ZM12.8532 27.546L13.8229 27.7904L13.8234 27.7886L12.8532 27.546ZM13.066 27.546L12.0958 27.7886L12.0965 27.791L13.066 27.546ZM13.2839 28.3257L14.24 28.0328L14.24 28.0326L13.2839 28.3257ZM13.0862 28.5936L13.0945 27.5936L13.0918 27.5936L13.0862 28.5936ZM12.8285 28.5899L12.8535 27.5902L12.8471 27.59L12.8285 28.5899ZM17.9189 31.378L17.9451 32.3777L17.9455 32.3776L17.9189 31.378ZM15.3928 30.2881L14.6487 30.9561L14.6493 30.9567L15.3928 30.2881ZM15.6422 29.0143L16.0948 29.9059L16.0951 29.9058L15.6422 29.0143ZM18.1389 26.5925L17.2601 26.1152L17.26 26.1155L18.1389 26.5925ZM19.1499 26.2296L19.5297 25.3046L19.5285 25.3041L19.1499 26.2296ZM19.6532 26.4449L20.0606 25.5317L20.0594 25.5312L19.6532 26.4449ZM19.9279 26.6442L19.1677 27.294L19.1681 27.2944L19.9279 26.6442ZM26.0632 29.483C25.6521 28.3151 24.8004 27.3528 23.8679 26.591C22.9272 25.8223 21.8357 25.2017 20.8341 24.7338L19.9875 26.5458C20.8923 26.9685 21.8286 27.5074 22.6025 28.1397C23.3846 28.7788 23.9343 29.4588 24.1767 30.1471L26.0632 29.483ZM21.0925 24.9081C20.4318 24.2926 19.6354 23.8766 18.8592 23.571L18.1264 25.4319C18.775 25.6873 19.3198 25.9901 19.7291 26.3715L21.0925 24.9081ZM18.859 23.5709C18.943 23.604 18.9983 23.7044 18.9576 23.8086L17.0945 23.0814C16.7265 24.0243 17.205 25.0693 18.1266 25.432L18.859 23.5709ZM18.9573 23.8095C19.1928 23.2079 19.5315 22.665 19.9923 22.1671L18.5242 20.8088C17.8964 21.4874 17.4227 22.243 17.0949 23.0805L18.9573 23.8095ZM19.9922 22.1672C20.756 21.3419 21.2723 20.1843 21.5191 19.5687L19.6628 18.8245C19.4282 19.4096 19.0222 20.2707 18.5243 20.8087L19.9922 22.1672ZM21.5189 19.5693C21.5153 19.5784 21.5078 19.5913 21.4913 19.6051C21.4736 19.6199 21.4437 19.6369 21.403 19.6434L21.0885 17.6683C20.4072 17.7768 19.8925 18.2526 19.663 18.8239L21.5189 19.5693ZM21.4034 19.6433C23.0117 19.3866 24.1444 18.234 24.5075 16.656L22.5584 16.2076C22.3623 17.0598 21.8245 17.5508 21.0881 17.6683L21.4034 19.6433ZM24.5075 16.6561C24.9073 14.9189 24.5186 12.65 22.441 11.7476L21.6442 13.582C22.4532 13.9334 22.8523 14.9306 22.5584 16.2075L24.5075 16.6561ZM22.4399 11.7471C22.5747 11.8055 22.7085 11.9664 22.6879 12.1866L20.6966 12.0009C20.6299 12.7156 21.0556 13.3272 21.6453 13.5825L22.4399 11.7471ZM22.6878 12.188L22.6936 12.1266L20.7025 11.938L20.6967 11.9995L22.6878 12.188ZM22.6939 12.123C22.7408 11.6084 22.5669 11.1484 22.3053 10.8043L20.7132 12.0148C20.7159 12.0183 20.7121 12.0146 20.708 12.0015C20.7034 11.9871 20.7 11.9658 20.7022 11.9416L22.6939 12.123ZM22.3364 11.9717C22.6215 11.552 22.63 11.0713 22.6253 10.8327C22.6225 10.6902 22.6109 10.5543 22.6016 10.4512C22.591 10.3335 22.5847 10.2711 22.5823 10.2172L20.5843 10.3085C20.5894 10.4202 20.6022 10.5479 20.6097 10.6312C20.6186 10.7292 20.6244 10.8051 20.6257 10.8719C20.627 10.9399 20.6228 10.9707 20.6218 10.9763C20.6206 10.9828 20.6291 10.9256 20.6822 10.8475L22.3364 11.9717ZM22.5823 10.2175C22.5646 9.82923 22.5356 9.43702 22.4907 9.04395L20.5036 9.27076C20.5426 9.61188 20.5684 9.95813 20.5843 10.3082L22.5823 10.2175ZM22.4908 9.04479C22.4147 8.37292 22.2955 7.69589 22.1163 7.02665L20.1843 7.54387C20.3339 8.10238 20.4367 8.68006 20.5035 9.26991L22.4908 9.04479ZM22.1163 7.02678C21.8001 5.84512 21.2898 4.66818 20.5016 3.64719L18.9185 4.8694C19.5088 5.63397 19.9194 6.55391 20.1843 7.54374L22.1163 7.02678ZM20.5014 3.64691C18.8738 1.54028 16.3903 0.623266 13.9703 0.452867L13.8299 2.44793C15.8785 2.59219 17.7449 3.35037 18.9187 4.86968L20.5014 3.64691ZM14.761 0.941613C13.9688 -0.398884 11.9657 -0.392436 11.1814 0.952447L12.9091 1.95999C12.9107 1.95713 12.9115 1.95555 12.9181 1.952C12.9279 1.94678 12.9475 1.94008 12.9743 1.94C13.0011 1.93992 13.0207 1.9465 13.0304 1.95162C13.037 1.95509 13.0376 1.95656 13.0392 1.95918L14.761 0.941613ZM11.9595 0.459901C8.25687 0.778635 5.1456 2.97995 3.97234 6.65276L5.8775 7.26135C6.7805 4.43458 9.14879 2.70925 12.131 2.45253L11.9595 0.459901ZM3.97243 6.65248C3.73908 7.38223 3.58494 8.12663 3.48728 8.86552L5.47004 9.12757C5.5549 8.48555 5.68615 7.85976 5.87741 7.26163L3.97243 6.65248ZM3.48718 8.86629C3.4359 9.25661 3.39973 9.6478 3.37699 10.0381L5.37361 10.1544C5.3937 9.80951 5.42551 9.46651 5.47014 9.1268L3.48718 8.86629ZM3.37701 10.0377C3.37331 10.1009 3.3647 10.1749 3.35049 10.3147C3.33802 10.4374 3.32319 10.5954 3.3189 10.7601C3.3121 11.0211 3.31394 11.5914 3.67041 12.0498L5.2492 10.822C5.31954 10.9125 5.32763 10.9807 5.32408 10.9619C5.32114 10.9462 5.31593 10.9002 5.31822 10.8122C5.32045 10.7267 5.32864 10.6311 5.34023 10.517C5.35008 10.4201 5.36658 10.2744 5.37359 10.1547L3.37701 10.0377ZM3.64188 10.8606C3.40514 11.1972 3.25191 11.636 3.29606 12.1223L5.28787 11.9414C5.28993 11.9642 5.28697 11.9839 5.28303 11.9974C5.2794 12.0098 5.27592 12.0138 5.27773 12.0112L3.64188 10.8606ZM3.29645 12.1265L3.30274 12.1926L5.29376 12.0033L5.28747 11.9372L3.29645 12.1265ZM3.30235 12.1884C3.28258 11.9708 3.41416 11.8115 3.54677 11.7529L4.35416 13.5827C4.93837 13.3249 5.35861 12.7172 5.29415 12.0075L3.30235 12.1884ZM3.54683 11.7529C1.48681 12.6617 1.10219 14.9365 1.51726 16.6595L3.46164 16.1911C3.16027 14.9401 3.55634 13.9347 4.3541 13.5828L3.54683 11.7529ZM1.51721 16.6593C1.8889 18.2039 3.01977 19.3275 4.5721 19.6167L4.93835 17.6505C4.20131 17.5132 3.65848 17.0091 3.4617 16.1913L1.51721 16.6593ZM4.57192 19.6166C4.53138 19.6091 4.5024 19.5918 4.48616 19.5781C4.47112 19.5654 4.4659 19.5553 4.46414 19.5513L6.29779 18.7527C6.06811 18.2253 5.58794 17.7716 4.93853 17.6505L4.57192 19.6166ZM4.46434 19.5517C4.82556 20.38 5.56528 21.6395 6.1147 22.2689L7.62133 20.9535C7.24478 20.5222 6.60401 19.4548 6.29758 18.7522L4.46434 19.5517ZM6.11504 22.2692C6.52971 22.7437 6.84688 23.2438 7.05433 23.7802L8.91969 23.0588C8.61416 22.2688 8.16169 21.5718 7.62099 20.9532L6.11504 22.2692ZM7.05429 23.7801C7.00989 23.6653 7.07199 23.5656 7.15562 23.5335L7.87235 25.4007C8.79029 25.0483 9.28631 24.0072 8.91974 23.0589L7.05429 23.7801ZM7.15559 23.5335C6.30153 23.8614 5.41558 24.3188 4.70618 25.0259L6.11802 26.4424C6.55032 26.0116 7.14863 25.6785 7.87238 25.4006L7.15559 23.5335ZM4.97749 24.8335C3.36787 25.6103 1.45706 26.7554 0.384597 28.5713L2.10667 29.5884C2.86065 28.3118 4.30153 27.3804 5.84671 26.6348L4.97749 24.8335ZM0.384642 28.5712C-0.367042 29.8437 -0.744304 31.6197 -0.539828 33.1099L1.44161 32.838C1.3002 31.8075 1.57752 30.4841 2.10663 29.5885L0.384642 28.5712ZM0.586496 33.9647L1.6189 33.8234L1.34769 31.8419L0.315281 31.9832L0.586496 33.9647ZM2.47921 32.7423C2.41717 32.0586 2.54521 31.3016 2.79484 30.5844L0.905978 29.927C0.590388 30.8337 0.392987 31.8826 0.487388 32.923L2.47921 32.7423ZM2.79496 30.5841C3.10724 29.6858 3.93007 28.9667 4.97437 28.308L3.90744 26.6164C2.79836 27.3159 1.45583 28.3454 0.905862 29.9273L2.79496 30.5841ZM3.46863 27.2284C2.89007 29.6341 3.94121 32.43 6.65568 33.2197L7.2144 31.2994C5.77166 30.8796 5.01962 29.3325 5.41318 27.696L3.46863 27.2284ZM6.65565 33.2197C9.30775 33.9914 11.7531 32.5668 12.8979 30.3857L11.1269 29.4562C10.3391 30.9573 8.78791 31.7572 7.21443 31.2994L6.65565 33.2197ZM12.8981 30.3852C12.8209 30.5324 12.6563 30.6351 12.4653 30.6193L12.6303 28.6261C11.9952 28.5735 11.4106 28.9151 11.1267 29.4567L12.8981 30.3852ZM12.464 30.6192C12.7944 30.647 13.1236 30.6494 13.4523 30.6278L13.3213 28.6321C13.0898 28.6473 12.8604 28.6455 12.6316 28.6263L12.464 30.6192ZM13.4509 30.6279C13.2624 30.64 13.1019 30.538 13.0257 30.3936L14.7949 29.4609C14.5153 28.9304 13.946 28.592 13.3227 28.632L13.4509 30.6279ZM13.0251 30.3924C14.1847 32.5991 16.6833 34.0186 19.3483 33.1947L18.7575 31.2839C17.1759 31.7729 15.5913 30.9763 14.7955 29.462L13.0251 30.3924ZM19.3482 33.1947C22.0498 32.3596 23.0489 29.5186 22.4248 27.1341L20.49 27.6404C20.9148 29.2636 20.1857 30.8424 18.7575 31.2839L19.3482 33.1947ZM20.9336 28.2391C21.998 28.8936 22.8674 29.6149 23.1992 30.508L25.074 29.8115C24.4891 28.2371 23.0859 27.2147 21.9812 26.5354L20.9336 28.2391ZM23.1992 30.5082C23.469 31.2341 23.6171 32.0453 23.5421 32.722L25.5299 32.9424C25.65 31.8596 25.4131 30.7238 25.0739 29.8114L23.1992 30.5082ZM24.4004 33.823L25.4328 33.9643L25.704 31.9827L24.6716 31.8414L24.4004 33.823ZM26.56 33.1029C26.5791 32.9568 26.76 31.4646 26.0633 29.4834L24.1765 30.1468C24.455 30.9386 24.5541 31.6221 24.5839 32.1047C24.5988 32.3458 24.5963 32.5358 24.5905 32.6626C24.5876 32.7259 24.5839 32.7734 24.5811 32.8035C24.5798 32.8185 24.5786 32.8293 24.5779 32.8356C24.5772 32.8414 24.5769 32.844 24.5768 32.8442L26.56 33.1029ZM26.0632 29.483C25.9815 29.251 25.93 29.1048 25.9012 29.0231C25.8869 28.9823 25.8781 28.9573 25.874 28.9457C25.873 28.9429 25.8721 28.9403 25.8714 28.9384C25.8712 28.9379 25.871 28.9372 25.8707 28.9365C25.8705 28.936 25.8699 28.9343 25.8692 28.9323C25.8687 28.9309 25.8672 28.9268 25.8662 28.9241C25.8626 28.9144 24.6497 28.3111 23.9464 29.46C23.96 29.5205 23.979 29.5853 23.9808 29.5907C23.9815 29.5927 23.9825 29.5958 23.9829 29.5969C23.9835 29.5986 23.984 29.6001 23.9842 29.6006C23.9844 29.6013 23.9846 29.6019 23.9848 29.6024C23.9852 29.6034 23.9856 29.6045 23.9859 29.6056C23.9867 29.6078 23.9877 29.6106 23.9889 29.614C24.0074 29.6667 24.0868 29.8924 24.1667 30.1197C24.2467 30.347 24.3277 30.5771 24.3495 30.6389C24.3521 30.6463 24.3542 30.6524 24.3554 30.6557C24.3556 30.6562 24.3558 30.6569 24.3561 30.6578C24.3563 30.6582 24.3566 30.6591 24.3568 30.6596C24.3571 30.6604 24.3578 30.6623 24.3582 30.6635C24.359 30.6658 24.3623 30.6747 24.3649 30.6813C24.4869 30.907 25.8579 31.151 26.2516 30.0207C26.2491 30.0129 26.2457 30.0026 26.2449 30.0001C26.2444 29.9988 26.2438 29.9968 26.2435 29.996C26.2427 29.9938 26.242 29.9917 26.2418 29.9912C26.2414 29.9901 26.241 29.989 26.2406 29.9878C26.2375 29.9788 26.2297 29.9567 26.2166 29.9195C26.1903 29.8446 26.1417 29.7063 26.0633 29.4834L24.1765 30.1468C24.2549 30.3697 24.3035 30.5078 24.3297 30.5825C24.3429 30.6201 24.3503 30.641 24.353 30.6488C24.3533 30.6497 24.3535 30.6502 24.3536 30.6504C24.3538 30.6512 24.3534 30.6499 24.3528 30.6482C24.3526 30.6475 24.3519 30.6456 24.3515 30.6444C24.3507 30.6419 24.3473 30.6317 24.3448 30.6239C24.7385 29.4937 26.1095 29.7377 26.2315 29.9633C26.2341 29.9699 26.2373 29.9788 26.2382 29.981C26.2386 29.9821 26.2392 29.984 26.2394 29.9846C26.2396 29.985 26.2399 29.9857 26.2399 29.986C26.24 29.9862 26.2401 29.9865 26.2402 29.9866C26.2402 29.9866 26.2402 29.9868 26.2402 29.9868C26.2402 29.9868 26.2401 29.9865 26.2399 29.9858C26.2396 29.9851 26.2393 29.9842 26.2389 29.983C26.2381 29.9807 26.237 29.9777 26.2357 29.9739C26.2142 29.9129 26.1335 29.6835 26.0534 29.4559C25.9732 29.2282 25.8942 29.0035 25.876 28.9516C25.8749 28.9484 25.8741 28.9461 25.8735 28.9445C25.8732 28.9437 25.8731 28.9433 25.873 28.9431C25.873 28.943 25.8731 28.9432 25.8732 28.9435C25.8732 28.9436 25.8736 28.9447 25.8741 28.9463C25.8745 28.9473 25.8755 28.9503 25.8762 28.9523C25.8779 28.9576 25.897 29.0224 25.9105 29.0829C25.2072 30.2318 23.9944 29.6285 23.9908 29.6189C23.9898 29.6161 23.9883 29.6121 23.9878 29.6109C23.9872 29.609 23.9866 29.6076 23.9866 29.6075C23.9865 29.6071 23.9864 29.607 23.9865 29.607C23.9866 29.6074 23.9871 29.6088 23.9881 29.6116C23.9919 29.6223 24.0004 29.6466 24.0148 29.6875C24.0435 29.769 24.095 29.9151 24.1767 30.1471L26.0632 29.483ZM10.3865 25.3332C10.3865 24.9391 10.3537 24.5508 10.2925 24.1706L8.31791 24.4881C8.36294 24.7682 8.38647 25.0503 8.38647 25.3332H10.3865ZM10.2923 24.1689C10.3526 24.5398 9.97363 24.8987 9.56987 24.731L10.3368 22.8839C9.23648 22.4271 8.13683 23.3745 8.31819 24.4899L10.2923 24.1689ZM9.57032 24.7312C10.2865 25.0281 11.046 25.2366 11.8364 25.3412L12.0989 23.3585C11.4864 23.2774 10.8958 23.1157 10.3363 22.8837L9.57032 24.7312ZM11.8366 25.3412C11.5318 25.3009 11.25 25.0151 11.2931 24.6337L13.2805 24.8584C13.3683 24.0818 12.7979 23.451 12.0987 23.3585L11.8366 25.3412ZM11.2933 24.6321C11.1743 25.6699 10.9783 26.716 10.7061 27.6395L12.6244 28.205C12.9361 27.148 13.1512 25.9853 13.2803 24.8601L11.2933 24.6321ZM10.7062 27.6391C10.7962 27.3342 11.1527 27.1194 11.5084 27.2781L10.6935 29.1046C11.5074 29.4677 12.3923 28.9913 12.6243 28.2054L10.7062 27.6391ZM11.5086 27.2782C11.0543 27.0754 10.6421 26.7842 10.2988 26.4243L8.85164 27.8047C9.37389 28.3522 10.0005 28.7952 10.6933 29.1045L11.5086 27.2782ZM10.2971 26.4225C10.3377 26.4648 10.3659 26.5284 10.3636 26.6009L8.36457 26.5391C8.34976 27.0176 8.53201 27.4713 8.85337 27.8065L10.2971 26.4225ZM10.3635 26.6032C10.3712 26.3724 10.3769 26.0552 10.3807 25.8008C10.3826 25.6725 10.384 25.5583 10.385 25.476C10.3855 25.4349 10.3858 25.4018 10.3861 25.3788C10.3862 25.3674 10.3863 25.3584 10.3863 25.3524C10.3864 25.3493 10.3864 25.347 10.3864 25.3454C10.3864 25.3446 10.3864 25.344 10.3864 25.3436C10.3864 25.3434 10.3864 25.3432 10.3864 25.3431C10.3864 25.343 10.3864 25.343 10.3864 25.343C10.3864 25.3429 10.3864 25.3429 10.3864 25.3429C10.3864 25.3429 10.3864 25.3429 9.38647 25.3332C8.38652 25.3235 8.38652 25.3235 8.38652 25.3235C8.38652 25.3235 8.38652 25.3235 8.38652 25.3235C8.38652 25.3235 8.38652 25.3235 8.38652 25.3236C8.38652 25.3237 8.38652 25.3238 8.38652 25.324C8.38651 25.3243 8.38651 25.3248 8.3865 25.3256C8.38649 25.327 8.38646 25.3292 8.38643 25.3321C8.38638 25.3379 8.38629 25.3465 8.38617 25.3576C8.38593 25.3799 8.38558 25.4123 8.38511 25.4526C8.38416 25.5333 8.38275 25.6455 8.38089 25.7712C8.37713 26.0248 8.37164 26.326 8.36464 26.5368L10.3635 26.6032ZM12.0121 21.7972C12.227 21.8861 12.4641 21.9367 12.7131 21.9367V19.9367C12.7366 19.9367 12.7587 19.9417 12.7767 19.9491L12.0121 21.7972ZM12.7131 21.9367H13.2059V19.9367H12.7131V21.9367ZM13.2059 21.9367C13.4566 21.9367 13.6925 21.8852 13.9042 21.7983L13.1449 19.948C13.1592 19.9422 13.1805 19.9367 13.2059 19.9367V21.9367ZM12.5246 20.8732V21.1891H14.5246V20.8732H12.5246ZM12.5246 21.1891C12.5246 21.087 12.5753 20.9443 12.6954 20.8409C12.7949 20.7553 12.8943 20.7362 12.9575 20.736C13.0208 20.7359 13.1219 20.7547 13.2231 20.8417C13.3452 20.9467 13.3946 21.0901 13.3946 21.1891H11.3946C11.3946 21.6539 11.5852 22.071 11.9192 22.3582C12.2322 22.6274 12.6159 22.7368 12.9616 22.736C13.3074 22.7353 13.6893 22.6245 14.0006 22.3564C14.3325 22.0705 14.5246 21.6546 14.5246 21.1891H12.5246ZM13.3946 21.1883L13.3944 20.8724L11.3944 20.8739L11.3946 21.1898L13.3946 21.1883ZM16.6312 25.3332C15.6313 25.3488 15.6313 25.3488 15.6313 25.3488C15.6313 25.3488 15.6313 25.3489 15.6313 25.3489C15.6313 25.3489 15.6313 25.349 15.6313 25.349C15.6313 25.3491 15.6313 25.3493 15.6313 25.3495C15.6313 25.35 15.6313 25.3506 15.6313 25.3514C15.6313 25.353 15.6314 25.3554 15.6314 25.3585C15.6315 25.3647 15.6317 25.3738 15.6319 25.3854C15.6323 25.4087 15.6328 25.4424 15.6336 25.4841C15.6351 25.5676 15.6374 25.6836 15.6403 25.814C15.646 26.0719 15.6545 26.3958 15.6655 26.6337L17.6634 26.5417C17.6536 26.3296 17.6455 26.0263 17.6398 25.7694C17.6369 25.6424 17.6348 25.5292 17.6333 25.4477C17.6325 25.407 17.632 25.3743 17.6316 25.3518C17.6314 25.3406 17.6313 25.332 17.6312 25.3262C17.6311 25.3232 17.6311 25.3211 17.6311 25.3196C17.6311 25.3189 17.631 25.3184 17.631 25.318C17.631 25.3178 17.631 25.3177 17.631 25.3176C17.631 25.3176 17.631 25.3176 17.631 25.3176C17.631 25.3176 17.631 25.3176 17.631 25.3176C17.631 25.3176 17.631 25.3176 16.6312 25.3332ZM15.6654 26.6322C15.6619 26.554 15.6926 26.4906 15.7304 26.4517L17.1645 27.8457C17.4943 27.5065 17.6856 27.0395 17.6635 26.5432L15.6654 26.6322ZM15.7316 26.4505C15.3681 26.8233 14.9282 27.12 14.4439 27.3185L15.2023 29.1691C15.9391 28.8671 16.6083 28.4161 17.1634 27.8469L15.7316 26.4505ZM14.444 27.3184C14.7911 27.1762 15.1364 27.3839 15.2263 27.684L13.3104 28.2579C13.5418 29.0305 14.3992 29.498 15.2021 29.1692L14.444 27.3184ZM15.2264 27.6844C14.9476 26.7524 14.7479 25.6917 14.6268 24.6377L12.6398 24.8661C12.771 26.0078 12.9903 27.188 13.3103 28.2575L15.2264 27.6844ZM14.6269 24.6386C14.6712 25.0276 14.3816 25.3189 14.0669 25.3552L13.838 23.3683C13.1313 23.4497 12.5507 24.0842 12.6397 24.8652L14.6269 24.6386ZM14.068 25.3551C14.8948 25.2588 15.691 25.0495 16.4413 24.7393L15.6771 22.891C15.0954 23.1316 14.4785 23.2938 13.8369 23.3685L14.068 25.3551ZM16.4401 24.7398C16.0542 24.8988 15.6623 24.5605 15.7243 24.1769L17.6986 24.4963C17.8818 23.364 16.765 22.4429 15.6783 22.8905L16.4401 24.7398ZM15.7238 24.1799C15.6639 24.5577 15.6317 24.9423 15.6312 25.3318L17.6312 25.3346C17.6315 25.0537 17.6548 24.7729 17.6991 24.4933L15.7238 24.1799ZM12.974 8.25054C15.3135 8.25054 16.8947 9.0651 17.8974 9.86434L19.144 8.30035C17.8347 7.25682 15.8239 6.25054 12.974 6.25054V8.25054ZM17.8975 9.86443C17.1261 9.24975 17.8324 8.09931 18.7002 8.39483L18.0554 10.2881C19.2444 10.693 20.1811 9.12677 19.1439 8.30026L17.8975 9.86443ZM18.7016 8.39531C14.9653 7.11666 11.0416 7.10891 7.30002 8.37714L7.94205 10.2713C11.2647 9.14504 14.7349 9.15171 18.054 10.2876L18.7016 8.39531ZM7.30026 8.37706C8.1903 8.07563 8.85267 9.24487 8.10427 9.84518L6.85286 8.28506C5.84094 9.09675 6.73145 10.6813 7.9418 10.2714L7.30026 8.37706ZM8.10377 9.84558C9.09089 9.05482 10.6499 8.25054 12.974 8.25054V6.25054C10.1414 6.25054 8.15084 7.24528 6.85336 8.28466L8.10377 9.84558ZM4.41432 15.5453C4.37626 15.0709 4.49378 14.8212 4.60327 14.6967C4.70897 14.5766 4.92915 14.4343 5.39191 14.4245L5.34977 12.425C4.47494 12.4434 3.66504 12.7354 3.10176 13.3756C2.54228 14.0114 2.35194 14.8479 2.42073 15.7053L4.41432 15.5453ZM5.16403 14.4031C5.35901 14.4443 5.51517 14.4371 5.63596 14.4242L5.42372 12.4355C5.41395 12.4365 5.43606 12.4337 5.47164 12.4344C5.51226 12.4353 5.54916 12.4403 5.57765 12.4464L5.16403 14.4031ZM5.41955 14.4238C6.51201 14.545 7.50332 13.7223 7.56607 12.5916L5.56915 12.4808C5.56914 12.4809 5.56973 12.4752 5.57368 12.4674C5.57719 12.4605 5.58188 12.4548 5.58708 12.4503C5.59673 12.4422 5.6158 12.4333 5.64012 12.436L5.41955 14.4238ZM7.56608 12.5916L7.62288 11.5675L5.62595 11.4567L5.56914 12.4808L7.56608 12.5916ZM7.62288 11.5674C7.62495 11.53 7.6491 11.4938 7.68993 11.478L6.96865 9.61261C6.20032 9.9097 5.67182 10.6287 5.62594 11.4568L7.62288 11.5674ZM7.68978 11.4781C9.39578 10.8188 11.1925 10.4226 12.974 10.4226V8.42256C10.8999 8.42256 8.85752 8.88262 6.9688 9.61255L7.68978 11.4781ZM12.974 10.4226C14.7699 10.4226 16.5821 10.825 18.3011 11.4938L19.0262 9.62987C17.1239 8.8898 15.0646 8.42256 12.974 8.42256V10.4226ZM18.301 11.4937C18.3412 11.5094 18.3654 11.5455 18.3675 11.5829L20.3644 11.472C20.3186 10.6462 19.7924 9.92804 19.0263 9.6299L18.301 11.4937ZM18.3675 11.5832L18.4238 12.5912L20.4207 12.4796L20.3644 11.4716L18.3675 11.5832ZM18.4238 12.5908C18.4894 13.7742 19.5744 14.622 20.7249 14.3984L20.3432 12.4351C20.3529 12.4332 20.3651 12.4334 20.3767 12.4363C20.3873 12.439 20.3952 12.4433 20.4009 12.4478C20.4066 12.4523 20.4118 12.4582 20.4156 12.4655C20.4176 12.4692 20.419 12.4728 20.4198 12.4759C20.4207 12.479 20.4208 12.4806 20.4207 12.48L18.4238 12.5908ZM20.5227 14.4167C21.025 14.4224 21.2782 14.5672 21.3993 14.6942C21.514 14.8145 21.6421 15.0567 21.6046 15.5489L23.5988 15.7011C23.6676 14.7996 23.4489 13.9455 22.8467 13.314C22.2509 12.6892 21.4171 12.4267 20.5454 12.4168L20.5227 14.4167ZM21.6046 15.5488C21.575 15.9353 21.4845 16.2218 21.3701 16.3965C21.2799 16.5344 21.1711 16.6184 20.9593 16.644L21.1986 18.6296C22.0377 18.5285 22.6535 18.0877 23.0435 17.4919C23.4094 16.9329 23.5548 16.2768 23.5988 15.7012L21.6046 15.5488ZM22.0629 17.8154C22.3287 16.3517 20.4835 15.3857 19.4485 16.5154L20.9231 17.8665C20.7427 18.0634 20.4841 18.0495 20.3467 17.9805C20.2117 17.9128 20.0478 17.7187 20.0951 17.4581L22.0629 17.8154ZM19.449 16.5148C19.1134 16.8805 18.9902 17.3786 18.9317 17.6199C18.8417 17.9919 18.8292 18.112 18.7846 18.2302L20.6558 18.9363C20.7178 18.7722 20.76 18.5998 20.7901 18.469C20.8279 18.305 20.8435 18.223 20.8756 18.0905C20.9033 17.9762 20.9263 17.9001 20.9463 17.8494C20.9684 17.7937 20.9681 17.8175 20.9225 17.8672L19.449 16.5148ZM18.785 18.2292C18.4962 18.9919 18.0747 19.6991 17.54 20.3041L19.0385 21.6286C19.7391 20.836 20.284 19.9182 20.6554 18.9374L18.785 18.2292ZM17.5396 20.3044C16.5477 21.4278 15.1695 22.1648 13.6997 22.3351L13.9299 24.3218C15.9077 24.0926 17.7322 23.108 19.0388 21.6282L17.5396 20.3044ZM13.6997 22.3351C14.1383 22.2843 14.4856 22.6215 14.5007 23.0168L12.5022 23.0935C12.5299 23.8166 13.1658 24.4104 13.9299 24.3218L13.6997 22.3351ZM14.5007 23.0171C14.5004 23.0079 14.5001 22.9982 14.4996 22.9853C14.4992 22.9734 14.4988 22.9584 14.4982 22.9431L12.4996 23.0192C12.5 23.0284 12.5003 23.0381 12.5007 23.051C12.5011 23.0629 12.5016 23.078 12.5022 23.0932L14.5007 23.0171ZM14.4984 22.9495C14.506 23.1882 14.3726 23.3812 14.2038 23.4732L13.2465 21.7172C12.7942 21.9638 12.4816 22.451 12.4994 23.0128L14.4984 22.9495ZM14.2022 23.4741C15.0066 23.0374 15.5679 22.1845 15.5679 21.1889H13.5679C13.5679 21.4103 13.4447 21.6096 13.2481 21.7163L14.2022 23.4741ZM15.5679 21.1889V19.9269H13.5679V21.1889H15.5679ZM15.5679 19.9269C15.5679 20.1199 15.4706 20.3156 15.2861 20.4309L14.2264 18.7348C13.8048 18.9981 13.5679 19.4555 13.5679 19.9269H15.5679ZM15.2891 20.4291C15.4358 20.3366 15.6281 20.2058 15.8058 20.0441C15.966 19.8984 16.2122 19.6415 16.3323 19.2784L14.4335 18.6503C14.4575 18.5777 14.4865 18.5395 14.4891 18.536C14.4929 18.5311 14.4859 18.5411 14.4601 18.5646C14.4061 18.6137 14.3243 18.6731 14.2234 18.7367L15.2891 20.4291ZM16.3322 19.2787C16.6097 18.4409 16.0319 17.4387 15.0142 17.4387V19.4387C14.5453 19.4387 14.3219 18.9873 14.4336 18.65L16.3322 19.2787ZM15.0142 17.4387H10.9864V19.4387H15.0142V17.4387ZM10.9864 17.4387C9.96997 17.4387 9.38908 18.4399 9.66893 19.2803L11.5665 18.6484C11.6797 18.9882 11.4535 19.4387 10.9864 19.4387V17.4387ZM9.66872 19.2797C9.78085 19.6171 9.99981 19.8588 10.1494 20.0012C10.3117 20.1556 10.4865 20.2802 10.6193 20.3683L11.7247 18.7015C11.6821 18.6733 11.643 18.6458 11.6081 18.6192C11.5728 18.5923 11.5465 18.5698 11.5282 18.5523C11.509 18.5341 11.5064 18.5288 11.5127 18.5375C11.5184 18.5453 11.5446 18.5826 11.5667 18.649L9.66872 19.2797ZM10.62 20.3688C10.4481 20.255 10.3529 20.0662 10.3529 19.8743H12.3529C12.3529 19.4091 12.1231 18.9652 11.7239 18.701L10.62 20.3688ZM10.3529 19.8743V21.1893H12.3529V19.8743H10.3529ZM10.3529 21.1893C10.3529 22.1847 10.9137 23.0378 11.7187 23.4746L12.6725 21.7166C12.476 21.61 12.3529 21.4109 12.3529 21.1893H10.3529ZM11.7169 23.4736C11.5494 23.3823 11.4144 23.1894 11.4224 22.9485L13.4213 23.0146C13.44 22.4502 13.1253 21.9635 12.6742 21.7176L11.7169 23.4736ZM11.4221 22.9598C11.4221 22.9598 11.4221 22.9598 11.4221 22.9599C11.4221 22.9599 11.4221 22.9599 11.4221 22.9599C11.4221 22.9599 11.4221 22.96 11.4221 22.9601C11.4221 22.9603 11.4221 22.9605 11.4221 22.9609C11.422 22.9616 11.422 22.9626 11.422 22.964C11.4219 22.9671 11.4217 22.9706 11.4215 22.9763C11.4212 22.9857 11.4204 23.0046 11.42 23.0245L13.4195 23.068C13.4195 23.068 13.4195 23.068 13.4195 23.068C13.4195 23.0679 13.4195 23.0678 13.4195 23.0678C13.4195 23.0676 13.4195 23.0673 13.4195 23.067C13.4196 23.0662 13.4196 23.0652 13.4196 23.0638C13.4198 23.0607 13.4199 23.0573 13.4201 23.0515C13.4204 23.0421 13.4212 23.0233 13.4216 23.0033L11.4221 22.9598ZM11.4204 23.011C11.4347 22.6062 11.7914 22.2717 12.2286 22.327L11.9777 24.3112C12.7426 24.4079 13.3932 23.816 13.4191 23.0816L11.4204 23.011ZM12.2286 22.327C10.7784 22.1436 9.49525 21.4609 8.53571 20.4223L7.06665 21.7794C8.33772 23.1553 10.0487 24.0672 11.9777 24.3112L12.2286 22.327ZM8.5582 20.4475C7.90761 19.6937 7.42427 18.9099 7.13277 18.0169L5.23148 18.6374C5.62293 19.8367 6.26174 20.8477 7.04416 21.7542L8.5582 20.4475ZM7.13276 18.0168C7.12378 17.9893 7.10853 17.9231 7.08049 17.7668C7.05719 17.637 7.02487 17.4447 6.98222 17.2609C6.93977 17.0779 6.87448 16.8437 6.76189 16.6184C6.65034 16.3952 6.45255 16.1007 6.10343 15.9098L5.1439 17.6646C5.00278 17.5875 4.96186 17.4905 4.97286 17.5125C4.98281 17.5324 5.00572 17.5911 5.03396 17.7128C5.06199 17.8337 5.08281 17.9578 5.11193 18.12C5.1363 18.2559 5.17273 18.4575 5.23149 18.6375L7.13276 18.0168ZM6.10278 15.9095C5.48171 15.5705 4.7298 15.713 4.26683 16.2114L5.73224 17.5725C5.59056 17.7251 5.34939 17.7768 5.14455 17.665L6.10278 15.9095ZM4.26539 16.213C3.9638 16.5391 3.86537 16.9132 3.86679 17.2432C3.86787 17.4921 3.936 17.7655 3.94615 17.8159L5.90672 17.4207C5.89895 17.3822 5.89014 17.3411 5.88454 17.3145C5.87812 17.284 5.87386 17.263 5.87064 17.2453C5.86381 17.2079 5.86667 17.2111 5.86678 17.2346C5.8669 17.2631 5.86321 17.3226 5.83717 17.3959C5.81006 17.4722 5.77006 17.5316 5.73368 17.571L4.26539 16.213ZM5.09456 16.6326C4.85099 16.591 4.73691 16.5042 4.65984 16.4024C4.56423 16.2762 4.45241 16.0251 4.41439 15.5462L2.42066 15.7044C2.47644 16.4071 2.65979 17.0743 3.06553 17.61C3.48982 18.1701 4.08329 18.489 4.75831 18.6041L5.09456 16.6326ZM4.41425 15.5444C4.4117 15.513 4.4098 15.4898 4.40849 15.4737C4.40784 15.4658 4.4073 15.4593 4.40688 15.4543C4.40668 15.4518 4.40647 15.4494 4.40628 15.4471C4.40618 15.446 4.40607 15.4446 4.40594 15.4432C4.40583 15.442 4.40562 15.4396 4.40536 15.4368C4.40523 15.4355 4.40499 15.4329 4.40467 15.4297C4.40452 15.4281 4.40415 15.4246 4.40393 15.4225C4.40361 15.4196 4.40277 15.4122 4.40222 15.4077C4.40122 15.3997 4.39755 15.3742 4.39464 15.3566C4.37919 15.2842 3.39677 14.5291 2.45301 15.2376C2.42275 15.3674 2.40963 15.5228 2.40975 15.5455C2.40995 15.5549 2.41043 15.5694 2.41065 15.5745C2.4108 15.5777 2.41108 15.5831 2.4112 15.5854C2.41129 15.587 2.41146 15.5899 2.41154 15.5911C2.41171 15.5938 2.41185 15.596 2.41194 15.5973C2.41211 15.5999 2.41227 15.602 2.41235 15.6032C2.41254 15.6057 2.41272 15.6082 2.41287 15.6101C2.41303 15.6123 2.41321 15.6146 2.4134 15.6171C2.41414 15.6267 2.41526 15.6409 2.41662 15.6582C2.42209 15.7276 2.43219 15.8545 2.44061 15.9598C2.44482 16.0125 2.44862 16.06 2.45123 16.0924C2.45253 16.1085 2.45357 16.1214 2.45423 16.1294C2.45439 16.1314 2.45456 16.1334 2.45471 16.1352C2.45478 16.1361 2.45487 16.1371 2.45496 16.1382C2.45504 16.1391 2.45519 16.1409 2.45538 16.143C2.45546 16.144 2.45565 16.1461 2.45589 16.1487C2.45601 16.15 2.45632 16.1531 2.4565 16.1549C2.45678 16.1577 2.45761 16.1654 2.45816 16.1703C2.45947 16.1811 2.46779 16.2349 2.47657 16.2776C3.46837 17.0551 4.44738 16.146 4.45148 16.0464C4.45123 16.0314 4.45051 16.0103 4.45021 16.0042C4.45004 16.0009 4.44974 15.9955 4.44961 15.9935C4.44937 15.9897 4.44917 15.9867 4.44909 15.9856C4.44899 15.9841 4.4489 15.9829 4.44885 15.9821C4.44873 15.9806 4.44863 15.9792 4.44856 15.9782C4.4483 15.9747 4.44792 15.9699 4.44751 15.9646C4.44707 15.959 4.44651 15.9517 4.4458 15.9427C4.44438 15.9247 4.44237 15.8992 4.43968 15.8651C4.43429 15.797 4.42612 15.6939 4.41439 15.5462L2.42066 15.7044C2.43238 15.8521 2.44053 15.9549 2.4459 16.0228C2.44858 16.0567 2.45056 16.0818 2.45194 16.0994C2.45263 16.1082 2.45316 16.1149 2.45355 16.1199C2.45375 16.1224 2.4539 16.1244 2.45401 16.1258C2.45407 16.1266 2.45411 16.1271 2.45414 16.1276C2.45417 16.128 2.45419 16.1282 2.45419 16.1282C2.45419 16.1281 2.45418 16.128 2.45416 16.1278C2.45415 16.1276 2.45412 16.1272 2.45408 16.1267C2.45405 16.1262 2.45398 16.1253 2.45389 16.1241C2.45383 16.1232 2.45364 16.1204 2.45341 16.1167C2.45329 16.1147 2.45299 16.1094 2.45281 16.1061C2.45252 16.1001 2.4518 16.079 2.45155 16.064C2.45565 15.9644 3.43466 15.0553 4.42646 15.8328C4.43524 15.8755 4.44356 15.9293 4.44486 15.94C4.44541 15.9449 4.44623 15.9525 4.44651 15.9553C4.44669 15.9571 4.44698 15.9601 4.4471 15.9613C4.44733 15.9638 4.44749 15.9656 4.44756 15.9664C4.4477 15.968 4.4478 15.9692 4.44781 15.9692C4.44783 15.9695 4.44783 15.9695 4.44781 15.9693C4.44777 15.9687 4.44768 15.9677 4.44755 15.9662C4.44702 15.9597 4.44608 15.948 4.44478 15.9319C4.44222 15.9001 4.43845 15.853 4.43425 15.8005C4.42585 15.6953 4.41581 15.5693 4.41044 15.5011C4.40909 15.4839 4.40808 15.471 4.40747 15.4632C4.40732 15.4612 4.40721 15.4598 4.40714 15.4588C4.40705 15.4576 4.40705 15.4576 4.4071 15.4583C4.40712 15.4586 4.40722 15.46 4.40736 15.462C4.40743 15.463 4.40756 15.465 4.40771 15.4675C4.40779 15.4687 4.40795 15.4715 4.40804 15.473C4.40816 15.4752 4.40844 15.4805 4.40859 15.4837C4.4088 15.4888 4.40928 15.5032 4.40948 15.5125C4.40959 15.5352 4.39647 15.6906 4.36622 15.8204C3.42246 16.5289 2.44004 15.7738 2.42459 15.7014C2.42168 15.6839 2.41802 15.6584 2.41702 15.6505C2.41649 15.646 2.41565 15.6387 2.41533 15.6358C2.41512 15.6338 2.41476 15.6303 2.41462 15.6289C2.41431 15.6258 2.41409 15.6235 2.41399 15.6224C2.41378 15.6201 2.41363 15.6185 2.41361 15.6182C2.41357 15.6177 2.41355 15.6175 2.41356 15.6177C2.41359 15.618 2.41368 15.619 2.41383 15.6208C2.41413 15.6244 2.41457 15.6298 2.41519 15.6373C2.41643 15.6524 2.41826 15.6749 2.4208 15.7062L4.41425 15.5444ZM7.23657 30.2001C6.80846 29.9986 6.48688 29.5533 6.37493 28.9599C6.26198 28.3613 6.39323 27.754 6.70266 27.3498L5.11458 26.1341C4.40769 27.0575 4.20828 28.2637 4.4096 29.3307C4.61192 30.403 5.24954 31.4753 6.38483 32.0097L7.23657 30.2001ZM6.70201 27.3506C6.65745 27.4087 6.61803 27.4263 6.61749 27.4265L5.78079 25.6099C5.55584 25.7135 5.31017 25.8791 5.11523 26.1332L6.70201 27.3506ZM6.61493 27.4277C6.84285 27.3235 7.06517 27.2282 7.27637 27.1427L6.52559 25.289C6.28847 25.385 6.03916 25.4918 5.78335 25.6088L6.61493 27.4277ZM7.27574 27.143C7.19013 27.1776 7.07865 27.1494 7.02314 27.0462L8.78452 26.0988C8.34487 25.2814 7.36281 24.9505 6.52622 25.2887L7.27574 27.143ZM7.02306 27.046C7.67071 28.2506 8.66642 29.2231 9.85269 29.8524L10.79 28.0857C9.94538 27.6376 9.24038 26.9466 8.7846 26.0989L7.02306 27.046ZM9.85317 29.8527C9.8102 29.8299 9.77939 29.7858 9.77104 29.7354C9.7667 29.7093 9.76721 29.6758 9.77901 29.6384C9.79153 29.5987 9.8138 29.5645 9.83837 29.5411L11.2163 30.9907C12.1578 30.0957 11.8244 28.6337 10.7895 28.0854L9.85317 29.8527ZM9.8391 29.5405C9.51478 29.8481 9.0315 30.1156 8.51506 30.246C7.99374 30.3777 7.54503 30.3451 7.2362 30.1999L6.38519 32.0098C7.23493 32.4094 8.18653 32.3918 9.00489 32.1851C9.82812 31.9772 10.6239 31.5527 11.2156 30.9914L9.8391 29.5405ZM13.592 28.6167C13.6754 28.3458 13.7524 28.07 13.8229 27.7904L11.8835 27.3017C11.8213 27.5486 11.7536 27.791 11.6806 28.028L13.592 28.6167ZM13.8234 27.7886C13.5991 28.6858 12.3202 28.6859 12.0958 27.7886L14.0361 27.3035C13.7555 26.1808 12.1637 26.1809 11.8831 27.3035L13.8234 27.7886ZM12.0965 27.791C12.1674 28.0719 12.2448 28.348 12.3278 28.6187L14.24 28.0326C14.1665 27.7931 14.0982 27.5491 14.0355 27.3011L12.0965 27.791ZM12.3277 28.6185C12.176 28.1229 12.543 27.5891 13.0945 27.5936L13.078 29.5936C13.9112 29.6004 14.4742 28.7975 14.24 28.0328L12.3277 28.6185ZM13.0918 27.5936C13.0132 27.5932 12.9295 27.5921 12.8535 27.5902L12.8036 29.5896C12.8956 29.5918 12.9926 29.5931 13.0807 29.5936L13.0918 27.5936ZM12.8471 27.59C13.3836 27.6 13.7446 28.1223 13.5918 28.6173L11.6807 28.0275C11.4465 28.7865 11.9974 29.5746 12.81 29.5897L12.8471 27.59ZM19.5432 28.8813C19.4702 29.7424 18.811 30.3539 17.8923 30.3784L17.9455 32.3776C19.8115 32.328 21.3711 30.9957 21.5361 29.0503L19.5432 28.8813ZM17.8927 30.3783C17.1867 30.3968 16.5813 30.1142 16.1364 29.6195L14.6493 30.9567C15.4666 31.8657 16.6258 32.4122 17.9451 32.3777L17.8927 30.3783ZM16.137 29.6201C16.1778 29.6655 16.1928 29.7323 16.182 29.787C16.1716 29.8394 16.1372 29.8844 16.0948 29.9059L15.1895 28.1226C14.1432 28.6538 13.8316 30.0458 14.6487 30.9561L16.137 29.6201ZM16.0951 29.9058C17.3195 29.2838 18.3505 28.299 19.0178 27.0695L17.26 26.1155C16.7906 26.9803 16.0608 27.6799 15.1893 28.1227L16.0951 29.9058ZM19.0176 27.0699C18.9728 27.1523 18.8684 27.1949 18.7713 27.1552L19.5285 25.3041C18.6711 24.9533 17.697 25.3111 17.2601 26.1152L19.0176 27.0699ZM18.7701 27.1547C18.9237 27.2177 19.0831 27.2859 19.2469 27.3587L20.0594 25.5312C19.8787 25.4508 19.7015 25.3751 19.5297 25.3046L18.7701 27.1547ZM19.2457 27.3582C19.2416 27.3564 19.2327 27.352 19.2201 27.343C19.2074 27.3339 19.1886 27.3184 19.1677 27.294L20.688 25.9945C20.4997 25.7742 20.2728 25.6264 20.0606 25.5317L19.2457 27.3582ZM19.1681 27.2944C19.4566 27.6315 19.6111 28.0811 19.5432 28.8813L21.5361 29.0503C21.6339 27.8974 21.4266 26.8576 20.6876 25.994L19.1681 27.2944ZM19.5432 28.8812C19.5301 29.0357 19.5216 29.1352 19.5167 29.1931C19.5143 29.2221 19.5127 29.2407 19.5118 29.2507C19.5116 29.2532 19.5115 29.2552 19.5113 29.2568C19.5112 29.2579 19.5111 29.2598 19.511 29.2613C19.5109 29.2616 19.5109 29.2622 19.5108 29.2626C19.5108 29.2633 19.5107 29.2651 19.5106 29.2663C19.5103 29.2694 19.5081 29.3121 19.5076 29.3517C20.4596 30.3425 21.5027 29.4423 21.5032 29.4371C21.5033 29.4355 21.5035 29.4332 21.5036 29.4324C21.5037 29.432 21.5037 29.4312 21.5037 29.4309C21.5038 29.4303 21.5039 29.4297 21.5039 29.4294C21.504 29.4283 21.5041 29.4267 21.5042 29.4253C21.5063 29.401 21.518 29.2638 21.5301 29.1213C21.5422 28.9787 21.5549 28.83 21.5589 28.7823C21.5594 28.7764 21.5598 28.7718 21.56 28.769C21.5601 28.768 21.5603 28.766 21.5604 28.7644C21.5605 28.7641 21.5605 28.7633 21.5606 28.7628C21.5606 28.7621 21.5608 28.76 21.5609 28.7585C21.5612 28.7545 21.5601 28.5963 21.535 28.4442C20.4954 27.6847 19.5687 28.5838 19.5682 28.5886C19.5681 28.5901 19.5678 28.5924 19.5678 28.5932C19.5677 28.5937 19.5677 28.5945 19.5676 28.5948C19.5676 28.5955 19.5675 28.596 19.5675 28.5964C19.5673 28.5984 19.567 28.6024 19.5665 28.6076C19.5661 28.6131 19.5654 28.6208 19.5645 28.6309C19.5611 28.6712 19.5544 28.7501 19.5432 28.881L21.536 29.0507C21.5472 28.9198 21.5539 28.841 21.5573 28.8009C21.5582 28.7908 21.5588 28.7833 21.5593 28.7779C21.5595 28.7753 21.5597 28.7732 21.5598 28.7717C21.5599 28.77 21.56 28.7694 21.56 28.7694C21.56 28.7695 21.56 28.7698 21.5599 28.7703C21.5599 28.7705 21.5598 28.7712 21.5598 28.7716C21.5597 28.7724 21.5595 28.7746 21.5594 28.7762C21.5589 28.7809 20.6322 29.68 19.5926 28.9205C19.5675 28.7684 19.5664 28.6102 19.5667 28.6062C19.5668 28.6048 19.567 28.6027 19.567 28.602C19.5671 28.6016 19.5671 28.6009 19.5671 28.6007C19.5672 28.5998 19.5672 28.5994 19.5671 28.6011C19.5669 28.6034 19.5666 28.6075 19.5661 28.6134C19.562 28.6607 19.5494 28.8091 19.5373 28.9519C19.5251 29.0948 19.5135 29.2311 19.5115 29.2546C19.5115 29.2553 19.5114 29.2558 19.5114 29.2562C19.5114 29.2567 19.5113 29.2568 19.5113 29.2567C19.5113 29.2567 19.5114 29.2564 19.5114 29.256C19.5114 29.2557 19.5115 29.255 19.5115 29.2546C19.5116 29.2539 19.5118 29.2517 19.5119 29.2501C19.5125 29.2449 20.5556 28.3448 21.5075 29.3355C21.5071 29.3751 21.5048 29.4178 21.5046 29.4209C21.5045 29.4221 21.5043 29.4238 21.5043 29.4244C21.5043 29.4247 21.5042 29.4253 21.5042 29.4255C21.5041 29.4263 21.5041 29.4264 21.5043 29.4247C21.5044 29.4235 21.5045 29.4217 21.5047 29.4193C21.5055 29.4096 21.5071 29.3912 21.5096 29.3622C21.5145 29.3044 21.5229 29.2049 21.536 29.0505L19.5432 28.8812Z" fill="black" mask="url(#path-1-inside-1_322_410)"/>
<path d="M8.94677 13.1198C7.60357 13.114 7.59261 15.1997 8.93745 15.2056C10.2811 15.2114 10.2916 13.1256 8.94677 13.1198Z" fill="black"/>
<path d="M17.0497 13.1508C15.7065 13.1449 15.6955 15.2307 17.0404 15.2366C18.384 15.2424 18.3945 13.1566 17.0497 13.1508Z" fill="black"/>
<path d="M15.4073 12.2574H18.451C19.1221 12.2574 19.123 11.2145 18.451 11.2145H15.4073C14.7361 11.2145 14.7352 12.2574 15.4073 12.2574Z" fill="black"/>
<path d="M8.09925 12.2575L11.109 12.2705C11.8635 12.2735 12.4752 12.8904 12.472 13.6456L12.4648 15.48C12.4638 15.7083 12.2785 15.8929 12.0502 15.8929H11.9922C11.321 15.8929 11.3202 16.9358 11.9922 16.9358H13.9723C14.6435 16.9358 14.6444 15.8929 13.9723 15.8929H13.9218C13.6923 15.8929 13.5068 15.7062 13.5072 15.4767L13.5144 13.6495C13.5196 12.3199 12.4417 11.2332 11.1132 11.2273L8.10394 11.2143C7.43744 11.2145 7.4223 12.2537 8.09928 12.2574L8.09925 12.2575Z" fill="black"/>
<g style="mix-blend-mode:darken">
<path d="M0.977529 33C0.595862 31.4733 1.35209 27.9266 7.27503 25.5575C7.39218 25.5106 8.37584 26.429 9.34062 27.328L11.2825 28.9925C15.29 30.1375 18.4388 25.0208 19.2975 25.5575C20.8242 26.5117 25.9386 30.252 25.0226 33H0.977529Z" fill="#55779B"/>
</g>
</svg>
