<svg width="29" height="27" viewBox="0 0 29 27" fill="none" xmlns="http://www.w3.org/2000/svg">
<path d="M28.5469 0H0.453125C0.202896 0 0 0.202896 0 0.453125V25.8281C0 25.9483 0.0477402 26.0636 0.132701 26.1485C0.217662 26.2335 0.332967 26.2812 0.453125 26.2812H28.5469C28.667 26.2812 28.7823 26.2335 28.8673 26.1485C28.9523 26.0636 29 25.9483 29 25.8281V0.453125C29 0.332967 28.9523 0.217661 28.8673 0.132701C28.7823 0.0477412 28.667 0 28.5469 0ZM28.0938 25.375H0.90625V0.90625H28.0938V25.375Z" fill="black"/>
<path d="M3.17194 19.9375H25.8282C25.9483 19.9375 26.0636 19.8898 26.1486 19.8048C26.2336 19.7199 26.2813 19.6046 26.2813 19.4844V3.17191C26.2813 3.05175 26.2336 2.93644 26.1486 2.85148C26.0636 2.76652 25.9483 2.71878 25.8282 2.71878H3.17194C2.92171 2.71878 2.71881 2.92168 2.71881 3.17191V19.4844C2.71881 19.6046 2.76655 19.7199 2.85151 19.8048C2.93647 19.8898 3.05178 19.9375 3.17194 19.9375ZM19.4844 19.0313H9.51569V16.4214L9.84643 15.7599L12.5652 14.5773L14.0469 16.0452V17.672H14.9532V16.0452L16.4259 14.5725L19.1446 15.7551L19.4844 16.4214L19.4844 19.0313ZM13.5125 8.6094H15.488C15.7389 9.09672 16.2203 9.4228 16.7659 9.4748V9.96879C16.7659 11.224 16.1724 12.6875 14.5003 12.6875C12.8282 12.6875 12.2346 11.224 12.2346 9.96879V9.4748C12.7802 9.42281 13.2617 9.09672 13.5125 8.6094ZM12.2346 8.54588V6.5568C12.8987 6.0972 13.6931 5.86375 14.5003 5.89068C15.3074 5.86377 16.1018 6.09721 16.7659 6.5568V8.54609C16.5393 8.48723 16.3128 8.37395 16.3128 8.15649V8.15628C16.3128 8.03613 16.265 7.92082 16.1801 7.83586C16.0951 7.7509 15.9798 7.70316 15.8596 7.70316H13.1409C12.8907 7.70316 12.6878 7.90606 12.6878 8.15628C12.6878 8.36929 12.4612 8.48258 12.2346 8.54589V8.54588ZM15.7872 13.9337L14.5003 15.2206L13.2133 13.9337L13.3854 13.3944H13.3856C14.1015 13.662 14.8899 13.662 15.6059 13.3944L15.7872 13.9337ZM25.3754 19.0314H20.391V17.672H25.3754V19.0314ZM3.62537 3.6251H25.3754V16.7657H20.391V16.3126C20.3906 16.2416 20.3734 16.1718 20.3412 16.1087L19.8881 15.2024C19.84 15.107 19.7597 15.0315 19.6615 14.9894L16.6574 13.6889L16.4126 12.9322V12.9324C17.261 12.1872 17.7244 11.0969 17.6722 9.96886V6.34386C17.6728 6.2235 17.6257 6.10759 17.5407 6.02222C16.6939 5.30613 15.6083 4.93576 14.5003 4.98449C13.3924 4.93574 12.3067 5.30612 11.4599 6.02222C11.375 6.10759 11.3279 6.2235 11.3285 6.34386V9.96886C11.2751 11.096 11.7369 12.1863 12.5836 12.9324L12.3389 13.6891L9.33468 14.9894C9.23637 15.0315 9.15606 15.107 9.10811 15.2024L8.65499 16.1087C8.62424 16.1722 8.60867 16.242 8.60968 16.3126V16.7657H3.6253L3.62537 3.6251ZM3.62537 17.672H8.60975V19.0314H3.62537V17.672Z" fill="black"/>
<path d="M3.17194 24.0156H5.89069C6.01084 24.0156 6.12615 23.9679 6.21111 23.8829C6.29607 23.798 6.34381 23.6827 6.34381 23.5625V21.75C6.34381 21.6298 6.29607 21.5145 6.21111 21.4296C6.12615 21.3446 6.01084 21.2969 5.89069 21.2969H3.17194C2.92171 21.2969 2.71881 21.4998 2.71881 21.75V23.5625C2.71881 23.6827 2.76655 23.798 2.85151 23.8829C2.93647 23.9679 3.05178 24.0156 3.17194 24.0156ZM3.62506 22.2031H5.43756V23.1094H3.62506V22.2031Z" fill="black"/>
<path d="M7.25006 21.2969H8.15631V22.2031H7.25006V21.2969Z" fill="black"/>
<path d="M9.0625 21.2969H9.96875V22.2031H9.0625V21.2969Z" fill="black"/>
<path d="M7.25006 23.1094H12.6876V24.0157H7.25006V23.1094Z" fill="black"/>
<path d="M4.53125 4.98438V6.79688H5.4375V5.4375H6.79688V4.53125H4.98438C4.73415 4.53125 4.53125 4.73415 4.53125 4.98438Z" fill="black"/>
<path d="M4.53125 7.70312H5.4375V8.60938H4.53125V7.70312Z" fill="black"/>
<g style="mix-blend-mode:multiply">
<path d="M3 3H26V20H19.9404L19.8106 15.7372L16.2798 13.9667L15.9191 13.307L17.468 9.89958L17.2308 6.24793L14.6039 5.2553L11.8923 6.24793L11.9693 9.08329L11.665 10.5191L13.1312 12.9146L12.6192 13.9667L9.58163 15.3167L9.03643 16.3033V20H3V3Z" fill="#539968"/>
</g>
<g style="mix-blend-mode:darken">
<path d="M14.4613 15.7585L12.7755 14.1794L9.70268 15.2036L9.0625 16.3346V19.4075H19.9242L19.7535 15.5877L16.3178 14.0086L14.4613 15.7585Z" fill="#FF9F10"/>
</g>
<g style="mix-blend-mode:darken">
<path d="M14.3559 5.32608L11.9163 6.27479L12.0149 9.15788L13.1114 8.2215L15.514 8.07365L16.2902 8.94843L17.3252 9.15788V6.27479L14.3559 5.32608Z" fill="#D94746"/>
</g>
</svg>
