<svg width="38" height="29" viewBox="0 0 38 29" fill="none" xmlns="http://www.w3.org/2000/svg">
<path d="M7.237 9.5256L1.55426 15.4485L2.63474 16.9292L6.55662 12.8873V19.6505H13.9602V12.8873L18.0821 16.6891L19.3628 15.4485L13.3199 9.5256H7.237Z" fill="#55779B"/>
<path d="M25.4321 9.51437L19.0517 14.3303L20.1517 15.7237L24.9187 12.1301L21.8629 19.7083L21.594 21.3217H33.2791L34.0369 20.9062L30.7123 12.3257L35.2592 15.7237L36.6038 14.3303L30.1256 9.51437H25.4321Z" fill="#D94746"/>
<path d="M10.3614 8.29842C11.4044 8.30118 12.4046 7.88264 13.1345 7.13763C13.8643 6.39243 14.2625 5.38415 14.2386 4.34147C14.2142 3.29318 13.7826 2.29579 13.0348 1.5609C12.287 0.825999 11.2821 0.41171 10.2338 0.405653C9.19061 0.402885 8.19064 0.821431 7.46051 1.56644C6.73064 2.31164 6.33246 3.31992 6.35636 4.3626C6.38078 5.41089 6.81266 6.40828 7.56045 7.14317C8.30823 7.87807 9.3129 8.29236 10.3614 8.29842ZM8.26873 2.35294C8.78594 1.82491 9.49491 1.5292 10.2339 1.53319C10.9871 1.53772 11.7092 1.83571 12.2466 2.36402C12.7836 2.8923 13.0937 3.60934 13.1108 4.36267C13.1295 5.10285 12.8476 5.81893 12.3296 6.34771C11.8116 6.87675 11.1019 7.17371 10.3614 7.17094C9.60792 7.16641 8.88585 6.86842 8.34876 6.34011C7.81142 5.81183 7.50111 5.09479 7.48397 4.34147C7.46559 3.59974 7.74874 2.88224 8.26873 2.35294Z" fill="black"/>
<path d="M21.912 7.56851C21.9239 7.56851 21.9359 7.56624 21.948 7.56549H21.9478C22.206 7.60701 22.467 7.62891 22.7285 7.63142C23.253 7.66616 23.7715 7.50256 24.1807 7.17286C24.3493 7.02084 24.4829 6.83434 24.572 6.6257C25.3221 7.67122 26.5278 8.29336 27.8145 8.29864C28.8564 8.30342 29.8556 7.88589 30.5842 7.14114C30.6761 7.04752 30.7631 6.94936 30.8449 6.84718C30.9207 6.96774 31.0128 7.07747 31.1188 7.17286C31.5283 7.50256 32.0467 7.66615 32.5712 7.63142C32.8322 7.62891 33.0927 7.60701 33.3505 7.56574C33.3646 7.56674 33.3784 7.56926 33.3925 7.56926C33.6291 7.57102 33.8417 7.42479 33.9248 7.20306C33.9771 7.06439 33.9719 6.91035 33.91 6.77571C33.848 6.6408 33.7348 6.53636 33.5953 6.48577C33.4896 6.35515 33.5211 5.72291 33.5397 5.34541C33.5848 4.43887 33.6407 3.3103 32.8876 2.64035C32.4479 2.24949 31.8253 2.09521 30.9945 2.1692C30.2507 1.07111 29.013 0.411208 27.6866 0.405924C26.6449 0.401142 25.6454 0.818681 24.9168 1.56342C24.7318 1.75218 24.5667 1.95907 24.4238 2.18105C23.5334 2.08063 22.8727 2.23088 22.4126 2.64037C21.6595 3.31032 21.7154 4.43863 21.7605 5.34543C21.7791 5.7232 21.8106 6.35519 21.7192 6.47522L21.719 6.47497C21.462 6.56884 21.3092 6.83336 21.3568 7.10267C21.4044 7.37222 21.6384 7.56853 21.912 7.56853L21.912 7.56851ZM32.4136 5.28927C32.3796 5.69221 32.3864 6.09768 32.4342 6.49934C32.2334 6.50563 32.0361 6.44724 31.871 6.33248C31.6163 6.1047 31.6452 5.47729 31.6731 4.87048C31.6752 4.82895 31.6769 4.78692 31.6787 4.74515C31.6812 4.71394 31.6807 4.68197 31.6825 4.65051C31.6862 4.55487 31.6895 4.45847 31.691 4.36158C31.691 4.35478 31.6918 4.34849 31.6915 4.34169L31.691 4.33515L31.6915 4.3349C31.7041 3.9833 31.6694 3.63119 31.5881 3.28867C31.7871 3.29496 31.9794 3.36266 32.1382 3.48272C32.4878 3.7938 32.4486 4.58835 32.4136 5.28929L32.4136 5.28927ZM27.6868 1.53341C28.6588 1.53794 29.563 2.03174 30.0923 2.84696L30.0931 2.85073C30.0941 2.85854 30.0934 2.86609 30.0946 2.87389C30.0964 2.88396 30.1004 2.89302 30.1024 2.90283C30.1064 2.92171 30.1115 2.94058 30.1178 2.95896C30.1236 2.97658 30.1303 2.99344 30.1376 3.01005C30.1449 3.02616 30.1527 3.04176 30.1613 3.05737V3.05711C30.1711 3.07448 30.1819 3.09159 30.1935 3.1077C30.2026 3.12054 30.2121 3.13287 30.2225 3.14495C30.2373 3.16207 30.2532 3.17842 30.2698 3.19378C30.2758 3.19931 30.2804 3.20586 30.2866 3.21114C30.2947 3.21794 30.3 3.22801 30.3078 3.2353H30.3075C30.4674 3.5854 30.5542 3.9644 30.5635 4.34925C30.5617 4.45244 30.558 4.55739 30.5537 4.66284H30.5534C30.496 5.34871 30.1822 5.98767 29.6745 6.45254C29.1671 6.91739 28.5029 7.1741 27.8146 7.17107C27.0611 7.16654 26.339 6.86855 25.8017 6.34023C25.2643 5.81192 24.9543 5.09492 24.9371 4.34159C24.9188 3.60141 25.2006 2.88533 25.7186 2.35655C26.2366 1.82751 26.9466 1.53055 27.6868 1.53332L27.6868 1.53341ZM23.1618 3.4827C23.3209 3.36264 23.5129 3.29494 23.712 3.2889C23.605 3.80888 23.5763 4.34196 23.6272 4.87074C23.6548 5.47755 23.6835 6.10498 23.4293 6.33274L23.4291 6.33249C23.2642 6.447 23.0667 6.50564 22.8661 6.49935C22.9136 6.09766 22.9207 5.69222 22.8867 5.28927C22.8517 4.58833 22.8122 3.79377 23.1618 3.4827L23.1618 3.4827Z" fill="black"/>
<path d="M1.93142 17.0367C2.14208 17.2492 2.429 17.3682 2.72798 17.3674C3.03553 17.3667 3.33025 17.2408 3.54294 17.0189L6.02127 14.3052V19.0223C5.99283 19.545 6.20475 20.0519 6.59687 20.3987V27.4216C6.59712 27.7325 6.72095 28.0305 6.94067 28.2504C7.16064 28.4701 7.45863 28.594 7.76944 28.5942H8.8069C9.11773 28.594 9.41572 28.4701 9.63567 28.2504C9.8554 28.0305 9.97922 27.7325 9.97947 27.4216V20.7015H10.5782V27.4216C10.5785 27.7325 10.7023 28.0305 10.922 28.2502C11.1417 28.4699 11.4397 28.5935 11.7505 28.594H12.7854C13.0962 28.5935 13.3942 28.4699 13.6139 28.2502C13.8337 28.0304 13.9572 27.7325 13.9577 27.4216V20.4232C14.2854 20.1672 14.5205 19.7184 14.5205 19.01L14.5202 14.2018L17.3512 17.0363C17.5619 17.2487 17.849 17.3677 18.1483 17.3667C18.4473 17.3677 18.7342 17.2487 18.9446 17.0365L19.5874 16.3935C19.6513 16.328 19.7072 16.2543 19.7532 16.1753C20.1086 16.3104 20.5078 16.2588 20.8171 16.0381L23.5972 13.9456L20.9585 20.3569C20.9475 20.3841 20.9384 20.4121 20.9316 20.4405C20.8513 20.7752 20.9286 21.1281 21.1412 21.3986C21.3539 21.6692 21.6786 21.8275 22.0229 21.8285H24.09V27.4665C24.0902 27.7655 24.209 28.0519 24.4204 28.2633C24.6319 28.4744 24.9183 28.5935 25.217 28.5937H26.3425C26.6413 28.5932 26.9277 28.4744 27.1391 28.263C27.3503 28.0519 27.4691 27.7652 27.4693 27.4665V21.8285H28.0308V27.4665C28.0311 27.7652 28.1501 28.0519 28.3615 28.263C28.5727 28.4744 28.8591 28.5932 29.1578 28.5937H30.2834C30.5821 28.5932 30.8685 28.4744 31.0799 28.263C31.2911 28.0519 31.4099 27.7652 31.4101 27.4665V21.8285H33.4777C33.8218 21.8275 34.1464 21.6692 34.3591 21.3987C34.5718 21.1281 34.6491 20.7752 34.5688 20.4405C34.562 20.4121 34.5532 20.3841 34.5418 20.3569L31.9032 13.9456L34.6974 16.0487C34.9367 16.2165 35.2322 16.2845 35.5211 16.2387C35.81 16.1926 36.0695 16.0358 36.2449 15.802L36.8067 15.1245C36.8165 15.1126 36.8263 15.1003 36.8351 15.0872C37.0068 14.8428 37.0747 14.5406 37.0241 14.2463C36.9778 13.9556 36.8168 13.6956 36.5772 13.5245L31.3135 9.5711C30.8446 9.12738 30.2273 8.87467 29.5819 8.86185H25.9343C25.2948 8.89532 24.6847 9.14146 24.2007 9.56079L18.9393 13.5127C18.8147 13.5995 18.7095 13.7108 18.6297 13.8399L14.4835 9.68766C13.9567 9.15736 13.2397 8.86011 12.4922 8.86192H8.10286C7.35005 8.86091 6.62849 9.16268 6.10048 9.69926L1.2888 14.7991C1.07789 15.0107 0.959595 15.2974 0.959595 15.5964C0.959595 15.8952 1.07813 16.1818 1.28905 16.3935L1.93142 17.0367ZM8.85192 27.4217C8.85192 27.4466 8.83179 27.4667 8.80687 27.4667H7.76941C7.74449 27.4667 7.72436 27.4466 7.72436 27.4217V20.7016H8.8519L8.85192 27.4217ZM12.8303 27.4219C12.8303 27.4466 12.8101 27.4667 12.7855 27.4667H11.7506C11.7259 27.4667 11.7058 27.4466 11.7058 27.4219V20.7018H12.8303L12.8303 27.4219ZM26.3433 27.4667L25.2178 27.467V21.829H26.3423L26.3433 27.4667ZM30.2842 27.4667L29.1589 27.467V21.829H30.2831L30.2842 27.4667ZM24.9077 10.4409C24.9299 10.4243 24.9505 10.4062 24.9699 10.3865C25.245 10.1615 25.5807 10.0236 25.9346 9.99015H29.5699C29.9273 9.99997 30.2689 10.1407 30.5298 10.3853C30.5495 10.4054 30.5708 10.4241 30.5932 10.4409L35.9096 14.4412L35.3667 15.0955C35.3579 15.1063 35.3697 15.1267 35.3616 15.1378L30.9388 11.8085C30.7359 11.6558 30.4558 11.6578 30.255 11.8133C30.0539 11.9686 29.9817 12.2389 30.0783 12.4737L33.4645 20.7015L30.8492 20.7018L30.847 20.7015H28.5952L28.5904 20.702L26.9122 20.7023L26.9061 20.7015H24.6541C24.6513 20.7015 24.6485 20.7023 24.6458 20.7023L22.0363 20.7025L25.4227 12.4735C25.5194 12.2386 25.4471 11.9683 25.2461 11.813C25.0452 11.6575 24.7653 11.6557 24.5623 11.8085L20.1598 15.1282C20.1518 15.1171 20.1432 15.1063 20.1344 15.0954L19.5875 14.4361L24.9077 10.4409ZM6.90966 10.4852C7.22527 10.1673 7.65487 9.98889 8.10286 9.99015H12.4922C12.9402 9.98914 13.3701 10.1673 13.6857 10.4852L18.79 15.5969L18.1488 16.2402L14.3554 12.4415C14.1943 12.2802 13.9517 12.2319 13.741 12.319C13.5304 12.4063 13.3927 12.6119 13.393 12.84V19.0105C13.393 19.5743 13.2105 19.5743 13.1123 19.5743H7.48271C7.39134 19.5743 7.14872 19.5743 7.14872 19.0223V12.8518C7.14872 12.6192 7.00576 12.4103 6.78882 12.3263C6.57187 12.242 6.32572 12.2998 6.16867 12.4717L2.72917 16.2402L2.09795 15.585L6.90966 10.4852Z" fill="black"/>
</svg>
