<svg width="52" height="30" viewBox="0 0 52 30" fill="none" xmlns="http://www.w3.org/2000/svg">
<g clip-path="url(#clip0_401_991)">
<path d="M31.7203 11.7393L38.3274 17.0207C40.0892 16.7791 41.85 15.8228 43.1402 14.2088C45.6258 11.0991 45.3377 6.89054 42.6974 4.77988C40.0571 2.6694 35.8885 3.3155 33.4028 6.42509C32.1129 8.0391 31.568 9.96739 31.7203 11.7393Z" fill="#D94746" stroke="black" stroke-width="1.15385"/>
<path d="M37.6058 17.0815C37.6058 17.0815 35.5515 15.9709 33.9977 17.2437C32.4439 18.5164 30.4735 21.9041 30.4735 21.9041C30.4735 21.9041 30.0194 21.8429 29.2421 21.2215C28.4647 20.6001 28.305 20.1707 28.305 20.1707C28.305 20.1707 31.1754 17.5026 32.0746 15.7065C32.9738 13.9105 31.4381 12.1512 31.4381 12.1512C31.4375 12.1486 31.4371 12.1458 31.4365 12.143L37.6143 17.0812C37.6112 17.081 37.6083 17.0812 37.6056 17.0813L37.6058 17.0815Z" fill="black"/>
<path d="M26.5233 13.8986C26.5871 13.9012 26.6498 13.8917 26.7134 13.8912L27.0393 14.0358C27.0947 14.0835 27.2459 14.1564 27.3221 14.2365C27.467 14.3889 27.4742 14.6042 27.4671 14.8017C27.4497 15.2858 27.1041 15.7327 26.8409 16.1197L26.8314 16.1336C26.6662 16.3764 26.5193 16.5924 26.396 16.8616C26.2576 17.1638 26.1427 17.4784 25.9797 17.769C25.7532 18.1729 25.4752 18.5626 25.2906 18.9876C25.2173 19.1562 25.1373 19.3207 25.056 19.4852C24.9875 19.6236 24.9205 19.6294 24.8132 19.7292C24.5894 19.9375 24.3205 19.9767 24.022 19.9087C23.3876 19.7643 22.8703 19.4468 22.3403 19.0852C21.803 18.7185 21.2391 18.4112 20.6924 18.0617C20.2781 17.7968 19.9886 17.3629 19.5777 17.0794C19.0832 16.7382 18.5542 16.4464 18.0567 16.1072C17.4985 15.7268 17.1412 15.1441 16.6292 14.7224C16.3971 14.5312 16.0864 14.397 15.8303 14.2385C15.4712 14.0163 15.097 13.8217 14.7409 13.5951C14.16 13.2255 13.5674 12.8708 12.9924 12.4926C12.4161 12.1135 11.8875 11.565 11.4061 11.0654L11.3843 11.0428C10.9987 10.6427 10.6356 10.2212 10.2452 9.82571C9.93285 9.50929 9.71494 9.13282 9.43984 8.78515C9.16701 8.44037 8.84056 8.15352 8.50844 7.86762C8.14988 7.55895 7.81469 7.22886 7.45838 6.91839C6.94179 6.46824 6.49448 5.95761 6.05201 5.43595C5.75539 5.08624 5.4601 4.71524 5.28452 4.28708C5.13065 3.91182 5.45799 3.37815 5.68875 3.11009C5.76737 3.01875 6.00416 3.02429 6.11176 3.01625C6.32556 3.00026 6.55675 3.00309 6.76828 3.04288C6.89427 3.06658 6.99175 3.17187 7.10029 3.23307C7.23411 3.30851 7.37478 3.37297 7.51212 3.44163C7.97126 3.67116 8.44636 3.85293 8.93076 4.02116C9.81684 4.32889 10.5254 5.02148 11.4061 5.33171C11.7663 5.45858 12.1291 5.57913 12.4901 5.70367C12.843 5.82543 13.1714 5.99906 13.5202 6.1324C14.1361 6.36789 14.7692 6.54807 15.3859 6.77722C15.7777 6.92281 16.1575 7.11157 16.5528 7.24575C16.8784 7.35627 17.2074 7.42813 17.5314 7.54716C18.1023 7.75682 18.8302 7.7193 19.4271 7.72454C19.7511 7.72738 20.0754 7.69734 20.3948 7.64406C20.6332 7.60429 20.8812 7.59401 21.1224 7.60858C21.2334 7.61529 22.7326 7.55309 22.8237 7.63712C23.1326 7.92214 21.7345 8.31209 21.5882 8.59339C21.5104 8.74295 21.4424 8.89906 21.3849 9.05756C21.305 9.27755 21.3426 9.47411 21.3233 9.6991C21.2958 10.0212 21.4243 10.3882 21.4838 10.7054C21.5692 11.1612 21.7755 11.6223 21.9731 12.0401C22.5092 13.1735 23.5008 14.6303 24.9437 14.3129C25.3018 14.2341 25.5795 13.9944 25.9359 13.9466C26.1263 13.9211 26.3314 13.891 26.5233 13.8986Z" fill="#539968"/>
<path d="M8.12537 2.73582C13.7953 5.83085 12.5973 5.32055 14.2725 5.79516C14.2915 5.51378 14.555 5.29418 14.879 5.34988C15.1604 5.36887 15.4226 5.66911 15.4038 5.95035L15.3362 6.1154C15.703 6.20793 15.9902 6.30642 16.357 6.39895L16.351 6.31933C16.37 6.03795 16.6703 5.7757 16.9515 5.79457C17.2329 5.81356 17.4951 6.1138 17.4763 6.39504L17.4513 6.5968C17.8181 6.68933 18.1421 6.74503 18.4663 6.80085C18.5161 6.39721 18.7796 6.17761 19.061 6.1966C19.385 6.2523 19.5988 6.43634 19.5976 6.95631C19.9217 7.01201 20.4476 7.09278 20.7598 6.98936C21.5006 6.73407 22.5225 6.49765 23.115 6.9332C23.7502 7.40545 23.6803 8.61044 22.8412 9.15304L22.345 9.47011C22.8496 10.8719 24.2131 14.1289 25.6575 13.661C25.8591 13.6859 25.9755 13.6373 26.0919 13.5885C26.8326 13.3332 27.3406 13.1753 28.4281 13.8137C28.8863 14.0594 29.0135 14.6896 28.7619 15.0685C28.0866 16.1985 25.9931 19.7539 25.3427 20.6825C24.9654 22.5901 23.502 23.3394 22.4145 22.701C15.8592 18.9926 8.55185 12.1814 6.28294 9.11204C6.01462 8.73232 3.84417 5.37553 5.1021 3.48214C5.74664 2.4741 6.91572 2.06647 8.12537 2.73582ZM21.3407 9.94493C21.1827 9.437 21.3429 8.90514 21.7594 8.59403C21.9861 8.41721 22.4146 8.26507 22.4336 7.98369L22.4276 7.90407C22.3053 7.87332 21.865 7.86621 21.1671 8.15833C20.6591 8.31628 20.2555 8.26654 19.5705 8.1978L19.5136 9.0418C19.4946 9.32318 19.1944 9.58542 18.9131 9.56656C18.6318 9.54756 18.3695 9.24732 18.3884 8.96609L18.476 7.99983C18.152 7.94413 17.7851 7.8516 17.461 7.79577L17.3187 8.56623C17.2997 8.84761 16.9995 9.10985 16.7182 9.09099C16.4369 9.07199 16.1746 8.77175 16.1935 8.49052L16.2811 7.52426C15.9143 7.43173 15.5475 7.33919 15.2603 7.24071L15.1606 8.04787C15.1416 8.32925 14.8414 8.59149 14.5602 8.57263C14.2788 8.55364 14.0165 8.25339 14.0354 7.97216L14.1172 6.92641C11.9899 6.28578 13.2304 6.83273 7.51795 3.70106C6.85191 3.35094 6.42941 3.58243 6.16602 3.80216C7.58383 7.255 12.8539 11.4197 17.1347 14.6584L18.0389 12.3114C18.1065 12.1464 18.2168 12.0182 18.4128 11.9636L21.6199 11.004C21.5532 10.6488 21.444 10.2571 21.3407 9.94493ZM27.6919 14.6684C27.1909 14.3858 26.9583 14.4833 26.493 14.6779C25.8319 14.9273 24.0621 15.8593 22.1799 12.0813L19.0521 13.035L18.1111 15.4247C20.1448 16.9521 18.9659 16.1605 24.5917 19.7385C25.2056 18.8528 26.5194 16.6356 27.6919 14.6684ZM7.23242 8.44087C9.37311 11.3998 16.589 18.058 22.9793 21.6987C23.5229 22.0179 23.9894 21.3033 24.1863 20.7286C18.9389 17.4021 9.16039 10.6958 5.98444 5.65495C6.18403 6.71969 6.836 7.95063 7.23242 8.44087Z" fill="black" stroke="black" stroke-width="0.230769"/>
<circle cx="27.6923" cy="6.92308" r="2.30769" stroke="black" stroke-width="1.15385"/>
</g>
<defs>
<clipPath id="clip0_401_991">
<rect width="51.9231" height="30" fill="white" transform="matrix(-1 0 0 1 51.9231 0)"/>
</clipPath>
</defs>
</svg>
