<svg width="45" height="26" viewBox="0 0 45 26" fill="none" xmlns="http://www.w3.org/2000/svg">
<g clip-path="url(#clip0_322_374)">
<path d="M27.491 10.1742L33.2171 14.7514C34.7441 14.5419 36.27 13.7131 37.3882 12.3144C39.5424 9.61925 39.2927 5.97188 37.0044 4.14264L27.491 10.1742ZM27.491 10.1742C27.359 8.63847 27.8312 6.96729 28.9492 5.56847C31.1034 2.8735 34.7162 2.31354 37.0044 4.14263L27.491 10.1742Z" fill="#D94746" stroke="black"/>
<path d="M32.5917 14.804C32.5917 14.804 30.8112 13.8415 29.4646 14.9446C28.118 16.0476 26.4103 18.9836 26.4103 18.9836C26.4103 18.9836 26.0167 18.9306 25.3431 18.392C24.6693 17.8534 24.5309 17.4813 24.5309 17.4813C24.5309 17.4813 27.0186 15.169 27.7979 13.6123C28.5772 12.0558 27.2462 10.5311 27.2462 10.5311C27.2458 10.5288 27.2454 10.5264 27.2449 10.524L32.599 14.8038C32.5963 14.8036 32.5938 14.8038 32.5915 14.8038L32.5917 14.804Z" fill="black"/>
<path d="M22.9869 12.0455C23.0422 12.0476 23.0965 12.0394 23.1517 12.039L23.4341 12.1644C23.4821 12.2057 23.6131 12.2688 23.6792 12.3382C23.8048 12.4703 23.8111 12.6569 23.8049 12.8281C23.7898 13.2476 23.4903 13.635 23.2621 13.9704L23.254 13.9823C23.1108 14.1928 22.9834 14.3801 22.8766 14.6134C22.7566 14.8753 22.6571 15.1479 22.5158 15.3998C22.3195 15.7498 22.0786 16.0876 21.9185 16.4559C21.8551 16.602 21.7857 16.7446 21.7152 16.8872C21.6559 17.0071 21.5978 17.0121 21.5048 17.0986C21.3109 17.2791 21.0778 17.3131 20.8191 17.2542C20.2693 17.129 19.821 16.8538 19.3617 16.5405C18.896 16.2227 18.4072 15.9563 17.9335 15.6534C17.5744 15.4238 17.3235 15.0479 16.9674 14.8021C16.5388 14.5064 16.0803 14.2535 15.6491 13.9596C15.1655 13.6298 14.8557 13.1249 14.412 12.7594C14.2109 12.5937 13.9416 12.4774 13.7196 12.34C13.4084 12.1474 13.0841 11.9788 12.7755 11.7824C12.2721 11.4621 11.7585 11.1547 11.2601 10.8269C10.7607 10.4983 10.3026 10.023 9.8853 9.59001L9.8664 9.5704C9.53223 9.22369 9.21753 8.85831 8.87921 8.51559C8.60851 8.24136 8.41966 7.91508 8.18124 7.61377C7.94479 7.31496 7.66187 7.06636 7.37403 6.81857C7.06327 6.55106 6.77277 6.26499 6.46398 5.99591C6.01626 5.60578 5.62859 5.16323 5.24512 4.71112C4.98805 4.40804 4.73213 4.08651 4.57997 3.71544C4.44661 3.39022 4.7303 2.9277 4.93029 2.69538C4.99843 2.61622 5.20365 2.62102 5.29691 2.61405C5.48219 2.60019 5.68256 2.60265 5.86588 2.63713C5.97508 2.65768 6.05956 2.74893 6.15363 2.80196C6.26961 2.86735 6.39152 2.92321 6.51055 2.98272C6.90847 3.18164 7.32022 3.33918 7.74003 3.48498C8.50797 3.75168 9.1221 4.35192 9.88536 4.62078C10.1975 4.73074 10.5119 4.83522 10.8248 4.94315C11.1307 5.04868 11.4153 5.19916 11.7175 5.31472C12.2513 5.51881 12.8 5.67496 13.3345 5.87356C13.6741 5.99974 14.0032 6.16333 14.3458 6.27962C14.628 6.3754 14.9131 6.43768 15.194 6.54084C15.6887 6.72255 16.3195 6.69003 16.8369 6.69457C17.1177 6.69703 17.3987 6.671 17.6755 6.62482C17.8821 6.59036 18.0971 6.58145 18.3061 6.59407C18.4024 6.59989 19.7016 6.54598 19.7806 6.61881C20.0483 6.86583 18.8366 7.20378 18.7098 7.44757C18.6424 7.5772 18.5835 7.71249 18.5336 7.84986C18.4644 8.04052 18.4969 8.21087 18.4803 8.40586C18.4564 8.68498 18.5678 9.00304 18.6193 9.27798C18.6934 9.673 18.8721 10.0726 19.0434 10.4347C19.508 11.417 20.3674 12.6796 21.6179 12.4045C21.9283 12.3362 22.1689 12.1285 22.4778 12.087C22.6428 12.0649 22.8206 12.0389 22.9869 12.0455Z" fill="#FF9F10"/>
<path d="M7.04209 2.37112C11.956 5.05347 10.9178 4.61121 12.3696 5.02254C12.386 4.77868 12.6144 4.58836 12.8952 4.63663C13.1391 4.65309 13.3664 4.9133 13.35 5.15704L13.2915 5.30008C13.6094 5.38027 13.8583 5.46563 14.1762 5.54582L14.171 5.47682C14.1875 5.23296 14.4477 5.00568 14.6914 5.02203C14.9353 5.03849 15.1625 5.2987 15.1462 5.54243L15.1246 5.71729C15.4425 5.79749 15.7233 5.84576 16.0042 5.89414C16.0473 5.54431 16.2757 5.35399 16.5196 5.37045C16.8004 5.41872 16.9857 5.57823 16.9847 6.02887C17.2655 6.07714 17.7213 6.14714 17.992 6.05751C18.6339 5.83627 19.5196 5.63137 20.0331 6.00884C20.5836 6.41812 20.523 7.46245 19.7958 7.93271L19.3658 8.2075C19.8031 9.42241 20.9847 12.2452 22.2366 11.8396C22.4114 11.8611 22.5122 11.819 22.6131 11.7768C23.2551 11.5555 23.6953 11.4186 24.6378 11.972C25.0349 12.1849 25.1451 12.7311 24.927 13.0594C24.3418 14.0388 22.5275 17.1201 21.9637 17.9249C21.6368 19.5782 20.3685 20.2276 19.426 19.6742C13.7448 16.4603 7.4117 10.5573 5.44531 7.89717C5.21276 7.56808 3.33171 4.65886 4.42192 3.01792C4.98051 2.14429 5.99372 1.79101 7.04209 2.37112ZM18.4954 8.61901C18.3585 8.1788 18.4972 7.71785 18.8583 7.44822C19.0547 7.29499 19.4261 7.16313 19.4425 6.91927L19.4374 6.85026C19.3314 6.82361 18.9498 6.81745 18.3449 7.07063C17.9047 7.20751 17.5548 7.1644 16.9612 7.10483L16.9119 7.83629C16.8954 8.08016 16.6352 8.30743 16.3915 8.29108C16.1476 8.27462 15.9203 8.01441 15.9367 7.77068L16.0126 6.93325C15.7318 6.88498 15.4139 6.80479 15.1329 6.75641L15.0096 7.42413C14.9932 7.66799 14.733 7.89527 14.4892 7.87892C14.2454 7.86246 14.0181 7.60225 14.0344 7.35852L14.1104 6.52109C13.7925 6.4409 13.4746 6.3607 13.2257 6.27535L13.1393 6.97489C13.1229 7.21875 12.8626 7.44603 12.6189 7.42968C12.375 7.41322 12.1478 7.15301 12.1641 6.90927L12.235 6.00295C10.3913 5.44775 11.4665 5.92176 6.51565 3.20765C5.93842 2.90422 5.57225 3.10484 5.34398 3.29527C6.57275 6.28773 11.1401 9.89714 14.8502 12.704L15.6338 10.67C15.6924 10.5269 15.788 10.4158 15.9578 10.3685L18.7374 9.53687C18.6795 9.22905 18.5849 8.88953 18.4954 8.61901ZM23.9997 12.7126C23.5655 12.4678 23.3639 12.5523 22.9607 12.721C22.3877 12.937 20.8539 13.7448 19.2227 10.4705L16.512 11.297L15.6964 13.3681C17.4589 14.6919 16.4372 14.0058 21.3129 17.1068C21.845 16.3392 22.9836 14.4175 23.9997 12.7126ZM6.26819 7.31549C8.12346 9.87992 14.3772 15.6503 19.9155 18.8056C20.3866 19.0823 20.7909 18.4629 20.9616 17.9649C16.4138 15.0819 7.9391 9.26972 5.18661 4.90102C5.35959 5.8238 5.92463 6.89062 6.26819 7.31549Z" fill="black" stroke="black" stroke-width="0.2"/>
<circle cx="24" cy="6" r="2" stroke="black"/>
</g>
<defs>
<clipPath id="clip0_322_374">
<rect width="45" height="26" fill="white" transform="matrix(-1 0 0 1 45 0)"/>
</clipPath>
</defs>
</svg>
