<svg width="28" height="26" viewBox="0 0 28 26" fill="none" xmlns="http://www.w3.org/2000/svg">
<path d="M18.592 25.3123H3.13155C2.43918 25.3111 1.77534 25.0356 1.2858 24.546C0.796231 24.0565 0.520677 23.3927 0.519501 22.7005V10.9344C0.5207 10.2421 0.796257 9.57823 1.2858 9.08868C1.77536 8.59912 2.43918 8.32356 3.13155 8.32239H18.592C19.2843 8.32359 19.948 8.59914 20.4375 9.08868C20.9271 9.57822 21.2026 10.2421 21.2038 10.9344V22.7005C21.2026 23.3927 20.9271 24.0565 20.4375 24.546C19.948 25.0356 19.2843 25.3112 18.592 25.3123ZM3.13155 9.1649C2.66257 9.1659 2.21317 9.35274 1.88164 9.68443C1.54994 10.0159 1.36329 10.4654 1.36212 10.9343V22.7004C1.36212 23.1696 1.54855 23.6196 1.88026 23.9515C2.21217 24.2832 2.66216 24.4696 3.13155 24.4696H18.592C19.0608 24.4686 19.5101 24.2818 19.8419 23.9503C20.1734 23.6186 20.3602 23.1692 20.3612 22.7004V10.9343C20.3602 10.4654 20.1734 10.016 19.8419 9.68443C19.5102 9.35272 19.0608 9.16587 18.592 9.1649H3.13155Z" fill="black" stroke="black" stroke-width="0.3"/>
<g style="mix-blend-mode:darken">
<path d="M18.592 24.9899H3.13155C2.43918 24.9887 1.77534 24.7132 1.2858 24.2236C0.796231 23.7341 0.520677 23.0703 0.519501 22.3781V10.6121C0.5207 9.91967 0.796257 9.25584 1.2858 8.76629C1.77536 8.27673 2.43918 8.00118 3.13155 8H18.592C19.2843 8.0012 19.948 8.27676 20.4375 8.76629C20.9271 9.25583 21.2026 9.91967 21.2038 10.6121V13.5L26.0195 10.5L27.0195 11V22.5L26.0195 23L21.0195 20C21.0183 20.6922 20.9271 23.7341 20.4375 24.2236C19.948 24.7132 19.2843 24.9888 18.592 24.9899Z" fill="#55779B"/>
</g>
<path d="M25.9639 23.5009C25.6635 23.5021 25.3698 23.4126 25.1212 23.244L22.2356 21.3103C22.1359 21.2513 22.0649 21.154 22.0391 21.0411C22.0136 20.9282 22.0353 20.8097 22.0997 20.7136C22.164 20.6173 22.2653 20.5517 22.3794 20.5324C22.4935 20.513 22.6106 20.5414 22.7032 20.6111L25.5888 22.5448L25.589 22.5446C25.7926 22.6813 26.0542 22.6962 26.2724 22.5841C26.4904 22.472 26.6302 22.2504 26.6378 22.0055V11.6508C26.6414 11.4028 26.5043 11.1744 26.2839 11.0609C26.0643 10.9404 25.7958 10.9534 25.589 11.0947L22.7033 13.0284L22.7031 13.0282C22.61 13.0905 22.4957 13.1131 22.3858 13.0909C22.2759 13.069 22.1794 13.0038 22.1177 12.9103C22.0525 12.8166 22.0283 12.7003 22.0507 12.5884C22.0729 12.4763 22.1396 12.3782 22.2355 12.3164L25.1212 10.3827C25.4271 10.1761 25.7978 10.0884 26.1639 10.1362C26.5297 10.1839 26.8656 10.3638 27.108 10.6419C27.3506 10.9203 27.4831 11.2776 27.4805 11.6464V22.0057C27.4805 22.2805 27.4059 22.5503 27.2651 22.786C27.1242 23.0218 26.922 23.2153 26.68 23.3454C26.4572 23.4539 26.2116 23.5072 25.9638 23.5012L25.9639 23.5009Z" fill="black" stroke="black" stroke-width="0.3"/>
<path d="M10.8615 22.2241C9.42635 22.2253 8.04958 21.656 7.03432 20.6419C6.019 19.6276 5.44853 18.2515 5.44812 16.8165C5.44772 15.3814 6.01762 14.005 7.03232 12.9901C8.04723 11.9754 9.42359 11.4055 10.8587 11.4059C12.2937 11.4063 13.6698 11.9768 14.6841 12.9921C15.6982 14.0074 16.2675 15.3842 16.2663 16.8193C16.2641 18.252 15.694 19.6254 14.6809 20.6387C13.6676 21.6518 12.2943 22.2219 10.8615 22.2241L10.8615 22.2241ZM10.8615 12.2526C9.64995 12.2516 8.48782 12.7317 7.63058 13.5876C6.77333 14.4436 6.29135 15.605 6.29058 16.8163C6.28998 18.0279 6.77056 19.1898 7.62659 20.0468C8.48281 20.9037 9.64437 21.3854 10.8559 21.3858C12.0673 21.3862 13.229 20.9053 14.0859 20.0488C14.9425 19.1924 15.4239 18.0306 15.4239 16.8193C15.4227 15.6092 14.9419 14.4488 14.0866 13.5928C13.2314 12.7368 12.0714 12.2548 10.8615 12.2526Z" fill="white" stroke="white" stroke-width="0.3"/>
<path d="M10.3474 19.2966C10.0664 19.2944 9.79769 19.1819 9.59906 18.9832C9.40043 18.7846 9.28794 18.5159 9.28574 18.2349V15.3998C9.28973 15.1394 9.38944 14.8897 9.56569 14.698C9.74173 14.5062 9.98232 14.3859 10.2415 14.3601C10.5005 14.3342 10.76 14.4043 10.9709 14.5572L12.8286 15.9769C13.0921 16.1769 13.247 16.4886 13.247 16.8196C13.247 17.1503 13.0921 17.4622 12.8286 17.662L10.9709 19.0818C10.7908 19.2172 10.5726 19.2924 10.3474 19.2966L10.3474 19.2966ZM10.3474 15.185C10.3154 15.1782 10.2825 15.1782 10.2505 15.185C10.1751 15.2198 10.1272 15.2957 10.1282 15.3786V18.2139C10.1262 18.2973 10.1744 18.3736 10.2505 18.4078C10.3188 18.4503 10.4053 18.4503 10.4737 18.4078L12.3356 16.988C12.3898 16.9491 12.4213 16.8861 12.4199 16.8196C12.4227 16.7514 12.3912 16.6865 12.3356 16.6467L10.4737 15.2312V15.2314C10.4391 15.2002 10.3938 15.1836 10.3474 15.185V15.185Z" fill="white" stroke="white" stroke-width="0.3"/>
<path d="M18.6759 11.2714H16.7086C16.476 11.2714 16.2874 11.0828 16.2874 10.8502C16.2874 10.6176 16.476 10.429 16.7086 10.429H18.6759C18.9087 10.429 19.0973 10.6176 19.0973 10.8502C19.0973 11.0828 18.9087 11.2714 18.6759 11.2714Z" fill="white" stroke="white" stroke-width="0.3"/>
<path d="M18.6759 13.049H16.7086C16.476 13.049 16.2874 12.8604 16.2874 12.6278C16.2874 12.395 16.476 12.2064 16.7086 12.2064H18.6759C18.9087 12.2064 19.0973 12.395 19.0973 12.6278C19.0973 12.8604 18.9087 13.049 18.6759 13.049Z" fill="white" stroke="white" stroke-width="0.3"/>
<path d="M5.00995 21.4323H3.0469C2.8143 21.4323 2.62567 21.2436 2.62567 21.011C2.62567 20.7782 2.8143 20.5896 3.0469 20.5896H5.00995C5.24275 20.5896 5.43118 20.7782 5.43118 21.011C5.43118 21.2436 5.24275 21.4323 5.00995 21.4323Z" fill="white" stroke="white" stroke-width="0.3"/>
<path d="M5.00995 23.2058H3.0469C2.8143 23.2058 2.62567 23.0173 2.62567 22.7845C2.62567 22.5519 2.8143 22.3633 3.0469 22.3633H5.00995C5.24275 22.3633 5.43118 22.5519 5.43118 22.7845C5.43118 23.0173 5.24275 23.2058 5.00995 23.2058Z" fill="white" stroke="white" stroke-width="0.3"/>
<path d="M25.8753 6.77598C25.6745 6.78097 25.4983 6.64329 25.4541 6.44747C25.1102 4.92383 24.1759 3.59878 22.856 2.76317C21.5364 1.92771 19.939 1.64974 18.4146 1.99048C18.1878 2.04623 17.9586 1.90755 17.9028 1.68075C17.8469 1.45396 17.9856 1.22476 18.2124 1.16901C19.959 0.770358 21.7924 1.08348 23.3076 2.03925C24.8229 2.99481 25.8953 4.51425 26.2882 6.2621C26.3134 6.3716 26.2936 6.4867 26.2334 6.58162C26.1733 6.67653 26.0778 6.74347 25.9681 6.76765C25.9377 6.77464 25.9065 6.77744 25.8753 6.77604L25.8753 6.77598Z" fill="black" stroke="black" stroke-width="0.3"/>
<path d="M23.7566 7.26094C23.5557 7.26574 23.3793 7.12826 23.3351 6.93223C23.1181 5.96951 22.5275 5.13221 21.6934 4.6045C20.8591 4.07699 19.8496 3.90194 18.8867 4.11813C18.777 4.14331 18.6621 4.12353 18.5672 4.06338C18.4723 4.00323 18.4051 3.90772 18.3811 3.79802C18.3314 3.57122 18.4747 3.34702 18.7013 3.29666C19.8852 3.0263 21.1279 3.23812 22.1554 3.88535C23.1829 4.53276 23.9106 5.56224 24.1778 6.74698C24.2053 6.85888 24.1855 6.97718 24.1236 7.07429C24.0615 7.1714 23.9624 7.23874 23.8492 7.26092L23.7566 7.26094Z" fill="black" stroke="black" stroke-width="0.3"/>
<path d="M21.6331 7.73256C21.4323 7.73736 21.2561 7.59988 21.2119 7.40405C21.1214 7.00281 20.8752 6.65413 20.5277 6.43452C20.18 6.21492 19.7594 6.14239 19.3584 6.2329C19.1328 6.28266 18.9094 6.14179 18.857 5.91678C18.8318 5.80788 18.851 5.69338 18.9102 5.59866C18.9695 5.50375 19.064 5.43641 19.1729 5.41143C19.7936 5.26916 20.4454 5.37986 20.9845 5.71895C21.5234 6.05785 21.9055 6.59758 22.046 7.2186C22.0711 7.3281 22.0514 7.4432 21.9912 7.53812C21.9311 7.63303 21.8356 7.69997 21.7259 7.72415L21.6331 7.73256Z" fill="black" stroke="black" stroke-width="0.3"/>
</svg>
