<svg width="27" height="27" viewBox="0 0 27 27" fill="none" xmlns="http://www.w3.org/2000/svg">
<path d="M3.56126 0.000371518C3.32256 0.0242715 3.14094 0.224826 3.14115 0.464241V3.13106H0.468438C0.344093 3.13043 0.224745 3.17948 0.136845 3.26739C0.0487432 3.35509 -0.000413277 3.47417 2.6259e-06 3.59825V26.5326C-0.000413917 26.6567 0.0487411 26.776 0.136845 26.8637C0.22474 26.9514 0.344088 27.0004 0.468438 27H16.9931C17.251 26.999 17.4588 26.7897 17.458 26.5326V23.8658H20.1307C20.2551 23.8664 20.3744 23.8174 20.4623 23.7294C20.5502 23.6417 20.5996 23.5227 20.599 23.3986V15.3883L26.4227 9.57743C27.1808 8.82094 27.1558 7.67728 26.5603 6.82874V6.82895C26.5601 6.70508 26.5108 6.58621 26.4227 6.49892C25.998 6.07517 25.4394 5.86277 24.8799 5.86234C24.3204 5.86214 23.762 6.07474 23.3371 6.49892L20.5988 9.23118V0.464337C20.5977 0.207258 20.3882 -0.000362354 20.1306 0.000467617H3.60589C3.5911 -0.000155872 3.5761 -0.000155872 3.56131 0.000467617L3.56126 0.000371518ZM4.07426 0.927705L19.6658 0.927913V10.1619L15.0613 14.7562C15.0076 14.809 14.9672 14.8739 14.9438 14.9454L13.8485 18.4605C13.7958 18.6264 13.8401 18.8076 13.9632 18.9306C14.0865 19.0536 14.2684 19.0979 14.4344 19.0451L17.9573 17.9522C18.0291 17.9291 18.0941 17.8888 18.1468 17.835L19.6658 16.3193V22.9346H4.07425L4.07426 0.927705ZM0.933129 4.06191H3.14115V23.3987C3.14011 23.6557 3.34818 23.8648 3.60583 23.8658H16.5244V26.069H0.932852L0.933129 4.06191ZM7.45588 4.80383L7.45608 4.80404C7.19865 4.81796 7.0014 5.03722 7.01452 5.29388C7.02785 5.55075 7.24697 5.7484 7.50441 5.73593H16.2352H16.235C16.4924 5.7351 16.7007 5.52665 16.7007 5.26998C16.7007 5.01311 16.4924 4.80466 16.235 4.80404H7.50473C7.48849 4.80321 7.47245 4.80321 7.45641 4.80404L7.45588 4.80383ZM24.8795 6.78422C25.1982 6.78422 25.5167 6.90787 25.7644 7.15519C26.2599 7.64961 26.2599 8.42292 25.7644 8.91733L19.7876 14.882L18.2376 16.4278L16.4707 14.6648L20.4399 10.7041L20.4429 10.7005H20.4433C20.4576 10.6874 20.4714 10.6735 20.4841 10.6588L23.9952 7.15463C24.2428 6.90752 24.5613 6.78366 24.88 6.78366L24.8795 6.78422ZM7.50386 9.24466H7.50407C7.25038 9.25027 7.04772 9.45706 7.04772 9.71019C7.04772 9.96332 7.25038 10.1701 7.50407 10.1757H16.2348H16.2346C16.4883 10.1701 16.691 9.96332 16.691 9.71019C16.691 9.45706 16.4883 9.25027 16.2346 9.24466H7.50386ZM7.45554 13.6871H7.45575C7.19831 13.7013 7.00107 13.9205 7.01419 14.1772C7.02752 14.4341 7.24664 14.6317 7.50408 14.6192H12.6808C12.9382 14.6184 13.1463 14.4099 13.1463 14.1533C13.1463 13.8964 12.9382 13.688 12.6808 13.6871H7.50408C7.48783 13.6863 7.47179 13.6863 7.45575 13.6871H7.45554ZM15.8109 15.3229L17.5778 17.0859L17.5678 17.0965L15.0053 17.8902L15.8007 15.3335L15.8109 15.3229ZM7.45554 18.1306H7.45575C7.19831 18.1448 7.00107 18.3638 7.01419 18.6207C7.02752 18.8773 7.24664 19.075 7.50408 19.0625H11.4852C11.7427 19.0617 11.9507 18.8534 11.9507 18.5966C11.9507 18.3399 11.7427 18.1315 11.4852 18.1306H7.50408C7.48783 18.1298 7.47179 18.1298 7.45575 18.1306H7.45554Z" fill="black"/>
<g style="mix-blend-mode:multiply">
<path d="M4 0H20V10.5L15.5 15L14.5 18.5L18 17L20 15.5V23H4V0Z" fill="#FF9F10"/>
</g>
</svg>
