<svg width="27" height="24" viewBox="0 0 27 24" fill="none" xmlns="http://www.w3.org/2000/svg">
<path d="M16.7086 11.6523C16.9022 11.6525 17.0851 11.5636 17.2047 11.4114C17.7567 10.6936 18.2181 9.91031 18.5785 9.07945C18.6523 8.92611 18.6607 8.74941 18.6019 8.58959C18.5431 8.42977 18.4224 8.30063 18.2668 8.23141C18.1115 8.16191 17.9345 8.15854 17.7764 8.22156C17.6185 8.28487 17.4925 8.40924 17.4278 8.56652C17.109 9.30201 16.7013 9.99558 16.2137 10.632C16.0649 10.8214 16.037 11.0794 16.1422 11.2966C16.2475 11.5136 16.4675 11.6514 16.7086 11.6517L16.7086 11.6523Z" fill="black"/>
<path d="M15.4244 12.6052C15.4244 12.9532 15.1422 13.2355 14.7941 13.2355C14.4461 13.2355 14.1639 12.9532 14.1639 12.6052C14.1639 12.2572 14.4461 11.9749 14.7941 11.9749C15.1422 11.9749 15.4244 12.2572 15.4244 12.6052Z" fill="black"/>
<path d="M0.513693 3.11474C0.158328 3.49262 -0.0262478 3.99991 0.00301783 4.51766C0.156923 7.56314 1.45261 14.6076 8.76325 14.5197C9.28208 14.9451 9.85413 15.3008 10.4649 15.5779C10.1743 18.2148 9.25874 19.2579 8.95232 19.5378C8.27705 19.5119 7.63894 19.8482 7.2785 20.4202C6.91835 20.9922 6.8905 21.7131 7.20591 22.311C7.52104 22.9089 8.13135 23.2935 8.80691 23.3194H17.6305C18.3061 23.2935 18.9164 22.9092 19.2317 22.3113C19.5472 21.7134 19.5193 20.9925 19.1592 20.4205C18.799 19.8485 18.1612 19.512 17.4856 19.5378C17.1775 19.2579 16.2617 18.2143 15.973 15.5779C16.5838 15.3007 17.1559 14.9451 17.6747 14.5197C24.9857 14.6072 26.2829 7.56293 26.4349 4.51766C26.4639 3.99827 26.2776 3.48959 25.92 3.11165C25.5621 2.73405 25.0644 2.52022 24.5441 2.52106H22.6294C22.6415 2.34015 22.6609 2.16429 22.6691 1.98084C22.6922 1.46453 22.5034 0.960903 22.1463 0.586925C21.7893 0.212991 21.2952 0.00112366 20.7783 0H5.66007C5.1432 0.00112546 4.64885 0.212991 4.29209 0.586925C3.93504 0.96086 3.74624 1.46453 3.76931 1.98084C3.77747 2.16429 3.79717 2.34015 3.80898 2.52106H1.89033C1.36924 2.52191 0.871258 2.73631 0.512767 3.11474H0.513693ZM17.6308 20.7987C17.9788 20.7987 18.261 21.0809 18.261 21.429C18.261 21.777 17.9788 22.0592 17.6308 22.0592H8.80717C8.45912 22.0592 8.17691 21.777 8.17691 21.429C8.17691 21.0809 8.45912 20.7987 8.80717 20.7987H17.6308ZM10.5598 19.5382C11.1884 18.4457 11.575 17.2313 11.6943 15.9767C12.6971 16.2313 13.7474 16.2313 14.7499 15.9767C14.8672 17.2307 15.2519 18.4451 15.8782 19.5382H10.5598ZM22.5232 3.78174H24.5471C24.7215 3.78089 24.8884 3.85264 25.0077 3.98038C25.1264 4.10447 25.1877 4.27272 25.1773 4.44407C24.9989 7.50136 23.9061 12.4062 19.0405 13.1503C20.8384 10.9666 22.0846 7.70866 22.5232 3.7814L22.5232 3.78174ZM5.20296 1.45734C5.32225 1.33157 5.48798 1.26039 5.6613 1.26067H20.7774C20.9507 1.26039 21.1167 1.33129 21.2369 1.4565C21.3568 1.58171 21.4203 1.75053 21.4127 1.92357C20.8261 8.67187 19.0757 14.25 13.2194 14.9069C7.36504 14.2502 5.61451 8.67187 5.02602 1.92357C5.01843 1.75053 5.08258 1.58171 5.203 1.45734H5.20296ZM3.91543 3.78174C4.35661 7.70879 5.60027 10.9667 7.3982 13.1506C2.53254 12.4064 1.4397 7.50163 1.26136 4.44441V4.44413C1.25095 4.27278 1.31229 4.10452 1.43102 3.98044C1.55032 3.8527 1.71718 3.78095 1.89162 3.78179L3.91543 3.78174Z" fill="black"/>
<g style="mix-blend-mode:darken">
<path d="M22 1H5C5 5.66667 6.65405 15 13.2703 15C19.8865 15 21.8468 5.66667 22 1Z" fill="#FF9F10"/>
</g>
<g style="mix-blend-mode:darken">
<path d="M11 17V15H15.5V18L19.5 22.5H7L11 17Z" fill="#FF9F10"/>
</g>
</svg>
