<svg width="19" height="18" viewBox="0 0 19 18" fill="none" xmlns="http://www.w3.org/2000/svg">
<g opacity="0.5">
<path d="M17.4989 8.7976L17.4989 8.79939C17.4998 9.81172 17.2318 10.8081 16.7195 11.6925C16.0335 12.8214 15.0494 13.7554 13.8662 14.3974C12.6814 15.0403 11.3404 15.3667 9.98096 15.3422L9.98096 15.3421L9.97005 15.3421C8.80199 15.3466 7.64715 15.1065 6.58459 14.6388C6.47687 14.5914 6.35587 14.5835 6.2429 14.6165L1.82439 15.9079L3.26178 12.1253C3.31529 11.9845 3.30246 11.827 3.22685 11.6967C2.71397 10.813 2.44512 9.81725 2.44499 8.80536C2.47728 7.5544 2.88195 6.33776 3.61218 5.30202C4.34372 4.26445 5.37116 3.45229 6.57198 2.96588L6.58569 2.96009C7.64825 2.49243 8.80309 2.25236 9.97115 2.25681H9.97305H10.4436C12.2033 2.27066 13.894 2.91085 15.1948 4.05211C16.4886 5.18717 17.3066 6.7384 17.4999 8.41216L17.4989 8.7976Z" stroke="#55779B" stroke-linecap="round" stroke-linejoin="round"/>
</g>
</svg>
