<svg width="12" height="13" viewBox="0 0 12 13" fill="none" xmlns="http://www.w3.org/2000/svg">
<g opacity="0.5">
<path d="M7.66659 6.68641C7.17309 7.01593 6.59295 7.19171 5.99954 7.19153L7.66659 6.68641ZM7.66659 6.68641C8.16015 6.35685 8.54487 5.88833 8.77209 5.3401M7.66659 6.68641L8.77209 5.3401M8.77209 5.3401C8.99931 4.79187 9.05882 4.18857 8.94309 3.60652M8.77209 5.3401L8.94309 3.60652M8.94309 3.60652C8.82736 3.02447 8.54158 2.48981 8.12193 2.07019M8.94309 3.60652L8.12193 2.07019M8.12193 2.07019C7.70227 1.65057 7.16758 1.36484 6.5855 1.24912M8.12193 2.07019L6.5855 1.24912M6.5855 1.24912C6.00342 1.1334 5.40009 1.1929 4.85183 1.42009M6.5855 1.24912L4.85183 1.42009M4.85183 1.42009C4.30357 1.64729 3.835 2.03197 3.50541 2.52549M4.85183 1.42009L3.50541 2.52549M3.50541 2.52549C3.17585 3.01895 3.00005 3.59906 3.00023 4.19245L3.50541 2.52549ZM6.49954 7.46184V7.4408L5.99927 7.44107C5.10261 7.44156 3.7896 7.66274 2.68805 8.10412C2.13689 8.32496 1.60724 8.61324 1.20737 8.98238C0.804081 9.35468 0.5 9.84266 0.5 10.442V11.6915V12.1915H1H11H11.5V11.6915V10.442C11.5 9.84266 11.1959 9.35467 10.7926 8.98238C10.3927 8.61325 9.86301 8.325 9.31177 8.10421C8.40076 7.73932 7.34504 7.52507 6.49954 7.46184ZM3.00023 4.19263C3.00028 4.98798 3.31628 5.75074 3.87872 6.31313C4.44116 6.87552 5.20397 7.19148 5.99936 7.19153L3.00023 4.19263Z" stroke="#55779B"/>
</g>
</svg>
