<svg width="11" height="12" viewBox="0 0 11 12" fill="none" xmlns="http://www.w3.org/2000/svg">
<path opacity="0.203" d="M5.453 6.00002C5.99243 6.00022 6.51981 5.84043 6.96842 5.54086C7.41702 5.24129 7.7667 4.8154 7.97323 4.31706C8.17975 3.81873 8.23384 3.27033 8.12865 2.74126C8.02346 2.21218 7.76372 1.72618 7.38228 1.34474C7.00084 0.963303 6.51485 0.703562 5.98577 0.598372C5.45669 0.493182 4.90829 0.547269 4.40996 0.753793C3.91162 0.960317 3.48574 1.31 3.18617 1.75861C2.8866 2.20721 2.7268 2.73459 2.727 3.27402C2.727 3.997 3.0142 4.69037 3.52543 5.20159C4.03665 5.71282 4.73002 6.00002 5.453 6.00002ZM5.453 7.36302C3.633 7.36402 0 8.27702 0 10.091V11.454H10.907V10.091C10.907 8.27702 7.274 7.36402 5.453 7.36402V7.36302Z" fill="black"/>
</svg>
