<svg width="11" height="12" viewBox="0 0 11 12" fill="none" xmlns="http://www.w3.org/2000/svg">
<path fill-rule="evenodd" clip-rule="evenodd" d="M4.95 4.96233V0.562329C4.95 0.258572 5.19624 0.0123291 5.5 0.0123291C5.80376 0.0123291 6.05 0.258572 6.05 0.562329V4.96233H10.45C10.7538 4.96233 11 5.20857 11 5.51233C11 5.81609 10.7538 6.06233 10.45 6.06233H6.05V10.4623C6.05 10.7661 5.80376 11.0123 5.5 11.0123C5.19624 11.0123 4.95 10.7661 4.95 10.4623V6.06233H0.55C0.246243 6.06233 0 5.81609 0 5.51233C0 5.20857 0.246243 4.96233 0.55 4.96233H4.95Z" fill="#8F929B"/>
</svg>
