<svg width="15" height="16" viewBox="0 0 15 16" fill="none" xmlns="http://www.w3.org/2000/svg">
<path d="M12.4889 2.31929H9.23777C9.07851 1.88087 8.78189 1.50102 8.38896 1.23226C7.99602 0.963513 7.52618 0.819153 7.04443 0.819153C6.56269 0.819153 6.09285 0.963513 5.69991 1.23226C5.30697 1.50102 5.01036 1.88087 4.8511 2.31929H1.59999C1.18743 2.31929 0.791768 2.47732 0.500045 2.75862C0.208322 3.03993 0.0444336 3.42145 0.0444336 3.81927V14.3192C0.0444336 14.717 0.208322 15.0985 0.500045 15.3798C0.791768 15.6611 1.18743 15.8192 1.59999 15.8192H12.4889C12.9014 15.8192 13.2971 15.6611 13.5888 15.3798C13.8805 15.0985 14.0444 14.717 14.0444 14.3192V3.81927C14.0444 3.42145 13.8805 3.03993 13.5888 2.75862C13.2971 2.47732 12.9014 2.31929 12.4889 2.31929ZM7.04443 2.31929C7.19826 2.31929 7.34864 2.36328 7.47654 2.44569C7.60445 2.5281 7.70414 2.64523 7.76301 2.78227C7.82187 2.91932 7.83728 3.07011 7.80727 3.2156C7.77726 3.36108 7.70318 3.49472 7.59441 3.59961C7.48563 3.70449 7.34704 3.77592 7.19617 3.80486C7.0453 3.8338 6.88891 3.81895 6.74679 3.76218C6.60467 3.70542 6.4832 3.60929 6.39774 3.48596C6.31227 3.36262 6.26666 3.21762 6.26666 3.06928C6.2672 2.87053 6.34932 2.68008 6.49507 2.53954C6.64081 2.399 6.83832 2.31982 7.04443 2.31929ZM5.48888 12.8192L2.37777 9.81921L3.47495 8.76122L5.48888 10.6962L10.6139 5.75425L11.7111 6.81924L5.48888 12.8192Z" fill="#FF9F10"/>
</svg>
