<svg width="16" height="16" viewBox="0 0 16 16" fill="none" xmlns="http://www.w3.org/2000/svg">
<path d="M7.70222 5.49268C6.6614 5.49268 5.64395 5.79462 4.77855 6.36029C3.91314 6.92596 3.23864 7.72995 2.84033 8.67062C2.44203 9.6113 2.33783 10.6464 2.54088 11.645C2.74393 12.6436 3.24511 13.5609 3.98108 14.2809C4.71705 15.0008 5.65473 15.4911 6.67555 15.6898C7.69637 15.8884 8.75449 15.7865 9.71608 15.3968C10.6777 15.0072 11.4995 14.3473 12.0778 13.5008C12.656 12.6542 12.9647 11.6589 12.9647 10.6407C12.9647 9.96464 12.8286 9.29521 12.5641 8.67062C12.2996 8.04604 11.912 7.47852 11.4234 7.00049C10.9347 6.52245 10.3546 6.14326 9.71608 5.88455C9.07761 5.62584 8.39329 5.49268 7.70222 5.49268ZM10.4684 10.0927L9.33371 11.1747L9.6005 12.7017C9.60845 12.745 9.60759 12.7895 9.59797 12.8325C9.58835 12.8755 9.57017 12.9162 9.54444 12.9524C9.51871 12.9885 9.48596 13.0193 9.44804 13.043C9.41013 13.0668 9.36779 13.083 9.32348 13.0907C9.24631 13.1054 9.16631 13.093 9.09756 13.0557L7.69507 12.3347L6.29256 13.0557C6.21337 13.0978 6.12044 13.1078 6.03382 13.0834C5.94719 13.0591 5.8738 13.0025 5.82948 12.9257C5.79145 12.858 5.77879 12.7795 5.7937 12.7037L6.06255 11.1757L4.92888 10.0937C4.88303 10.0499 4.85061 9.99452 4.83526 9.93369C4.81991 9.87285 4.82225 9.80902 4.84203 9.74942C4.86181 9.68982 4.89821 9.63679 4.94716 9.59637C4.99611 9.55596 5.05564 9.52976 5.11902 9.52069L6.68613 9.29767L7.39044 7.90768C7.41035 7.86808 7.43806 7.83271 7.47199 7.80362C7.50592 7.77452 7.54539 7.75228 7.58813 7.73816C7.63088 7.72403 7.67608 7.7183 7.72109 7.72131C7.7661 7.72432 7.81004 7.73599 7.85043 7.75568C7.91758 7.78869 7.97207 7.842 8.00582 7.90768L8.7091 9.29767L10.2772 9.52069C10.3673 9.53403 10.4483 9.58171 10.5025 9.65329C10.5567 9.72487 10.5797 9.81453 10.5665 9.90268C10.5545 9.9758 10.5187 10.0432 10.4643 10.0947L10.4684 10.0927Z" fill="#539968"/>
<path d="M6.72883 4.67462L4.66492 1.30463C4.58017 1.16642 4.46034 1.05199 4.31705 0.972443C4.17377 0.892896 4.0119 0.850925 3.84715 0.850616H0.523856C0.39688 0.850616 0.275103 0.899902 0.185222 0.98764C0.0953408 1.07538 0.0447043 1.19439 0.0444336 1.3186C0.0446657 1.41469 0.0753819 1.50833 0.132344 1.58661L3.46381 6.23663C4.36737 5.4074 5.50497 4.86316 6.72883 4.67462Z" fill="#539968"/>
<path d="M14.8691 0.850618H11.5458C11.381 0.850731 11.2191 0.892604 11.0757 0.972169C10.9324 1.05173 10.8126 1.16629 10.728 1.30463L8.66107 4.67462C9.88666 4.86274 11.0263 5.40656 11.9322 6.23563L15.2596 1.58661C15.31 1.51643 15.3397 1.43406 15.3455 1.34848C15.3512 1.26291 15.3329 1.17744 15.2924 1.10138C15.2519 1.02532 15.1908 0.961604 15.1158 0.917207C15.0408 0.87281 14.9547 0.849421 14.867 0.849611L14.8691 0.850618Z" fill="#539968"/>
</svg>
