<svg width="10" height="11" viewBox="0 0 10 11" fill="none" xmlns="http://www.w3.org/2000/svg">
<path d="M6.48637 9.65993C6.47637 9.78493 6.46737 9.89194 6.46037 9.99894C6.44837 10.1749 6.43536 10.3509 6.42936 10.5269C6.42936 10.5889 6.39236 10.5829 6.35136 10.5829H4.25138C3.72238 10.5829 3.19236 10.5829 2.66236 10.5829C2.60036 10.5829 2.58036 10.5689 2.57636 10.5029C2.56036 10.2029 2.53737 9.90295 2.51637 9.59695C2.48337 9.65095 2.45838 9.69694 2.42738 9.73894C2.37683 9.8097 2.31149 9.86863 2.23591 9.91164C2.16033 9.95466 2.07632 9.98073 1.98966 9.98806C1.90301 9.99538 1.8158 9.98378 1.73408 9.95406C1.65235 9.92434 1.57807 9.87721 1.51637 9.81594C1.11637 9.41594 0.716355 9.01594 0.316355 8.61594C0.199579 8.5036 0.108799 8.36707 0.0503635 8.21593C0.00963842 8.09473 -0.00664646 7.96667 0.00245093 7.83913C0.0115483 7.7116 0.0458564 7.58713 0.103373 7.47294C0.235764 7.20481 0.387153 6.94649 0.556376 6.69994C0.875376 6.18894 1.18436 5.66994 1.54936 5.18894C1.70401 4.97534 1.90642 4.80081 2.14045 4.67928C2.37449 4.55775 2.6337 4.49258 2.89738 4.48894C2.96638 4.48894 3.03437 4.48894 3.10337 4.48894C3.12008 4.48669 3.13704 4.49062 3.15104 4.50002C3.16504 4.50942 3.17511 4.52362 3.17936 4.53994C3.41403 5.10327 3.64935 5.66594 3.88535 6.22794C3.98036 6.45394 4.07338 6.68094 4.16938 6.90594C4.17731 6.92336 4.18141 6.9423 4.18141 6.96145C4.18141 6.98059 4.17731 6.99952 4.16938 7.01694C4.06038 7.30294 3.95335 7.58994 3.84635 7.87694C3.79935 8.00294 3.83038 8.06294 3.95738 8.10694L4.54838 8.30694C4.57009 8.31888 4.59429 8.32555 4.61906 8.32641C4.64382 8.32726 4.66844 8.32228 4.69093 8.31187C4.71341 8.30145 4.73315 8.2859 4.74851 8.26646C4.76388 8.24701 4.77444 8.22423 4.77937 8.19994C4.9067 7.86328 5.03303 7.52627 5.15837 7.18894C5.17077 7.16809 5.17784 7.14452 5.179 7.12029C5.18015 7.09606 5.17533 7.07192 5.16496 7.04999C5.15459 7.02807 5.13901 7.00901 5.11955 6.99453C5.10009 6.98005 5.07734 6.97058 5.05335 6.96694C5.00435 6.94994 4.95336 6.93094 4.90736 6.91794C4.86136 6.90494 4.84736 6.87793 4.86836 6.82793C4.98836 6.54593 5.10436 6.26294 5.22236 5.97994C5.42236 5.51194 5.61538 5.04495 5.80738 4.57995C5.81592 4.55065 5.83458 4.52532 5.86003 4.50847C5.88548 4.49163 5.91605 4.48435 5.94636 4.48794C6.37431 4.46427 6.79636 4.59643 7.13438 4.85995C7.30939 4.99877 7.46009 5.16569 7.58036 5.35393C7.99836 5.96793 8.39137 6.59793 8.78037 7.23093C8.89546 7.40556 8.97119 7.60314 9.00236 7.80994C9.01801 7.94076 9.0049 8.07341 8.96397 8.19863C8.92303 8.32385 8.85525 8.43862 8.76536 8.53493C8.71736 8.59093 8.66537 8.64394 8.61537 8.69694C8.24937 9.06894 7.88269 9.44061 7.51536 9.81194C7.45102 9.88717 7.36935 9.94562 7.27738 9.98223C7.18541 10.0188 7.0859 10.0325 6.98747 10.0221C6.88903 10.0117 6.7946 9.97742 6.71235 9.92234C6.6301 9.86726 6.5625 9.79299 6.51536 9.70594L6.48637 9.65993ZM6.77537 6.53693L6.75938 6.54494L6.53636 9.06493C6.58436 9.01393 6.61536 8.97794 6.64936 8.94294C6.99336 8.59361 7.33772 8.24461 7.68238 7.89594C7.69113 7.89004 7.69837 7.88222 7.70362 7.87307C7.70887 7.86392 7.71195 7.85369 7.71263 7.84316C7.7133 7.83263 7.71156 7.82208 7.70753 7.81234C7.70349 7.80259 7.69729 7.7939 7.68937 7.78693C7.46537 7.48693 7.24437 7.17795 7.02137 6.87295L6.77537 6.53693ZM2.24336 6.53693C2.20836 6.55093 2.19937 6.57595 2.18537 6.59495C1.89637 6.99495 1.60836 7.38694 1.31736 7.77994C1.27736 7.83394 1.28636 7.86194 1.33036 7.90594C1.66936 8.24194 2.00638 8.58194 2.34538 8.91794C2.38238 8.95394 2.40536 9.00494 2.46437 9.03794L2.24336 6.53693Z" fill="#828E9A"/>
<path d="M4.50037 3.57892C4.18793 3.57853 3.88263 3.48558 3.62299 3.31179C3.36334 3.138 3.16101 2.89118 3.04153 2.60248C2.92206 2.31379 2.89081 1.99618 2.95172 1.68973C3.01263 1.38329 3.16294 1.10176 3.38373 0.880697C3.60451 0.659632 3.88586 0.508945 4.19223 0.447653C4.49859 0.386361 4.81626 0.417214 5.1051 0.536322C5.39394 0.65543 5.64101 0.857449 5.81512 1.11687C5.98924 1.3763 6.08258 1.68148 6.08337 1.99392C6.08483 2.2023 6.04489 2.40891 5.96588 2.60174C5.88687 2.79457 5.77037 2.96979 5.62311 3.11724C5.47585 3.26469 5.30076 3.38141 5.10803 3.46067C4.9153 3.53992 4.70875 3.58012 4.50037 3.57892Z" fill="#828E9A"/>
<path d="M4.50036 6.67894L4.19537 5.94994L3.61935 4.57393C3.58335 4.48693 3.58336 4.48694 3.67336 4.48694H5.33535C5.41835 4.48694 5.41935 4.48694 5.38735 4.56294L4.53835 6.59694C4.52735 6.61894 4.51736 6.63994 4.50036 6.67894Z" fill="#828E9A"/>
</svg>
