<svg width="12" height="13" viewBox="0 0 12 13" fill="none" xmlns="http://www.w3.org/2000/svg">
<path d="M10.367 2.00319H10.0759V1.24524C10.0759 0.8284 9.74677 0.5 9.32905 0.5C8.91132 0.5 8.58223 0.8284 8.58223 1.24524V2.00319H6.74671V1.24524C6.74671 0.8284 6.41761 0.5 5.99989 0.5C5.58216 0.5 5.25307 0.8284 5.25307 1.24524V2.00319H3.41763V1.24524C3.41763 0.8284 3.08854 0.5 2.67082 0.5C2.25309 0.5 1.924 0.8284 1.924 1.24524V2.00319H1.63288C0.734092 2.00319 0 2.73582 0 3.63263V10.8706C0 11.7675 0.734183 12.5 1.63288 12.5H10.3671C11.2659 12.5 12 11.7674 12 10.8706V3.63263C12 2.73582 11.2658 2.00319 10.367 2.00319ZM10.367 11.4138H1.63274C1.32892 11.4138 1.08848 11.1737 1.08848 10.8707L1.08839 5.35062H10.9113V10.8707C10.9113 11.1738 10.6708 11.4138 10.367 11.4138Z" fill="#49637D"/>
<path d="M3.93639 5.93693H2.43002C2.31612 5.93693 2.21484 6.03799 2.21484 6.15165V7.11164C2.21484 7.2253 2.31612 7.32636 2.43002 7.32636H3.93639C4.05029 7.32636 4.15157 7.2253 4.15157 7.11164V6.15165C4.15157 6.03799 4.05038 5.93693 3.93639 5.93693Z" fill="#49637D"/>
<path d="M6.75939 5.93693H5.24033C5.12642 5.93693 5.02515 6.03799 5.02515 6.15165V7.11164C5.02515 7.2253 5.12642 7.32636 5.24033 7.32636L6.75939 7.32645C6.8733 7.32645 6.97457 7.22539 6.97457 7.11172V6.15174C6.97457 6.03799 6.8733 5.93693 6.75939 5.93693Z" fill="#49637D"/>
<path d="M9.5823 5.93693H8.06332C7.94942 5.93693 7.84814 6.03799 7.84814 6.15165V7.11164C7.84814 7.2253 7.94942 7.32636 8.06332 7.32636H9.56969C9.68359 7.32636 9.78487 7.2253 9.78487 7.11164V6.15165C9.79749 6.03799 9.6962 5.93693 9.5823 5.93693Z" fill="#49637D"/>
<path d="M3.93639 8.42532H2.43002C2.31612 8.42532 2.21484 8.52639 2.21484 8.64005V9.60003C2.21484 9.7137 2.31612 9.81476 2.43002 9.81476H3.93639C4.05029 9.81476 4.15157 9.7137 4.15157 9.60003V8.64005C4.15157 8.52639 4.05038 8.42532 3.93639 8.42532Z" fill="#49637D"/>
<path d="M6.75939 8.42532H5.24033C5.12642 8.42532 5.02515 8.52639 5.02515 8.64005V9.60003C5.02515 9.7137 5.12642 9.81476 5.24033 9.81476L6.75939 9.81485C6.8733 9.81485 6.97457 9.71378 6.97457 9.60012V8.64014C6.97457 8.52639 6.8733 8.42532 6.75939 8.42532Z" fill="#49637D"/>
<path d="M9.5823 8.42532H8.06332C7.94942 8.42532 7.84814 8.52639 7.84814 8.64005V9.60003C7.84814 9.7137 7.94942 9.81476 8.06332 9.81476H9.56969C9.68359 9.81476 9.78487 9.7137 9.78487 9.60003V8.64005C9.79749 8.52639 9.6962 8.42532 9.5823 8.42532Z" fill="#49637D"/>
</svg>
