<svg width="9" height="12" viewBox="0 0 9 12" fill="none" xmlns="http://www.w3.org/2000/svg">
<path fill-rule="evenodd" clip-rule="evenodd" d="M8.70939 4.3547C8.70939 6.85112 6.18059 9.58887 4.97709 10.7505C4.62517 11.0901 4.08422 11.0901 3.7323 10.7505C2.5288 9.58887 0 6.85112 0 4.3547C0 1.94966 1.94966 0 4.3547 0C6.75973 0 8.70939 1.94966 8.70939 4.3547ZM6.25974 4.35466C6.25974 5.40686 5.40676 6.25984 4.35456 6.25984C3.30235 6.25984 2.44938 5.40686 2.44938 4.35466C2.44938 3.30246 3.30235 2.44948 4.35456 2.44948C5.40676 2.44948 6.25974 3.30246 6.25974 4.35466Z" fill="#49637D"/>
</svg>
