<svg width="11" height="13" viewBox="0 0 11 13" fill="none" xmlns="http://www.w3.org/2000/svg">
<path d="M5.88237 3.39394C5.0832 3.39394 4.4354 2.74614 4.4354 1.94697C4.4354 1.1478 5.0832 0.5 5.88237 0.5C6.68143 0.5 7.32935 1.1478 7.32935 1.94697C7.32935 2.74614 6.68143 3.39394 5.88237 3.39394Z" fill="#49637D"/>
<path d="M8.5588 3.98536C8.13515 3.77542 7.98108 3.34563 8.13493 2.77181C8.31354 2.10515 8.75484 1.81449 9.34752 1.97327C9.9402 2.13207 10.1771 2.60448 9.99844 3.27125C9.8447 3.84485 9.49641 4.14017 9.02464 4.11016L8.97339 4.30137C9.04391 4.33593 9.10991 4.38254 9.16837 4.44133C9.45013 4.72468 9.44872 5.18278 9.16535 5.46443L7.98969 6.63331C7.61265 7.00828 7.0033 7.00732 6.62733 6.63126L6.01269 6.0164L5.66484 7.3149L7.13518 8.7861C7.25468 8.90571 7.34071 9.0546 7.38453 9.21793L8.00325 11.5226C8.10682 11.9086 7.87793 12.3054 7.49207 12.409L7.42392 12.4239C7.06044 12.4851 6.70324 12.261 6.60579 11.8978L6.02055 9.71759L4.74617 8.44266L4.88957 8.97139C4.95675 9.21934 4.9223 9.48376 4.79386 9.70618L3.38919 12.1381C3.18937 12.4842 2.74688 12.6027 2.40087 12.4029C2.05484 12.2031 1.93641 11.7606 2.13613 11.4146L3.44066 9.15571L2.896 7.1475C2.84055 6.91948 2.84033 6.67466 2.90536 6.4321L3.40469 4.56848C3.40706 4.55944 3.40964 4.55039 3.41223 4.54146L2.33315 4.25239L1.23587 5.35322L1.18107 5.40307C0.897271 5.63519 0.478036 5.61936 0.212757 5.35494C-0.0702982 5.07277 -0.0710421 4.61478 0.211035 4.33173L1.50534 3.03334C1.74909 2.78884 2.10492 2.69323 2.43835 2.78259L4.94977 3.45559C5.44028 3.58704 5.88749 3.84533 6.24667 4.20437L7.31079 5.26819L8.14527 4.43845L8.20039 4.38893C8.28673 4.31884 8.38557 4.27168 8.4886 4.24735L8.5588 3.98536Z" fill="#49637D"/>
</svg>
