<svg width="12" height="12" viewBox="0 0 12 12" fill="none" xmlns="http://www.w3.org/2000/svg">
<path fill-rule="evenodd" clip-rule="evenodd" d="M8.67707 8.018C8.57425 7.98372 8.53141 8.00086 8.43716 8.05227C8.12871 8.22365 7.37471 8.63496 6.92917 8.86632C6.81778 8.92631 6.69783 8.96058 6.56073 8.96058C6.41508 8.96058 6.28655 8.91774 6.17517 8.84919C5.54969 8.48072 4.95849 8.05227 4.45297 7.53813C3.94745 7.03256 3.51904 6.4413 3.15061 5.81577C3.08206 5.70437 3.03922 5.56727 3.03922 5.43016C3.03922 5.30163 3.07349 5.17309 3.13347 5.0617C3.36481 4.60754 3.77608 3.85347 3.94745 3.55356C3.99886 3.4593 4.01599 3.40788 3.98172 3.31362L3.25343 1.37704C3.15918 1.15424 2.94497 1.00857 2.68793 1C2.58511 1 2.46516 1.04284 2.43945 1.05141C1.59977 1.3599 1 2.15681 1 3.0994C1 3.36504 1.06855 3.61354 1.07711 3.67352C1.48839 5.47301 2.40518 7.07541 3.6647 8.33505C4.92422 9.59469 6.52646 10.5116 8.32578 10.9229C8.38575 10.94 8.63423 11 8.89984 11C9.84234 11 10.6392 10.4002 10.9476 9.56041C10.9562 9.5347 11.0076 9.41474 10.999 9.31191C10.9819 9.05484 10.8362 8.84062 10.6135 8.74636L8.67707 8.018Z" fill="#49637D"/>
<path d="M8.67707 8.018L8.8531 7.55001L8.84421 7.54666L8.8352 7.54366L8.67707 8.018ZM8.43716 8.05227L8.19771 7.61332L8.19432 7.6152L8.43716 8.05227ZM6.92917 8.86632L6.69871 8.42253L6.6921 8.4261L6.92917 8.86632ZM6.17517 8.84919L6.43728 8.42329L6.42895 8.41838L6.17517 8.84919ZM4.45297 7.53813L4.80951 7.18757L4.80654 7.1846L4.45297 7.53813ZM3.15061 5.81577L3.58151 5.56197L3.57645 5.55374L3.15061 5.81577ZM3.13347 5.0617L3.57383 5.29879L3.579 5.28864L3.13347 5.0617ZM3.94745 3.55356L4.38166 3.80166L4.3864 3.79296L3.94745 3.55356ZM3.98172 3.31362L4.45165 3.14276L4.44972 3.13762L3.98172 3.31362ZM3.25343 1.37704L3.72143 1.20103L3.71786 1.19156L3.71392 1.18223L3.25343 1.37704ZM2.68793 1L2.70459 0.500278L2.69626 0.5H2.68793V1ZM2.43945 1.05141L2.28132 0.577077L2.27414 0.579472L2.26703 0.582084L2.43945 1.05141ZM1.07711 3.67352L0.582138 3.74423L0.585067 3.76473L0.589682 3.78492L1.07711 3.67352ZM8.32578 10.9229L8.46315 10.4421L8.45026 10.4384L8.4372 10.4355L8.32578 10.9229ZM10.9476 9.56041L11.417 9.73281L11.4196 9.7257L11.422 9.71851L10.9476 9.56041ZM10.999 9.31191L10.5001 9.34517L10.5008 9.35343L10.999 9.31191ZM10.6135 8.74636L10.8083 8.28588L10.799 8.28194L10.7895 8.27837L10.6135 8.74636ZM8.8352 7.54366C8.73931 7.51169 8.61264 7.48412 8.46445 7.51107C8.33853 7.53396 8.23721 7.59179 8.19772 7.61333L8.67661 8.49121C8.69922 8.47887 8.70344 8.47713 8.70123 8.4781C8.69655 8.48016 8.67542 8.4891 8.64335 8.49493C8.6089 8.5012 8.57636 8.5013 8.54949 8.49805C8.52593 8.4952 8.51372 8.49059 8.51894 8.49233L8.8352 7.54366ZM8.19432 7.6152C7.88774 7.78554 7.13834 8.19431 6.69874 8.42259L7.15959 9.31006C7.61108 9.07561 8.36967 8.66176 8.68 8.48934L8.19432 7.6152ZM6.6921 8.4261C6.64717 8.45029 6.6081 8.46058 6.56073 8.46058V9.46058C6.78755 9.46058 6.98839 9.40232 7.16623 9.30655L6.6921 8.4261ZM6.56073 8.46058C6.51815 8.46058 6.47929 8.44925 6.43723 8.42337L5.9131 9.275C6.09381 9.38622 6.31201 9.46058 6.56073 9.46058V8.46058ZM6.42895 8.41838C5.82969 8.06536 5.27636 7.6624 4.8095 7.18758L4.09644 7.88869C4.64062 8.44214 5.26969 8.89608 5.92138 9.27999L6.42895 8.41838ZM4.80654 7.1846C4.33823 6.71624 3.93444 6.16137 3.58143 5.56202L2.71978 6.06952C3.10364 6.72124 3.55666 7.34888 4.0994 7.89167L4.80654 7.1846ZM3.57645 5.55374C3.55228 5.51446 3.53922 5.4672 3.53922 5.43016H2.53922C2.53922 5.66733 2.61185 5.89428 2.72477 6.0778L3.57645 5.55374ZM3.53922 5.43016C3.53922 5.38851 3.55095 5.34101 3.57372 5.29873L2.69323 4.82466C2.59604 5.00517 2.53922 5.21475 2.53922 5.43016H3.53922ZM3.579 5.28864C3.80634 4.84234 4.21375 4.09533 4.38158 3.80161L3.51331 3.3055C3.33841 3.61161 2.92329 4.37274 2.68794 4.83475L3.579 5.28864ZM4.3864 3.79296C4.41309 3.74404 4.46718 3.64475 4.48911 3.52047C4.51476 3.37507 4.48978 3.24772 4.45162 3.14277L3.51182 3.48448C3.51102 3.48229 3.50512 3.4657 3.50181 3.4388C3.49821 3.40957 3.49882 3.37787 3.50432 3.34671C3.50944 3.3177 3.51713 3.29872 3.51908 3.29414C3.52036 3.29112 3.51884 3.29518 3.50849 3.31415L4.3864 3.79296ZM4.44972 3.13762L3.72143 1.20103L2.78543 1.55304L3.51372 3.48963L4.44972 3.13762ZM3.71392 1.18223C3.54029 0.771793 3.14727 0.515035 2.70459 0.500278L2.67127 1.49972C2.74268 1.5021 2.77807 1.53669 2.79294 1.57184L3.71392 1.18223ZM2.68793 0.5C2.57574 0.5 2.47356 0.52205 2.41084 0.538095C2.37643 0.546898 2.34647 0.555878 2.32353 0.563154C2.30251 0.569819 2.28084 0.577238 2.28132 0.577077L2.59758 1.52575C2.6163 1.51951 2.63372 1.51328 2.6587 1.50689C2.67063 1.50384 2.68053 1.50179 2.68785 1.50063C2.69587 1.49935 2.69544 1.5 2.68793 1.5V0.5ZM2.26703 0.582084C1.24022 0.959314 0.5 1.93705 0.5 3.0994H1.5C1.5 2.37657 1.95932 1.76048 2.61187 1.52074L2.26703 0.582084ZM0.5 3.0994C0.5 3.27252 0.522083 3.43262 0.543002 3.55076C0.553609 3.61066 0.564384 3.66224 0.572387 3.69987C0.583118 3.75033 0.583136 3.75121 0.582138 3.74423L1.57209 3.60282C1.56681 3.56584 1.55504 3.51316 1.55051 3.49186C1.54325 3.45772 1.53529 3.41933 1.52769 3.3764C1.51219 3.28889 1.5 3.19192 1.5 3.0994H0.5ZM0.589682 3.78492C1.02268 5.67949 1.9876 7.36493 3.31113 8.68858L4.01827 7.98151C2.82276 6.78588 1.95409 5.26652 1.56454 3.56212L0.589682 3.78492ZM3.31113 8.68858C4.63465 10.0122 6.31994 10.9773 8.21435 11.4103L8.4372 10.4355C6.73298 10.0459 5.21378 9.17714 4.01827 7.98151L3.31113 8.68858ZM8.1884 11.4036C8.27466 11.4283 8.57189 11.5 8.89984 11.5V10.5C8.69657 10.5 8.49684 10.4517 8.46315 10.4421L8.1884 11.4036ZM8.89984 11.5C10.0622 11.5 11.0398 10.7597 11.417 9.73281L10.4783 9.38802C10.2386 10.0407 9.62252 10.5 8.89984 10.5V11.5ZM11.422 9.71851C11.4098 9.75495 11.4458 9.65531 11.4614 9.59947C11.4802 9.53181 11.5089 9.40908 11.4973 9.27039L10.5008 9.35343C10.4998 9.34191 10.4999 9.3333 10.5002 9.32821C10.5004 9.32306 10.5008 9.32006 10.5009 9.31944C10.501 9.31879 10.5005 9.32246 10.4982 9.33069C10.496 9.3385 10.4932 9.34714 10.4897 9.3568C10.4879 9.36173 10.4863 9.36622 10.484 9.37233C10.483 9.37495 10.4815 9.3791 10.48 9.38311C10.4787 9.38668 10.4761 9.39391 10.4733 9.40231L11.422 9.71851ZM11.4979 9.27866C11.4693 8.84948 11.2195 8.45987 10.8083 8.28588L10.4186 9.20684C10.453 9.22137 10.4945 9.26021 10.5001 9.34517L11.4979 9.27866ZM10.7895 8.27837L8.8531 7.55001L8.50104 8.48598L10.4374 9.21435L10.7895 8.27837Z" fill="#49637D"/>
</svg>
