<svg width="11" height="11" viewBox="0 0 11 11" fill="none" xmlns="http://www.w3.org/2000/svg">
<path fill-rule="evenodd" clip-rule="evenodd" d="M5.5 0C2.46231 0 0 2.46231 0 5.5C0 8.53769 2.46231 11 5.5 11C8.53769 11 11 8.53769 11 5.5C11 2.46231 8.53769 0 5.5 0ZM4.15969 2.72687C4.09688 2.63487 4.00032 2.57134 3.89096 2.5501C3.78161 2.52885 3.66828 2.55159 3.57559 2.61339C3.4829 2.67518 3.41832 2.77104 3.39587 2.88016C3.37343 2.98927 3.39492 3.10284 3.45569 3.19621L4.70969 5.07692H3.80769C3.69549 5.07692 3.58787 5.1215 3.50853 5.20084C3.42919 5.28018 3.38462 5.38779 3.38462 5.5C3.38462 5.61221 3.42919 5.71982 3.50853 5.79916C3.58787 5.8785 3.69549 5.92308 3.80769 5.92308H5.07692V6.76923H3.80769C3.69549 6.76923 3.58787 6.81381 3.50853 6.89315C3.42919 6.97249 3.38462 7.0801 3.38462 7.19231C3.38462 7.30451 3.42919 7.41213 3.50853 7.49147C3.58787 7.57081 3.69549 7.61539 3.80769 7.61539H5.07692V8.46154C5.07692 8.57375 5.1215 8.68136 5.20084 8.7607C5.28018 8.84004 5.38779 8.88462 5.5 8.88462C5.61221 8.88462 5.71982 8.84004 5.79916 8.7607C5.8785 8.68136 5.92308 8.57375 5.92308 8.46154V7.61539H7.19231C7.30451 7.61539 7.41213 7.57081 7.49147 7.49147C7.57081 7.41213 7.61539 7.30451 7.61539 7.19231C7.61539 7.0801 7.57081 6.97249 7.49147 6.89315C7.41213 6.81381 7.30451 6.76923 7.19231 6.76923H5.92308V5.92308H7.19231C7.30451 5.92308 7.41213 5.8785 7.49147 5.79916C7.57081 5.71982 7.61539 5.61221 7.61539 5.5C7.61539 5.38779 7.57081 5.28018 7.49147 5.20084C7.41213 5.1215 7.30451 5.07692 7.19231 5.07692H6.29031L7.54431 3.19621C7.57585 3.15 7.59792 3.09799 7.60923 3.04319C7.62054 2.9884 7.62087 2.9319 7.6102 2.87698C7.59953 2.82205 7.57807 2.76979 7.54706 2.72322C7.51606 2.67664 7.47612 2.63668 7.42957 2.60565C7.38302 2.57461 7.33077 2.55312 7.27585 2.54241C7.22093 2.5317 7.16444 2.532 7.10964 2.54327C7.05483 2.55454 7.00281 2.57658 6.95658 2.60809C6.91035 2.63961 6.87083 2.67998 6.84031 2.72687L5.5 4.73733L4.15969 2.72687Z" fill="#49637D"/>
</svg>
